<mxfile host="app.diagrams.net" modified="2022-02-17T16:53:51.172Z" agent="5.0 (X11; Linux x86_64) AppleWebKit/537.36 (KHTML, like Gecko) Chrome/98.0.4758.102 Safari/537.36" etag="4q5xRHzofofMVvhj6t5Y" version="16.5.6" type="github">
  <diagram id="HM1j5lmUzbFmTa_l3VBg" name="Page-1">
    <mxGraphModel dx="2163" dy="2235" grid="1" gridSize="10" guides="1" tooltips="1" connect="1" arrows="1" fold="1" page="1" pageScale="1" pageWidth="850" pageHeight="1100" background="none" math="0" shadow="0">
      <root>
        <mxCell id="0" />
        <mxCell id="1" parent="0" />
        <mxCell id="nePDa3_3fkzpvEF-QjUr-78" style="edgeStyle=orthogonalEdgeStyle;rounded=0;orthogonalLoop=1;jettySize=auto;html=1;fontFamily=Verdana;fontSize=36;fontColor=#000000;" parent="1" source="nePDa3_3fkzpvEF-QjUr-46" target="nePDa3_3fkzpvEF-QjUr-55" edge="1">
          <mxGeometry relative="1" as="geometry" />
        </mxCell>
        <mxCell id="nePDa3_3fkzpvEF-QjUr-55" value="" style="shape=image;verticalLabelPosition=bottom;labelBackgroundColor=default;verticalAlign=top;aspect=fixed;imageAspect=0;image=data:image/png,iVBORw0KGgoAAAANSUhEUgAAAkgAAAGACAYAAABWTZ3rAAAABHNCSVQICAgIfAhkiAAAABl0RVh0U29mdHdhcmUAZ25vbWUtc2NyZWVuc2hvdO8Dvz4AAAAzdEVYdENyZWF0aW9uIFRpbWUAVGh1cnNkYXkgMTcgRmVicnVhcnkgMjAyMiAwMjo0MDo1OCBBTUkdd+cAACAASURBVHic7N15XFRV/8DxzyDKDIIwIDKDG+ACKq5P7huopaJlbom7pdbjlhlmi1puPZVruVWPaJlLlluLS78U1J6ENkV7QM0NcwFUFNxgEJjv748ZGPbFvafzfr18yV3OOd9z7rn3nrn3zlxNXFycZKSnoSiKcicuJFykRYsWDzsMRVGUe+bSpUvYPewgFEVRFEVRHjX2AHXXTn7YcSiK8lcWDrde3/iwo1AURbln7B92AIqi/G+IjIx82CEoiqLcM/YnT55EZm9/2HEoivIXFRsbS4MGDR52GIqiKPdMbGysegZJURRFURQlPzVAUhRFURRFyUcNkBRFURRFUfJRAyRFURRFUZR8Sj1AMhPFNG8jw767n+E8eEI0c/yaM+X3hx3JQ/TrS7RqsIDohx2HoiiKojwiynYF6fp10jIsf8bNbYTR+20Ome9DVPdJ1GgHfMfmGwb83yLWZYQwsJFlMm5RYxw1GjQaDZqKRvw6jWLB/msPPtjipNr+FFLYOVCD2zM7uNPfQ5fmw+lpWsaHEfckOuVvTEhhXVfr/qPRoKtoxK/jYGZsPHbH/bPsMSSy7kkNVUaXvkObMm1/m9lDqKeGbh89Yvu9oigP1B3fYqve6x0WLOyD31/oJp0p6zbpaabcc/ju0zVkhvSgqXVOetJNyrUJ47zJRHrcDhbW38+77UL54lF5G0v8fIIrBjPvqmVSgyvNx6/h/RfborvDLDU0pefTt9i7Juqehan8XZkwpUGT14+SlpbGtdPhrBjkwI5hHekw99gDiUCDgQ4vr2XZyH+Uav30z4KpXd12BVVDU579YA0vBbvcvyAVRXnk5RneCInsnjWAdvUM6J11GBr0Zfr3hX+Kyto/j0mzIriC5VPj/llP8Vh1h5xPjuU1zSy3rU7NI9BtHItXjqZ9bU/07r50nWxJB7BnqIaOs1Yxs2cjvFz1+LaazNaTh1gzpiO1K7vi5T+Yub+n55SbEbeZ17vXxeilx6taG/q+fyjnk+meoRoCZ3zOzN6NMHro8WowiiWxlvi29tDQ6ROIX9cGTTk9wUuuYSaK8K+NtO7gX6B+WgcHKlRpSo8JA/Elll/P2Oqy7P2+NKzkgO8LlgFF0g+zGd6qJm5aHS41m9HrjQguZFnySV8VTOXBy9k0pSsB1V3RG5vliRlTNGvGdCSguiuuBl+CRqzncHp22kAc+i5k7eD6uJc3MvCDN2hY4xV2spMpBg2aCpZ/Hu2GMmPNkZzYr343iwGPeWP00FOrvm0bCinsn/04AQZLWR0n2rZDk07tyfxsO5FSYp9RlJKV06LVaqngWZ8OL6xi1wf1Of/qbD69bllc3H58/utJPOHviYuXkYZtFhBuvWqd+fsK/tnJsp8Z/HswbstFwHYMebm5HjdNXxZchJOrhjB1a5wl4al5dK8eyopPJ/CEv+UY1GLEeo6bIXFBK1xH7uRC4mSaWfcnuwp6Gg6ewGrr5wUhhd8+epYnajmj01nKnrDuTE5VizruKIryF7dr1y7JZpaDsvrNtbIvwSRmSZboKbXFw2OOHBSRLImUqXpH6feNZd2UjwOlSsB8OSYi5t3PSx1dsMyIipO46BUywOAuT3+caFnx2Expjr349wyTwzdEMmJmSQf8ZHyUZfGOEMTerpNM3J0oknFE5jdHdLp60nvJUUnNSpaIEY5SuXWYnLPGN7sO0mxSpCSJyO2TSyTEqa6M2mPKyctO21om7UgUyUqQHSFO4tFunSRZ6xfxLOI1IjKnvvLnXOlIkMw+b5t19A1fcWoTZkmTlSD7X24i7oyTr2/b6lIlcL7sTUyRhItpImcWS1c7P+n10VG5akqTS78skRA3rXRclJjTTo4YJGhWlFzJELm57yVpQRN55bCISJpEjqogxvZL5fANEUk7KPPaaqXJ60dz0ursXKVtaITEJyVI/PXsmLvL3Cu2mCOeRTxGhVsmziyWbjSWod9Yyr+6cZj4MUg+uSYi0a9KS3rLR4kikpksh346LanZmZycK4H58lWU0oiJicn52ywJEtYeaTItLu9KqeskBDcZurP4/ThLIiSUWjLsqxQRSZOk/xyQP7JEzFmRMtULaTw5Qs6bTHLp4Ap5Y5FlX94RgpSjqQz/Mk5S4hPkSoZlns+Yg5aycx2Dfk4WkYRNMqJ6hZx91LS6uxhqWo5zIpZj3ewqyFNrLNNXN/SQahWDZWZkoqSZkuXk2mekEa2s+3DJxx1FUf56YmJiJM8VJA1NGTZzMB0MDmhwpUlwEJUvn+ZsCYOsi7/tJ6n9SKa08sa7yRCGB14h5kxyznI7HmfE+pE0cgK7Bv15yv8PThyyXZmqPmoO73f2BPt69A32xqFeKCvG+6OzcyWoVzcqRB3lmIDm19VsPjGQ8W+3xh0oX2sULwQfJ/xL29WTmsMWsLC7J9gZ6D7gCSpEHeGPoq6KxJ3gEgaMnnlnZx6YjG9VPXoXH/pE/IPXoxbwVPnsurRnwtpQOnq6YKii5czaf/NzwwksfcEfvYMWj+bjeWtkRQ6v2ZZzdcbFdzIfTm+Fmz3oOrzAM/UO8eO3FxGJYG1YZbq8MY5GToC2KROea8nFLeH8YU3rqB/H3HlBGN0NGJ1L2BBA4uZ/81v9CfzrSUulXPr9k37Gr9m+D3B2x0ETxy//d4y0cq40buljuy3nVRUjFzgTV3IZilJWZp0eN1JIuZpewn6sxcHnFL/vi+REuhb3ds2oaweaHzawOX4gE2cFUdXBAY+mo3j7pdY5+VcNmc+H/b1xMRpwK+QFSnY8zoT1I2nhChj6MvHpTA5vCy/xuSghkZ0fb8d51BzebO2J1sEVn8Hv8nybn9i1wXbLsEzHHUVR/hLyPUFk4tSaSfTv1JR6jepT//mNJKHhVgmZGBo0w/lQBDsSgWsR7P61Ev9o6pOzXIOWiuWzpxzQOpLzsDcA5bQ5f2p1FbF3yLVM60jO0ovnOKvZyauNffGp64tP3fqM3GfAxVlTaF5oHamQZcr9THNeaWmk44gu3wG1XMNpRP58lLgLaSRGhxHayhaQBldc3W3rJlw4QYa3D9VypTd616J8fErOwDLLkVzpDRgNkJx8Fc3NBOKJZ+vY7Pr4Um/OH1AlVyxGPe65qleSxDNHSDozjfbW/GrVHcyqjBpULg/UeoV133bj5oL2GH178MqXZ3LSmXVatFwhQz2XqtwHdjfiiacqBoNDsfuxHa2ZuW0NXU9OpKVXMwa8FcF5gMvnSdJ4UV1beP7l9Ppin8HToMVc3jbt6lkfkpJzPsQULYGEP8Gjlq+tLhjxNcKlBNuHwDIddxRF+UvIOzQ4NIM+ww7zRPQ+NjapBFETqd/mZomZpDo64uF+kPfbeTKOqjQf8hWf9ncoMV2ZuVfDU/rw5pGVhNyL1+zqdDhwk7RM8rSEpoIrhmoGXEuRhV5flfKRcZyHnEFS3NmzUNtIDeu0JOX+4lkcp8+D51NumJ316KnDgNXHCWtfMO87Gau4etancuOX+C1yJO6FLK/W4x2+6PEWF774Jz0HvMy8Llt4xQ3s0kyYcEevnktV7oOUTev4hSdY2Bo4VPx+bF9/CO9+M4TZx5YwrE1/JgfEs0HvjpMkcM4Ed/JtBMFEWipYPm2ZSPgzhozqxkL3kbyMuFaFS3/GA5adw0wCp8+AWy9j2QNRFOUvI+8VpCsXuIaRhtUrgTmRqA07uUbJly8Ob/qU9MBlfH/yIoknD/LtjKBSHHjKTlr1oo/xCz6Y9RPxJiArhbM/bubHU6VLr3eyIzP6ICevXePaFaBaHaqQyMXzdx6Tf//+1D28lCmrjnHVnM7l3+YzY0UFWozrkdMGNy/N4cVJOzmVlMKRj95izYkgnnjaEw2d6B9ygl3vLOOXFMu6N/4IZ/uPicVUwg09pzj+ezrk+UaehXev/vhGhfHG9jOW2we3Evl1aziHzJB1eBOf7b9IGlpcaurRAk7ZCeMvkEBVfKsVyFJRyixLUki/YeLahaP8sHIsT70YQ62FkxmgK2E/To7kqy+juZoJ5T28cNNmWa78tHmaYN0GPnhzDwnXUkiKXML4qaX/aQuzZifz+y7guzPXSPppHjPXVKbTM53RAQ7ujtj9GcfJ62Ay5d2nNBjo0a8VV8KmMf+Xa6SZUziy+jUWHwhm5BDve9pmiqI8WvJ+i63zLBY8d4z3WtanWfPBzKvcjSY4UDF7BYdK6KyXqbX2AuW0VARaDvgnmg+b4eqmR6/X41KzGU/O/sly+dpehxYtFXPdj9eVJ1c+YJ/7Fpm9E5mOuT4i2uvIvhal0XRixneLaBk1nMcqa3Ew1OOJaXv4I6uovCxlZ9/hajLmfYJSX6GRZ1PGbr+G+DagAQc4/l9bEq2jYK8r4iNqIXWhyQzWf96Nmws7ULWiK7UG7sRz1tdsDLFdislsMJgemTPpWsNA23du8cTaVbzhbbld1335fkLdVzOojhads55G/Ray96KmQBvnbCPnvkyYWJHtPV2o2XQBkQLachVwsrPGHDCFLRtbkTCtJV7OOvQ+nXhx3THLVbKsBLaPDaCqk55qA34nIOxfjHCzZvzfn/iT+jTOdXtPUe6E1hH++3ZTtJV0eDbqwcjPrxH02S/83yTLt0WL3Y8rmDgZ1o8ADx36etM5OWA9i550AMdg5oa/hd/3z+BrMBIwei8OLf+BjkL2+0Lm2UkQz/Q+xPSWHlTv/jmZL3/J8qHWfbRLKJMCt/GCl5764yPRoIVKWhytxyjD+K18PiGTDX2r4OboQ4+P7Bm2Zz0v+RReVv7jjqIof02aXbt2SZcuXe44AyGFvUOMvFgxgr0fWx66vHngDbo89hNPxUXwhvc9i/WeE1L46mk9U70PcuT9piUnuAPX/h1E3SU9+eG/ofjdlxLujUMvlqNT4rdc+DL4jn9PSfl7io2NpUGDBg87jKL9MYvW/ocYnLaF8UU8w6QoipJbbGzs3b+LTUjk4AETlQx66ycmE9fOxGPCgJdbCYkfMg2udB/SF9O6HX/r12yYiWLbVg96Du+sBkeKoiiKwj14Wa0d/oz5aCZVv+9GrcpGjEYfuszLoP+eDxlR6V6EeH859AlloMsGwg7cn/wLu032qLGL2sBmzQRe7n4fHqxXlIdNV8itcUVRlBLc9S02RVH+3h75W2yKoihlFBsba/lye2ys+l18RVHunDqGKIryPyf3q0YURVHKKverRv4XmFZ2lCqNl8q5B1RexBCkzpToe5BTmsQu6CkN3CtIFULlqzKkLKnO0S9XEa9h4aXP8M+5EshAWZVa8qplVlLe3wwWn8pzJDqr4KJ719b32fUw6U1gntdg/U+U9RdS4FUjiqIodyP7xdCaCkae+PBMgeVmjrGyg4ZyGl/GfPfg4ysgfinBmj4sv2GbZcrUQJapxDcIFCZqtAO+Y4v5ysf67tRouCDnVUKW8iDzxt0/ICUZO5gf+iPVpv/Mz6em0e3ySnpr/Hg+ouS0JdU5NesmabfLEExaGiZM3CrDWwDuWd6ZqdxOTiO1kOX3qq3vu0xLjHYZJax3n8uKm9sIo/fbHDI/gDgeQffi96gVRVGsTFy9AQ07+BIzPYzIf86hTe4T1Q+L+Fd8J7pU+y9XH4V3cWSmkYqJW/foRGTKuk16ZsEfcM2Wnqkh48b9eQ2JJjmeBJrQrl8TvKuC0ImXV7ni0Ow+FKb8LVTv9Q4Lavvi9ze9lPI3rbaiKPeTudsoemd+ykc70nPmCSl8vfDfVHxhFM2zUvPMP7BoAO1re6L3MFIvaBpbz1kXJkeyYkRHAqq7onPWU6/DZNuyU/MIdBvH4pWjLWndfek6OSLn/WoZJ8MY07YGXpWN1KrflyX5H5P69TUa+k5hHzuZYtDgYTeZ3daLC+n2CeyZ3p2Ayg64GTszfsPFnGQXNk1iwGPe6J116I3N6Pv+IVK5xtYeGjp9AvHr2qAppyd4Sd6XBSUuaIXryJ0k/jmNZhU0eD69I2dZumkPcwc1wstJi1eDUXlizYjbzOvd62L00uNVrQ193z9U8BfEY1+nhWEC37GX6T4aNBU02FXwpfNzC9geb13HFM2aMZa2dDX4EjRiPYfT82dkkXVwCcNbeaBz1uPX/W1+vKwvdD0hhf2zHyfAYMmz40Rb+wsm4ja+yBO1nNFVyrtthBR+++hZyzKdDoN/DyasOwOAmT2EutXOc+XrUKgnVYcXcSksJZx5vRri5aTF0GgwC6NN3C7mylXutjY06Mvs/bbtVKq2BtJXBeLQdyFrB9fHvbyRkI3pxffjEvoq5kTCQx8noLIDDtXbMGr1ca7meotFcXEVFkux27qEsnLL2j+PSbMscZqJYppXc8Z+uojhrWri5mrEr+cCfi7ksqOQyO5ZA2hXz4DeWYehQV+mf/8XfNGnegZJUZS7kfsZJLMkSFh75B/z4yT6VYN4dVonSdkL/5wrHektSy//LFONFeWZzZbZVzf0kOr6QRJ23CSSmSyRL9aRGs3CLM/D/LFG5i8LlxM3RCT1iCztiHiNiLQkPDZTmmMv/j3D5PANkYyYWdIBPxkfJWKWZNnSC6k38aCkikjGif3y64VCgv9zrnSku8y9YpuV8nGg6Oxcpd1LO+TElUQ58K+24sVI+TzDku8PS+bKF7+liIjIle3DpTHdZX6iJW3Es7niK4RpdXcx1JwjB3PN2xGClKOpPLf6qCRfPSIrnrQXj3aWdjPLQZldB2k2KVKSROT2ySUS4lRXRu0xFcz84hLplutZkizZLANpJK8cFhFJk8hRFcTYfqkcviEiaQdlXlutNHn9aE6dqwTMl2MiYs6KlKleiN+4HRKfkiz//XSEBOgQfUghzyBFvyot6S0fJYpIZrIc+um0pGZvGw1So/Mc2RmXIkkRL0kL/GV8lG2bV6sYLDMjEyXNlCwn1z4jjWglrxwWyZIICcUoQ3faitk/0dFW/rGZ0oresiTNsj0ihiAuLefIvgSTXN6/WAbURFzKT5X95oLh7ghBNBWsbZ2SIOET/aQKobL7dtnaOruPtA2NkPikBIm/XkI/LqaviogkrwoSD5c+8t7BFEk5Gy7zAnWipZO8HVdyXPljuXCj+G1dXFmF1TO7X2RJpEytjDh7j5P1x00iN8Pl5dpI65kFE5rloKx+c63sSzCJWZIlekpt8fDI2+8fdTExMaIGSIqi3JXCBkgt5iaKnJwrHQmyHnjTJPrlKlIjJFxuSlTOAMksybIlGPEPPWLL8ORcCaS3LLtesKy4t7zFo926nJNwS7rLu9b1suSozPdHun6YIiJpEvEsYmwzX/bFFxN8EQMkD8N828H84hLpRkt5I65g8izZLM9SJ+dEd6cDpDq503zZR6qWs57gf5koTfI8kJwme55BfMYUcqopZoBkNm+XsXjlGXSYVnYUo99SOSZ5T4Tyy6vSJE/7W064hQ6QTs6VDpom8tzqo5LnmWnrtsluV7Mckfn1LNvGLAmyLsgyeLW142lZ2gZp8vrRsg2QzNtlLJWk/9Zcg5h13Wztl8+OEMTn+VxtfXGJdKOxjP2tbG2d8nGguLvbyiixHxfTV7PT5inn4hLpTqBl3ykhrgKxFLOtj8q14ssqpJ55Bkh6xzxtvX+io+j7by+YML+9o6Uez5XpiwMPW0xMjKhnkBRFuS+k1lCeD5rCnPejeeOdOBZ/YOCpHzuhI8q2DokknIVTB3rg8411piYNc4VOON0GMuLY/c5rvPfNcc7fTud2UgKmWpAK6AANWiqWz87NAa0jpGUAaAn64CAzXp3EcwHzcO86nfc+HEegC6WiqYztXWrObugAe+tdwVu/rOCNd1fy44nrpNqZuIyWgXfTUECmLtc7UJwdqZBlfU7p4jnOaiJ4tbEvs6yL7a4bcBletqefNTcTiCee3WN98bEe9TWZaVDYy6mvXOASXlR1zp6hRSraw81C1q31Cuu+vUroG+0xzmjB6HeXMe8Zb0v+aNFZG1HQotVlb5sEEv4Ej96+OdnYYcTXCJcSkstWr/QE4vGmjm+uH7kt6l2a2crZ2jqrSlWMJHHjMpBZtrYuZ9TjrsmuXwn9mKL7qpBM/EXwCPSyZV5eS06UpegDuWMpbluXWFYpSDlbWzuWc+J2oQ/vmzi15nVe+2QvMUnpaNITSKLvHX3x4WFSAyRFUe4LDQb6jO3LtP4rWeVzhO0Bz/NDq4LruHpAg6cjiJ7tXSCPxAUDGbS6HZ/+/AXBleHM2w1pUdpvvzk35fnle3n+7UjmP9mW56Y04/THre+qTiI7mNLhFU7O/4kft/hTga2M1rx6V3kWy70antKHN4+sJOQujtZmZz166jBg9XHC2hdcnufpEBc3XLjM1TTIfveQ5nZWkXlX6/EOX/R4iwtf/JOeA15mXpctvFJsNEZcq8KlP+MBy4jVTAKnz4BbLyMQhzjdID3Xk+yaW5mF10urR89VEuOBRtaZmSUMHrNsD9GXu3SBBCrT0Au4dedtXVI/Jqm4tHr0lSA5KQHwtMzMMNmefSpjHyhuWwspRBdX1r1yaAZ9hh3mieh9bGxSCaImUr9NYSPsR5t6SFtRlPvGoe9YerssY9y0aNpMGFLghc0aXAnq34nzq+ew6ojlKdLbl6LZ+W00aUDKxZNkOPvQqDJwM4pN4TEU/R0xGzNx/PDZdv6bAjgZMbqS58pBDr0bek4R859rXI9PKfFEoTGlcDXdGU8fH3RA4uav+Y1ytuyc7MiMPsjJa9e4dqVgegd3R/jzCL8kXCfxUsk1kVa96GP8gg9m/US8CchK4eyPm/nxVIlJ88ZNJ/qHnGDXO8v4JcUy78Yf4Wz/MbHgyo91JcjtS9YuOEYqJs7vmMSrnxb+NHfW4U18tv8iaWhxqalHCziVGIuBHv1acSVsGvN/uUaaOYUjq19j8YFgRg7xRkM96re8SfSWHZw3p3P+60m8uKHw3xjQ0IYng8/z4+L1HDdDxol1jJ2+pdiHtM+uCGXkZ8dIuRrHjtff44BHf55ueHdtXVI/Liltp54BJH0YxqYrwI1owkbNYq/19FzWuIrb1iWVdc9cucA1jDSsXgnMiURt2Mm1Ih4Ef5SpAZKiKPeUzh501lsJGk0nRo/zxenWSJ4dZrlaoEGL1j4rZx3jC+v4fPRllvfwROesp2arcSw/kEIq4D9pNf90f5/2/s1o1mUpKY8Fo3O23v6yL/iONV15yz8NOm4cfJeB/q5oPdow124OS2c1LRCrOPdlwsSK7BrsiV+bZURL4e9P1KLDXB7Q9WH64tYcmehPvSZteHZ3dZo1drAsA5qMeZ+g1Fdo5NmUsdsL+dZOl1BCA8N5ydeTNm9EWvK2B3vnXCcPa70cre0347tFtIwazmOVtTgY6vHEtD38UdgFnfJadGjR5brKoEWLubz1xdzL9xPqvppBdbTonPU06reQvRc11hhy1bl8MPO+fAWnzzrgZahPj7BqjJvWEV2FQsrMSmD72ACqOumpNuB3AsL+xQi34rcNgGH8Vj6fkMmGvlVwc/Shx0f2DNuznpd8LAOo4YsW0+b3YQR41aPfZ5UZPzFX+bny1mCg90ebCLk1hZaeRuoO3oPf9MnUdir8Npu2nJbHZ0+g5vrO+HrVZ/yBrry5ezJtNGVr68L6SHH9uMT2ePFLFvf+idf8XDE0m8yBge/xnC7Lsu1KiCt/LCVt6+LKKrGeDpVyYgbQap2oUEi/kM6zWPDcMd5rWZ9mzQczr3I3muDwSL+TtDDqXWyKotwV9S42RVH+18TGxqorSIqiKIqiKPmpAZKiKIqiKEo+aoCkKIqiKIqSjxogKYqiKIqi5KMGSIqiKIqiKPmoAZKiKIqiKEo+aoCkKIqiKIqSjxogKYqiKIqi5KMGSIqiKI+Yc7uX8PGeQn6JW1GUB+aRGCAJKWztoaHlvIsQM4s2mpGsf4DlJy5siFvXLdxiD5Mr1Ob5iAdYuKIoSi5movh42OvsSdLC2XkEaQbxyT1/m6iiKCV5JAZIGrSQ/V4anQaHBx2AvRO3KwDo0OoFB8cHHYCiKA+CEM2cOjoGbHnYkRTjh0/ZkjCCQU87QFoaJkzc0oDIDsZpXXlqfeEvjlUU5d6yL3mVB0GL3gEcKrqCsx5HUqgi8KBe/qt3cqBKeVcccUDr6obJ5cGUqyjKgyWY4LaJ1IyHHUlRTOz7ZC2ZI3bzVP6Xh2qa8WzYMlKDHvhHSEX5W8pzBclMFNO8mjNu5Zt0rWmPV60FRANJP8xmeKuauGl1uNRsRq83IriQBaStZ5CmMeMOWNKLRBBaSUP7ZRetOZrYM1RD/ZeiATj0Yjkqt1zGH4UE4tmsHy18HUDvS+Pe9ahuHRztGaohcMbnzOzdCKOHHq8Go1gSa0t39btZDHjMG6OHnlr1+zL9e8t9+2NTKuMZvJ4r1vUSPmxNVc1kdme/TfnUPAI1fVh+A8rXasVjLb0AI/XbPkajKnfZqoryNyWksH/24wQYXHE1+NJxYkTOPljUvmomimmeHXn5i0UMb1UTo4ce7w6T2XrOlm+xafMdsw7f+IkVIzoSUN0VnbOeeta8zOxkgl0bpp+FbUM1lNe0YfoJS8wHFg2gfW1P9B5G6gVNy1N2tqKOj5zbzMzejfBy0qJ196XlgAXsvUaZj48AkrGDNZ9XpesLrQtp2zi+mjaZsMOW6fRVgTj0XcimSR0IMLjiZuzM+A0XbQlM0awZY2kHV4MvQSPWc1hdfFKU0tu1a5dky5JImeqOVKw6SBb/niIJ8ckiZxZLVzs/6fXRUblqSpNLvyyREDetdFyUKGZJkLD2SJPXj1oy+OVVaQji2nmdJImI2RwuoTqjjA63LL6wfqKMmB0uSVJ6O0IQO21rmbQjUSQrQXaEOIlHO0v+cmaxdKOxDP0mUURErm4cJn4Mkk+uiWTte178GSSrUkXMkixbgpFy1JOxv1nyTfiglXg2C5NzZYhFUZSCYmJibBPRr0pLestHiSKSmSyHfjotqSLF2fdrfAAAIABJREFU76vW446z9zhZf9wkknFEwrqVkyo9N5e8nxd2zPpjjcxfFi4nbohI6hFZ2hHxGhEpIpb1Z9dAem6whXx1Qw+prh8kYcdNIpnJEvliHalRyLGhsLLMclBm10Hqj9wsJ6+KpMfvlnltkSo9N8tlSSzT8VFEJG19X/GpPEeis6wzjs2UVvSWJWnW8vWO0u8by6KUjwPFEYMEzYqSKxki8cs7iRcj5fMMEZE0iRxVQYztl8rhGyKSdlDmtdXaYlEUpVgxMTFScIDkhnRZmZIzL25OgLg2XprnYHH0FXdxbRYmSSKSsCBA3P2WyjEROf1eQ6nWt6+04jnLTvrLRGnKWPn69p0HuSME8Xk+0jZjax+pWm6q7Ddbyq5c33Ygy5JImWqsKP2+ETGbt8tYey8Zus0kZvN2GUdH6fOkQRq+eVTMkixrn0BavBN354EpiiIi+QZIJ+dKB00TeW71UcvAyKq4fTX7xN9/q8mWYGsfqco4+ao0afMds/KLe8tbPNqtk1QpOEDK/vDkH3okTx0C6S3LrufNp9CyIl8Uv3zrmr8bKt4Mks8zynZ8NEuyrO2JNHwz1yCmhAGS0Xe+HMte9+oK6U1LeSPOevzDS4butGVlWtlRjNZYFEUpXkxMjBR8BkkccfWwPYSTcOEEGd4+VMu1itG7FuXjUzgLNO31DAGh2/n6Sn+qhZ+n3csraHCoF9si0mkctY0LvRbzeP576WVVTmv7W+tIhSwTqUDimSMknZlG+7pv5yxOz6hBr/Kg0XSiZ794Jm46iNn9e35s1J81A7+n53vhXHjDi/DvW/DEUu+7DExRlDxqvcK6b68S+kZ7jDNaMPrdZcx7xrvYfTWblMv1bI1nNSpxmaTM4vdzS8K8xywy4tj9zmu8981xzt9O53ZSAqZakAoFvgAiJJJwFk4d6IHPN9aZmjTMFTrhdLuQ+uUv6/x5rmh8qetkm6Xxro0nP3HuOhjKcHzUXNrE5m2BhCzxL76Nc8nK/YUSrWXCPhU0NxOIJ57dY33xsR7lNZlp5DmQK4pSrBIf0tbrq1I+Mo7z2PatuLNnobaRGoDU6kmXOm/yzTfb8fu+K103tqRuzxss3LmF1j//ScvxndHdp+BdPetTufFL/BY5EvcCS7UEPRXMzQnb2ewdSWq3ETTs5sA/Bu1g+zfuRNV4ivV17lNgivI3Vq3HO3zR4y0ufPFPeg54mXldttC/mH3VbP2/nCmd7CGM6cxJrlOPmuWK38/NFJS4eCCDVrfj05+/ILgynHm7IS2+syzTYPmwZZeRPW3A1QMaPB1B9GzvsldW746TJHDOBNkHOjlzkkt4Ub0SiFvpj4+JG1YS2WwUi+8gjPzMznr01GHA6uOEtb/7/BTl76jEr/n79+9P3cNLmbLqGFfN6Vz+bT4zVlSgxbgeuAMamtLzySpEvzuH/U270KUStO7el/LbZrMk6im6PWn7zBb/+UuMnWN7aPNueffqj29UGG9sP0MawK1Eft0aziHrUVPbsw8dr6zm1XVJdA5qglnfmc7NtvLu1HA0vYNpeo/iUBTFIuvwJj7bf5E0tLjU1KMFnCh5X6VcKtsmPceHkRe5dn4Hs9/ZgQwLpq2mFGnzSbl4kgxnHxpVBm5GsSk8BpN1maDDrRKc+C2alGuJpKS5EtS/E+dXz2HVEcsTzLcvRbPz22hK9dNDHULoU2U981/awcmbcDshnDlvrYGRg+hlX/rjo5ljbFnxE01G97snF3k0dKJ/yAl2vbOMX1Is8278Ec72HxMByPzvEl4aspTwR/bbfIry8BUcIDlUsvweUbYmM1j/eTduLuxA1Yqu1Bq4E89ZX7MxxHaZuUm/EHxPnsOub1vLzt3paYLPHuVi574McLZldebnFWzedJSkMgSotQd751zf97fXoUWLI0DAFLZsbEXCtJZ4OevQ+3TixXXHSMu0rCrOPej5xHlunuhEYEeww4cefQK4csKVziFqeKQo91xWAtvHBlDVSU+1Ab8TEPYvRrhR4r5KliMdhzdg72hfDH4j2VZ7PusWd7JcXSkpbb5jlv+k1fzT/X3a+zejWZelpDwWjM4ZHAE7/Ok1bTgVP2tJTfeRrE4E4wvr+Hz0ZZb38ETnrKdmq3EsP5BCamH1y398rNCJuTv/TfsTY2hRWYdzkwnsb7aOrcs65VwZKs3x0S7mS9bEDCRkUL7fGLEe7ypmf/s2V/lae4FyWirmWl2LDnN50OBK9+X7CXVfzaA6WnTOehr1W8jei5ZjaeYf+9i6bg/Hb5RqqyrK35Jm165d0qVLl4cdh6Iof1GxsbE0aNDgjtObieJNty78sfoWG5+8h4H9hRybUpmOxz/jzFfB9+2RBEVRSi82NvZR+aFIRVGUvychmk2bK/H4h/fveU1FUcpODZAURXn48t+6+hvR0JRpp04/7DAURclHDZAURXmo7GjNnISEhx2GoihKHvZgudemKIpyp9QxRFGU/zX2wF09YKkoyt/b3T6krSiK8qiJjY0t+XeQFEVRFEVR/m7UAElRFEVRFCUfNUBSFEVRFEXJRw2QFEVRFEVR8lEDJEVRFEVRlHzUAElRlEdG+qpAPJss4/zDDuRe+XYIvh5vF/liXc7OI0gziE9K9Wbc++DGSvpogphz4SGVn4uZKKZ5Gxn23cOO5K9Htd39oQZIiqLcYyYufPU6w1vVRO+sw7VqfQKHL2NfKd5SbcrUQJaJW/c/yHvj15dooglmUVEjusxUbienkaqxvFJkTh0dA7bkWp6WhgkTtzRFpC+FuLmNMHoXMwgrTqblLbh2GSAksu5JDVVGR9x5MPFLCdb0YfmdvgT3+nXSMu68+L811Xb3nPolbUVR7qn4T/vT8rlTtFjwKT/2r4fHtVi+C1vCpohRdHzG4WGHd2/5D2dm2FXqeZW8qmCC2yZS7/FJrHqvd1hQ2xe/u/y4q8FAh5fXskz3jzvPJDONVEzcUidq5X+AuoKkKMo9IxLBgpe24fHaFrZMCqJBNQNVGnRm2KKvWGIdHCX9MJvhrWriptXhUrMZvd6I4EJWwbzM7CHUrTbP57qgcSjUk6rDLTPSVwXi0HchmyZ1IMDgiqtvD6ZGnOHA0gG093bBzbMNg1afyUm7Z6iGwBmfM7N3I4weerwajGJJIT8ALv83DF/NeL7JPsnHzKKlpjVvHcmOy3I7Y8S3wKXdvD9qJfvTreumhDOvV0O8nLQYGg1mYbSJ2xrI0vwfE+zaMP0sbBuqobymDdNPWMvDRNzGF3miljO6Sr50nRzBFWt2GSfDGNO2Bl6VjdSq37fQeLP2z2PSLEsaM1FM82rO2E8XWdrY1YhfzwX8nH1JzpxIeOjjBFR2wKF6G0atPs5VbJevTq4awtStcTnTFzZNopefEzpnPd5tx/NJLJAcyYoRHQmo7orOWU+9DpPZeg749TUa+k5hHzuZYtDgYTeZ3QKYolkzxrK+q8GXoBHrOZxOkbJilzOmbQ10zvq8sVN03ynTNstnz1ANHWetYmbPRni56vFtNZmtJw+xZkxHald2xct/MHN/twZcVN0BTs0j0G0ci1eOpn1tT/Tutm157d9BVK3yNpGSXaqJPUN0NBwbXTCgm1EsHtqC2q5aHLya8eSMPZb+kHmUzeO7EmB0QOesxz9wPMsOFN6Q15YF4dFmpe1Wda5bqTl9ZPU7DG9m6SOtBq0n9vRWXu9eFy9XPfU6v83eayXXC0rXRzN/X8FL3RtT20OL1t2XFiPWc9x6xTN7P147uD7u5Y2EbExHSOHAogGW8jyM1AuaZmvnB2nXrl2iKIpyp2JiYmwT0a9KI1rJm7FFrHxmsXS185NeHx2Vq6Y0ufTLEglx00rHRYkiIpLycaBUCZgvx0QkSyIkFKMM3WlLvn+io+hDwnPWdcQggW9HS5KYJHqCh2idXKXh0M1y3CSSvCpYfBgpG1ItaXeEIHba1jJpR6JIVoLsCHESj3brJCl/jKmb5VmqyWhLMZKwIEAc0UqLd+KsFX5NWjFQVqWKyLGZ0oresiRNxCzJEjEEcWk5R/YlmOTy/sUyoCbiUn6q7DeLZEmkzK6B9NyQq6xjM6W5BqnReY7sjEuRpIiXpAX+Mj7Kkt+WXki9iQclVUQyTuyXXy8UbNK8bRYpUysjzt7jZP1xk8jNcHm5NtJ6piX25FVB4uHSR947mCIpZ8NlXqBOtHSSt+NsbeQz5mBObB1oIkO3xkmaKVlOfDlL3t2aIvLHGpm/LFxO3BCR1COytCPiNSLSkubPudKR7jL3SnZ0aRI5qoIY2y+VwzdEJO2gzGurlSavHy1Qj+zYK1YdJPP3J0rKmbUyxssWe7F9pyzbLJ8dIYi9XSeZuDtRJOOIzG+O6HT1pPeSo5KalSwRIxylcuswOSdSfN2PzZTm2It/zzA5fEMkI2aWdMBPxkeJyMUl0o3GMvY3a6G3t8tYaufEm80sybIjBKkSOF9+vmyS9Pjd8vErK+SgmCRyVAWp1HyqfHfaJHLrtGwb5y+VNaGy+7a17fSO0u8ba/0/aCVVGi+1xCwicnWF9CZQ3o6ztbPOb5ysjTOJnF8hvRyQih7BMuvHFBFTpMwKQBq+ebTEepW2j179+j15/9ujciVDxHRhhYS4aeXJdSYRsfRfnZ2rtA2NkPikBIm/LnJ1Qw+prh8kYcdNIpnJEvliHanRLMxWnwcgJiZG1ABJUZS7kmeAtHOIGOkjy64Xvm7cnABxzX3gFpGjr7iLa7MwSZKyD5CMvpZ1RURk72jxZ6CEZVinr66Q3rTMGaztCEF8no+0Zba1j1QtZxm85GaWZNkSbDnomyVZ1j2hl64hnaVya0uMCe82EK9O1oFV7gGSebuMpZL032qyZbauW04ZRQ2QWuYaUJjliMyvh3T9MEVE0iTiWcTYZr7siy+8PbPbIc8ASe+YJ4b9Ex1F3397Tr1yBkAiIheXSHfriTOnjazL4+b4iGspTkpxb3mLR7t1kipSYIBkaROvPNvQtLKjGP2W2rabVXbswV/aYo8c4yD6/tut8RTddy5LSum3WT75+0XcW945/VFERLb2ES9CZZe5YNo8dbduy3evZ9fnqMz3t2xLsyTIuiBLfCIi8u1Q8SkkT/PtvAM9W9tY5g/dlqtvpa6TEOu6ZR4g5eojZkmQsPbkGbTun+goFXtZ2r24epW2j+apo7W87MFryseB4u5u2w+z+6l/6BFbopNzJZDeRR5X7oeYmBhRt9gURbl3XNxwJp6ExMIXJ1w4QYa3D9VyzTN616J8fApn76C4LMdcE46O6NChy36yUuuIYCItM9c65bS2v7WOVMgykZovTw2udOoVyPUvIjh0ey/h33ekz/SeNI8K5+vUS2zfHkvD/j1wz58uPYF4vPH2zfWclU5XYh00aNFZ6yFo0eqwPmyrJeiDg8xo/C3PBRhoOWiZ7bZHCaScLQbHck7cvg1CMvEXwcMn1wNT5bVoC0kPkHAhnozqxjzbCoCMOHbPGsDjjzWlXqP6dP53AiYo0I4AmpsJxBPP1rG++NS1/Ks35w+oUnTsjlpb7DqdC7dvZ8dTdN85h8sdbbMcufqFVlcR+9yPymkdbW1UQt01aKlYPntlB7SOlm2pwUDw0CCuL91MJLfZs2UNPN+XLvkeztckx5NAVTyr551vd8kyv2ZdW2BmnREv5/MkXC6qUsWz9RFLn8vdBo7lnCDLZIuriHqVuo9eDmfx6G60bVqf+o06Mf2gQ55n8coZ9bhb20JIJOEsnFrbI6fP+AQv5HQFHU6376yud0oNkBRFuXeadKQtP/H95jOFLtbrq1L+TFyer/HHnT0LtY3UKGR9cbpBeq4zr+ZWZiFr3XsuT/elYeI2dn4dwYFGXehWvxudG+5m2zfbCf9PNx7v7VIgjVmrR89VEuNzzcy0nQE11tOsXVkeYHZuyvPL93Ly5Bb6nx3Pc1Oi7rBGoEGPvhIkJyXYZmaYKOoXBvRulSh/LqHATy4kLh7IoNXVmfRdNEd/P0L4uDpFDrLMznr01GHA6tPEHbf8O306gfgfxuFXxvhL6jt3ss3Kqix1z8+13yjaZ33J6l/3sGljbToNaV1gHXFzw5ULXDxX+Pw/T9nm2d1IIOFGHbxrFixLZ28m60aub4NmmDAVXO3eKKGPCilsHdGFpTee58vfjnDk90jmtyj6ITQNBlw9oMHoiJw+E/dHAn+mr2NYkSPc+0MNkBRFuXd0wbwyoxaxb/Zh0Md7OHImkTNHIlg9tTcTV1/Dv39/6h5eypRVx7hqTufyb/OZsaICLcYVckWGetRveZPoLTs4b07n/NeTeHHDg/kIaa7Sg57/2MuKqdvQ9OhMDfzp0c3Mj2/OJrxxT3p6FkyjoQ1PBp/nx8WWB1AzTqxj7PQt3M75ZKzDrRKc+C2alGuJJJfw20dm4vjhs+38NwVwMmJ0Je8VsDLS4EqnngEkfRjGpivAjWjCRs1ibxGngTpPD6bGwaVM23iG5NREYtZO4vWViaRcPEmGsw+NKgM3o9gUHmM7+erd0HOKmP9c43p8CiY60z/kBLveWcYvKZZVbvwRzvYfi7jEWIyS+s6dbLOyKrbuJRDnYJ7pdYLtE2exM3UAIe0KWcm+Ez2fOM/XsxfwQ2I61+O2s2T0fHbZd+GZXuf5ZsbbfHc+HVLj2DF5FntqDmdki4LZuDRojPvpHaz/7+2c7bznPpzuS9NHhWTiU4CavlQtB1lHN/LNH0XnqcGVoP6dOL96DquOWAZSty9Fs/Pb6CIH8/eLGiApinIPafF/6zf2LWhE0tIQ/lHPh6adJ7PhYhf69HCBJjNY/3k3bi7sQNWKrtQauBPPWV+zMcTy6V5rL1BOS0UsnySHL1pMm9+HEeBVj36fVWb8xI7oKlBgXQDKaxGwTQM6HHDQZa8P9s657mnY69CiJfddumx2+BD8TEMun9DSobs/AP69B+N56jzeIT1sVz+seVQUS7y9P9pEyK0ptPQ0UnfwHvymT6a2k86apz+9pg2n4mctqek+ktWJedPnxFze8k+DjhsH32WgvytajzbMtZvD0llNC7Z4/nZwqISufK7lWicqWNvM8OKXLO79E6/5uWJoNpkDA9/jOV0W5vIF26jcY+/w+fLGnHqlMV4eTemzOoPa7Q34T1rNP93fp71/M5p1WUrKY8HonMEREOe+TJhYkV2DPfFrs4xD4kL35fsJdV/NoDpadM56GvVbyN6LRfzwUzGxl9R3Sr3NCrRf/n7hRKZjrluj9jqyb0YVV/fitiVYTvzdh/Ql9ZdIeKHg7TXLOgYGf7qNcRU+olcdV2q2f5sfq7flH1Sh96e7me39NeMDXNB6teG1S/1Y/p+pNMk+i+dqO+k4i+Wh6axrVwWPdpP5YcDrDLQz52zn/O3saA8Vcu04Wq0TFbMHOnfZR+3w4dl/zaTetqfxbtiMdlP+oGa7ujjb6aztn6//AsYX1vH56Mss7+GJzllPzVbjWH4gpdDbuPeTZteuXdKlS5cHXKyiKP8rYmNjadCgwcMOQ1EefZeW0t1zKbWjjrGk1cMORilObGysuoKkKIqiKA/CtU1rOOzej4EtH3YkSmmoAZKiKIqi3GdCIps2/ILn80NocxevllEeHPWqEUVRFEW5zzQYGPmDMPJhB6KUmrqCpCiKoiiKko8aICmKoiiKouSjBkiKoiiKoij5qAGSoiiKoihKPmqApCiKoiiKko8aICmKoiiKouSjBkiKoiiF+XYIvh5vc8hccNGeoRrqvnro3pd5dh5BmkF88qBfOqX87ZmJYpq3kWHfPexI8hJSiBjnRw37vizK/+bkMuVzlGVtylOt4TS+LeU7S9QASVGU/1lxcxth9C58kFOizFRuJ6eRWsiP+pkyIfOGFFxQBkI0c+roGLAl18y0NEyYuKV+SPDuxC8lWNOH5TfKnlRkB+M0GjS5/lUxLiD63kf56Ll+nbSMhx1EXpq0Haxc7svEC5uZVM06M+0oG6d0pK6mKeMO2NYVUjjw4RieauqJm1aHwb8Hk7eeseRDPcZG/s6kzLmsLeUgUA2QFEX5n1W91zssWNgHv0fwSCeY4LaJ1EfshPQ/ITONVEzcuoO2FY2JZKox+vsUTNfTMF1P4+y5UAq+Jlh5IG5cJQUvjJ7W6fPrGPFYCJ9SFyNp2OXaxkI02793pNuSfRw5EcH8x35heZ9QPryavYYRQ40MbiSml6roR/CwoSjKX9q5zczs3QgvJy1ad19aDljA3mu2xRc2TaKXnxM6Zz3ebcfzSaxlfubvK/hnp5o5n/zGbbmImT2EutXm+Qhb+kOhnlQdbp1xah7dq4ey4tMJPOHvid7dlxYj1nPcesUoa/88Js2K4Io1bUbcZl7vXhejlx6vam3o+/4hcu5mpYQzr1dDvJy0GBoNZmG0idvFXMlJN+1h7iBLPQ0N+jJ7/zXLbQovJ55ak6vCp+YRqOmT6yANZnYywa4N08/CtqEaymvaMP2EZZlgIm7jizxRyxldJV+6TrbFL6RwYNEA2tf2RO9hpF7QNLaeKzy+wtqzxO1zah6BbuNYvHI07eq44ObejP7zDnEuYjYDGnugd/el4/gdZN/pSF8VTOXBy9k0pSsB1V3RG5vlbdPMo2we35UAowM6Zz3+geNZdiDd2gZRTPNqzthPFzG8VU3cXI349VzAz7dsdbj63SwGPOaN0UNPrfp9mf79tZLT/voaDX2nsI+dTDFo8LCbzO4yX+zTYda64OCsxcFZizb7nROlqM+4lW/StaY9XrUKXnUqavuJ2dJvHltwxrLi9S2Mq1KHF75PJ/P3FbzUvTG1PSzbK3f/Tl8ViEPfhWya1IEAgyuuvj2YGnGGA0sH0N7bBTfPNgxafSan/D1DNXR7byvzejWkdmVXvOr0Zeq+axTKFM2aMR0JqO6Kq8GXoBHrOVzCuKK4emCKJmxAA4weeoy+bRi19mLpNkVmvmldUyZ8+zPb/hVEVfJeGrYjiDe3LmBsO38M1VszZOJg6nCauHy35sx2ptKVvWvXLlEURblTMTExOX+b5aDMroPUH7lZTl4VSY/fLfPaIlV6bpYkEZFjM6UDTWTo1jhJMyXLiS9nybtbU8ScFSlTvZDGkyPkvMkklw6ukDcWRUqWREgoRhm601be/omOog8Jt0wcmynNsRf/nmHyc7KIJGySEdUrSMdFiSIikvJxoFQJmC/HcsXWbFKkJInI7ZNLJMSprozaYxKzJEvEEMSl5RzZl2CSy/sXy4CaiEv5qbLfXLDOO0IQTYWm8tzqo5KckiDhE/2kCqGyOyNdIsc4iGvndZb6isjp9xqKZ7MwOZcvjyyJlNk1kJ4bcs08NlOaa5AanefIzrgUSYp4SVrgL+OjLIuvbugh1fWDJOy4SSQzWSJfrCM1Csm7qPYszfZpjr3U6RMmh2+IpG4dKrXtK4jhsamyI17k9ql50g0/GfmD5LSvIwYJmhUlVzJEbu57SVrQRF45LCKSJpGjKkil5lPlu9MmkVunZds4f6msCZXdty31n1oZcfYeJ+uPm0RuhsvLtZHWM+MsmZ9ZLN1oLEO/sWzLqxuHiR+D5JNrpUj751zpSHeZe6XwPlucLNksA6mTU0ebUtTHHalYdZAs/j1FEuKTC+Rd3PZL/aqf+NFHPoq/JpFjDOJj3SZXv35P3v/2qFzJEDFdWCEhblp5cp0pT/sHvh0tSWKS6AkeonVylYZDN8txk0jyqmDxYaRsSLWUvyMEsbfrJC9/nSgiaXJ0RiOpSqh8nR2/3lH6fWOrq7H9Ujl8Q0TSDsq8tlpp8vrREtuvqHokfNBKqjReKn9kici1I7I/OlnMkiBreyAGgyHPvxoVBslHidYMj82UVoyVr/KVY85YJwOpk7NvFMa0ursYGCSrUm3bcEsvpMPilBLrERMTI2qApCjKXck9QJLIF8WP3rLsum2W+buh4s0g+TxDJG6Oj7gWckKXPS+KPwNzHcgsSjNAakn3POVFT7AT187rJFXyDpDkl4nSJE8ZabLnGcRnzEExm7fLWCpJ/60mW0bruknVckUPkHyej7TNuLhEutFYxv5mqUt2G2TJaVnaDGm3NLFAHkUNkFrmOrGb5YjMr4d0/TBFzJIsW4IR/9AjtvVPzpXAfO1dXHuWtH2yy3/3enaMm+VZqsro8OzpozK/nu0Ek/JxoBh9re2ba3nrOYnWtNVk6LZcbZq6TkKoJqPDbSfk3G2+f6Kj6PtvFxGRhAUBUrm+ra9kSaRMNVaUft+UnPZuB0ghIBUq207YPiPDS1cfN6TLysJPviVtP7MkyJbuSMX2naURvWVhgZ3Esk5Ye6TFO3EiUrD9Ze9o8WeghGVYp6+ukN60lDdjLZMF+u3VFfI0jWTsb3kHSJb9wSvPfmda2VGMfkttZRWhqHokrwoWD7dBsvRA3vYxJSdI4tm8/3IGl7dPS/hEP6n9+OacDxw55ZQ0QDJFyht+SMOp0Xlmx80JkBpPzJd98cXXIyYmRtTLahVFuXfOn+eKxpe6TrZZGu/aePIT565DzQvxZFQ3Ui1/usvnSdL4UF1b9iI1aDGXt027etaHH5K5AjjnXvHiOc5qIni1sS+zrLPsrhtwGa5Bk55APN7U8XWwra/TFV9wOVuwWVWqYiSJG5fB3C2Efl5t2LrxGmO7bGLjwe48vcOzmIwK1kfnaPlb0KLVQVqG5W3wCWfh1IEe+HyTvXIa5gqdcLqdL5Oi2rOE7ZNdfsWc9tThiA5TzrQDWh1oskyAi6XujrljN2A0QHLyVewuxZNAVR6ra2tTs86Il/N5jl+2pZFytuWO5Zy4ba1L4pkjJJ2ZRvu6b+csT8+oQa/yJae9WxqqMWDFf5j3D0sDOrgYsLu0tOT6iCOuHi6F5lnS9tNg4OmJQ3EJXkNir+38M3snuRzO4jfm8cVvZ7maBddOO+D+uC3f3O2PoyM6stBln9m1jggm0nLfpsrdb/Xu6LnCjVxJl9HrAAAgAElEQVTbA0BzM4F44tk91hcfa16azDQK7rgFFVUPl2dXsiVpIq/3rM57dYcx84MFPNvYAQdXA56uhecl4e/ywmpHgr7sjHvJRdvSEcfWId35vGYY381qkmeZ9/j36PdxCP/P3nmHR1V8DfjdEMhuSEg2IWQTSgq9F0sg1ARECCgllEhVAQsgRRBRUCBgo4jSbAFFCaA0QQgoBLAQ/BQIKL2FErKhJyDJBpI93x+76ZsGQdTfvM+zz7P33ilnZs6cOXdm7r1Pz2vJ6XeaF5qOcpAUCkXpoXfHSYycNwFW/0LOnOQS3lStAHq3CpT9PyPx5LG1NuJlIk43ScvxWK7mVu5NCYKJ1BRAC2DCePYgd6p64Q7kGi/dq+ApPXnz8GLC8lg+M6fRc43EBKCR9WR6EY+SZWTvYyhz6QJGKtLQG+xowYD+7ixcvom9NzdwqMXTrLHhH2ksAufaZFoYGgy4ekD97tuJne5beOCC6rOI9uFy/qSKQq5AdvPEcToePJ90Q9zccOUCZ08BNS1X7W4aMd6sia9P0em6etajYuMx7IkZkm9wvJuHEkuGjnLuvnhWzT4jjvdWnqLaTzjComkr8BjUH4cvpjPljxDea5TEt093YIHzGnbs6Yl3mSRWBOt5516KllNvE7L1NidmZz16atJ36XEiWpcseVvlmNnIUv5Wr3zNz+MS2T22DaE9F9D81ED2dfVk/F5DrjTKXQtmojGSFzt9wp+LelH3hQhiTxVvo7wQx+aBrZlw8S3WbR1CrTw7reM+mci6piv5vQjnCNQmbYVCUZq0CaNnpeXMHhPFyb/gtjGaGVO+giH96GYPNbv3p9q+BUxedYbrKYkcXDaW1xYnQmB3QnQr+fDNHRiTk7gSM5+Rk6JIpR71Av4idm0U8eY04tePZdTK3NMEZs1mZofOYcuZZK78OotpX1UkuE/7vH4W0rwbPb2+5sPwX0kwARlJnPtlDb+cAg2BPBESzy/zLBtg75yIZPgbawvdpH3us3EM+fIoSdfiiHrtPfZ69KZ7Q8u1OoOHUSt6FqO+PMhDg3rZvPsVdLhVgBN7YklKTuR6Ee8+0uBKUO9g4pfOYMlhy27Z25di2fxdLPmiFlCfKUW0z93w16UZjBq7mVNXkjj88RS+OhFEx+6eYB9Mn27xbJj6Flvi0yAljqjx4ezwGcyQR4tO17dbb/x3R/D6pjOW8t1K5Pd10cV7ZYPeDT2nOPhzMjcSkkgF0v+cz5gBC4i+26cG77E8RbVf4kfPMuv8qyz6bBEfDN3H0kELOUYyCUmAjz+Vy0DGkVVsOHaX8ls59+kIi95eP8KaN2fn0ttsWYPpHXaCre8s5Lcky7mbx6LZ9EsiYJkN+/nj+ay3IYutchw3w4moSL6PSwM7V7w8LD3Cjkr0X3mdo/tiiY3N/v1xfjEvulnS07YMwPf0Yc4Vo2xCIpsHtmbMkbEsXjeUOrdNmEwmTFn3VCaO/vYn1YIeKtaMlHKQFApF6VEumJmbP6X1iRd5tKIO5yYvsatZJOsWBqMDyjz8DisWNebUK43x9mhKz6V3qNHaAI4hzIyeQu0f+uBv8KLBsJ04BDxEeTwZPHcegX8MooF3XXp9WZGRo9uiK5edpZ0E0afHft4I8KBq5xWkv/wNiwZaljm09gJltJQHNJpgpm6ZS8DuwTxcUYuDoS4dJ+/gWIbl7rbHx6sJuzWBAE8vavXfQe03xlPDyfYym7aMlsemv4TP8vb4e9dj5N7HeXPbeAKtDpXUH0Sfuvs5sC+Ybn1sL7nYUYdukwdT/ssAfNyHsDQRsNehRUv5HE9d6cpafgBez0eyYthlFnXxROesx6f5CBbtTSLfe+8KqE/HItrHVv6CLiv/THkkxzJNev3+dEmfxuPVDLR85xYdly3hdV9rnX6xjem+6xnZwAWtdyATL/Vi0c+TaJI58jhUyJW2VutEucy2bTCBtauaY5wcgLezDr1fMKMij2YvFxUSV5xDeWl0ebb296R24EJiBdKP/ci6yB0cL8a7kbSQK224u/LkpaD2S725jtcnXaXNx28QaF+BFnNWEJLwBhO+cuWZt6dRd2N3fBs2o9WEY/i0qoWznUUvc+o3AGW1CGQfAzoccMihxlWe6kWlFY/hbwhk/B8dcultpvwaXOm8aBfj3JfSr6YWnbOeRr3eZ+dFS0AhlpUvjmbRT3kea7ux1mY5xkcmU/7iD8wIqoTO2Yugdf6MixxJbQAnV1y8DBgM2T+XSjnWhu11OAJZDzceC+dRjQa7sv1ZwQkWtNCg07RnxgXQnPqK95Zd4MTe8bSrqEVbQYdOp6P6sN1WuU1cuwlabfHW8jVbt26VDh06FCuwQqFQ5OXQoUPUr1//wWR+LJwWdfbTP3UtI+9i/9L9ZPdwLSHHl3ByW78S7Z/4N5H8aRC15nflpz/HWQY7xT+azU9pGKHfx+lF9/ZWJ4l+nqYDnJl+ajZPOBYd/p64tIAunrH0l8X0u8ekhCSWP64nspuJqOEOhYY9dOiQ2oOkUCgUpY3IdlavSePhd7r8Z50jxf8mZuL4/L09tFsRc/+dIwBnN1xJwHgRKP6zDgVgJPFcWZwNhTtHmaglNoVC8e9Fl39J6J+A5qeVbL40hP69bC+v/VfIt8Sj+EejtQd753v7jo0dfgz5YS8ftCuek3GviC6Y/s8eZJbh3r/FtiiwER9mTGBAp+LFUUtsCoXinnigS2wKhUJxHzh06JCaQVIoFAqFQqHIi3KQFAqFQqFQKPKgHCSFQqFQKBSKPCgHSaFQKBQKhSIPykFSKBQKhUKhyINykBQKhUKhUCjyUDoO0rlZBGn68XkR3xL6X8fMbib7ejFoS+mnLcQyo/YjTPij9NNOW9IOzyYLuYdXUPxrEY6wrH89vJ20VAlYyD1+BkmhUPxLuJ/2ukDucSzdMVBDrVf3l65M/8OUjoOUmooJE7fu7f1TDxyRKEZoXXlyeVrBgc7Nop2mBVMO5z5tJo7FbTQEhp8pPJMbN0i9248lFsb3c4m8E8ZTjYpZjoJIWECIpieLcnyvyJSugQxT9rdw/ofQ7PyYGcvrMuWUidPf9bf5OYXb5zcxq3sNqmhGsr6AdIRYZtTU0Xft3csiJHHosxdpU6ksAe+eyXV+70cv8mRTT9y0Ogx1ujB+3ZkC03kg/D6GJpqQe3rRm6J0KI4u7h7mgP/w2L9PqH8CyztTreGc3DdB98teF8Q9jqWmdEi/WYpvTf239Fsb41ZpoJbYcqJpxjMRCxkfVPAbQs3VnuCJxr+yYmluL93u3GpW/xxA+6d877OQtjCx5YuvSA/rQlMoVjkKJD2VFEzc+juNwj+Zy/HccK9Lw0pQrpJrvsupG58n8LH3Oevtg1CwEymY4LaJlLusVyGWRW2a0jvaCf+K6bnSEWLZ9IMjneb/yOET25n98G8s6jmOj67dXV73hTqDmRYxji7eD1oQRXF00ZRxm7RU098n1D+AtHQNd26a8n/493+Zf0u/vV/j1tatWyUndw58Ks8HVRO9g1Y8a4fI8DWJlgvnVsvU7g3Fq7yDOLj5yaN9ZsuOJGuko9OkOT1kfqr1eF1P8aGffJ4s+TAtbivles6RVWNaS31PF9EbgmXECkseGbJdXtZXl2HR2eFjX64k3oOsJ07OlLb64fJhxFBpWaOC6N2aSq+ZsXIuOlz6NKoorm5+0mbEJjlvjWuW67Ln/T7Sqnolca1okDrtJsnac5IrrQVze0oD53Li91yMZEiMTPIxyMDN1jA3Y+TDAY9IdRcHKefVVLpO2S5XRMQ4O0A87CfJLnO2nMZ360ulxgvkrCTK1ml9pGUdT3F10opnvZ4y+fska/liZJLeUXptEBFJlahQpOGbR7IT2dBf/CrOkNgMy+Ht06tlYqeaYvByFa/KLaTn3FhJyV+lkiHbZZzOK0vuvOUorM5z8dur0qAMAghlkYqacbLVLJL0STtxaTJOPprcSeq7l8sXv7hy2qrzOwc+ldGdGkn1iha9emRwpBzLKJ7cdw5/Ki8EVhW91ioziL7jGkkpgUxmuS6/f/S0PObvJFqtRedHLosTEZGERc1Fa29N214rLabF5Yt/5/heOXFTRLYNED+GSKTN9omS4ZrserWnhUw+brl2+cdwGRRg6W8VqjWVJ1+Llvh0W3Ia5dhvRsmQ07IgEGkQnl+WLH4bLY1oIq8cKDhIaXLw4MGs/2a5Lr+Ed5D6ni7i4uknbUZFyxURkZMzpR1PyZIUi3wNyW6zCvSTFXeK6K+p++SzPvXEUNFVDH4tZMhX+fXXLMYC+14+CujbcuewrB7RUeobyonWyVVqtx0hC/aYRMTar7welhe/eFsGNa0meheDBDwVKQdPrZWJnWqKl4ur1AmekW0XT86UTlVelk8/HymP1a4krnn0uzDdExHZPgBpO2W5TO3eUAwVXcWr3hCZl13VcnXzNOnzkI8YKrqKf93cZS0obmG6mCnT2pDs69i5Sud5lnSLq6tFhTWLUbZNflIerlRWtM5+0jx0gfz6l+Va/Kox8mSt8qJ1chWfwBGy5GDR44JpcWdx77dQVr3SUepXcRFXQ9Os/p70STvx9piRw1anyvb+Wmnw4r5c8hpnB2T39bJIpW6bsux1j3cWyguBVUXr5Cq1uszOkrWoNsiq0y0DxY8Rsv629cSf0+RRmsubhyyHmfZ68AYROTpNAugsL3/5kkUvnP2k4zhrH5KidSYqDPHLUbbiyGerjqLCsNRRzn4rIpK6T758oY3Ur2Lp3+0GR8p+k4ikRMpTNJLhe6xymqPlZWek1YLErDS3D0Dqjt5nKW+lNjJ25fsyKKCaGCq6ik/rcdl9XQrXn+0DkDbTFsvYh11FT09ZEP2GzXHrXjl48KDkcpDMGTEyyRtpPH67xJtMcmnfZ/L63Bgxyz6ZXhOpN2SNnLwmkpawTWa1RCp1XWNpuLwO0oFPZNTTCyQmLX+mSZ+0E0cMEhS+W67eEUlYFCzeDJEVd6wDPdkDvYjIrtGOog+z9oyj0+QR7KVmzwg5cFMkZd1AqWFfTgwPT5KoBJHbp2ZJJ2rLkJ8swa+t7CJV9f0k4rhJJP26xIyqKdWaRVgcKGtaldrNlp2JSWK8mJrLgTHLdYkKQyq1my3/d9kkaQnb5JNXPrM4Lxfn58onQ47I7MYWZTDLPln65jL50WgSs1yX2Ak1xMNjhuyT/A7S2m5InXGHswu7todULmNxvDLrvNnYGLkiIrdPzpcwp1oydIcpf6WenSltCZLp8Zny5Myn8Dq3nVZnmXk1d5vp7Fyl1ZgoOXE1Ufa+3TIrfonktFHn19a/Jx98d0Su3hExXfhMwty08kSkqRi6cloWB1h08s+EI7JtfFPxrDpJtt8qmUzXVnaRKuVDZFpMoqSarsvJZX2kEc2znYtvekqVsjNyOcM2KcRBymyT6dWQritznDwzTx63qy3dPj4i10ypcum3+RLmppW2c204r1npFO0gmZZ2FgP9so3afSangySxr0oAPeTjRBFJvy77fz1tcUzz2ggREUmVXaO8xDs4Us5L4f3V+GFzqdR4gcW5SD4su2Kv55OjsL6XO5ztvr1PTBIztJxUeGSSbDltErl1WjaOqCMVNeNk221rv6qI6GqPkGVxJpH4z6SbA1LeI0TCf0kSMcVIeIMcNz1Wfa/TNUL+77qIGFfL01XLZbVvUboXFYbYaVvI2KhEkQyjRIU5iUerSIvNPTNPOtFYBm6wprVqkNTOcVNaWFybupiH7c8g3k/HZJ8oia4WETbpk3bi4dZP5h221PHWt8Ml8pSlvtrQRAaui5NU03U58U24vLsuqchxIa+d+OvHMfJo5g3CxfnSicZZA7fc3iTDqZHL2crEtLSzGHyy9SWzvctX7iezdyVK0pll8qI32TdKRbRBFilr5BmqZOVpnNNAHNHKo+9Y0zk4UZpnOiFHp8kjGqRa+xmyOS5JrmwfI49SR0butgQtjs5kOUjFlS9vHaWskWeoKaN+kjz9NlVihpYTr9YL5MBNEUndJ7NaaqXJa0fELEaJaI00ec2q+7+9Kg1BXNtbdM5sjpZxOi8ZFm2tV3fE2XeELD9uErlzWCI6lcn2J4rQn6gwpAxNZfA3cZKUYJSrd8TmuHWv5HOQZMcoqZPTW8wkZpTUpocsvJF9yrxloPha7/xsGz/bJH3STrz8Z8vRzBPXPpMeBMjrccVzkALoLO9a5ciQNfIMlbMUL0OOyOy6SJt5SVl3QrkckJMzpV1mOY5Ok4AcToUlfg4H6XZupc6JWYyyrGMOA3J0mgTQQxbZapydw6Quz8q3UjIHSX4bLU1ytUWq7OiT++4gdx5PScSd/OUoqs7zUYCD5GGYnT3QXJwvnTLjl0ROG3Wek8xOlmk4CteVKBlBw2xH5mS4BGXWQTFlMotRIoMsdzWZZDogWR39PjpIcTMaiGvjBVkzniIiR15xF9dmEVl3jPnTKcJBMsXI67WRhpNiixC49MjlIJ2cKW00TeTZpUdyz9jZsBF39k+UADrL3NNSZH+9viREPNz6yYK9BcwI2SJH38tJQX3bYk+qyMCNORzplEgJs4bN7Fe911mu5xsUxGKvynfblFXmADrnspuxL9mJa/tI+UsSi9S9qDDE77kcTsq6nln2wTingVSsF5GlO5bZrfJZfb6wuHfjIJVEVwsLe9la7ho56iw7np+4NovIFc9StqIdpJx2InMcaDEjMX8f/26g+GF7hsGmg6R3lJBvsvUh5kUH0fe2tG9RbZBJpm7XHb1PzHJdIjvq5fGw9lKxhaXujO/WF+/gyKzJhoAc9tcsh2V2XeTxj5KKZa9yOkjFl8+SbtXRFpuRuipUfN2s41COfms2b5LheOdqB9PituJVe4Ectebnbv1/+r2GUiU0VJrzrMVH+G20NGW4rL+dvx+JiEU/GSHfStG6FhWGVAuLzm1f7pODZJ9rve1yPFc0flTV5lmHi4/nqsafWk7ZpzS+NfDkV87fKPmyXoZjjgOt5cC+mAu/GrSUL5t5pMMRHaasYwe0OtBkmBCuYzwHp/Z2wW9DZuRUzOWCcbqdmZYrru4F5HM9ASOVebiqLRkMhD4dwoR+kWz4tAWNVnxOXNc59HEDMHHqq9eY+PlODl5JQ5Nm5AqhJd/gfPE85zTbebWxP+HWU3Y3DLgMtrF7LzWVNBzR2ee/lMm91DmApiJkJeHshi4zfknkxEadX45m3uuz+HrPOa5lQPJpB9wfK47cfvg1OkbUhqOkNPLl4vqdxPmH0My+JDIZMZ4Fjx7+WWfs8MLfCy4Zrxe7bu4W44UT3PH1o0qOc16+1SmbkMQ5oADVLBAhjnUDOrPCJ4It4U1KUdISUP0VIr+7xrjXW+M19VGGvbuQWX188wUTjvDh0LmUeXM/Y/zATGKh/dXlmcWsvTKa17pW5b1ag5j24RyeaZx3j13x+l5BfdvukvV8rex0zTovvJ3jOX45h+xlMq9r0eqAMtkG07GME2Rk793RoMVcNjuuq2c9+Ok6V0ksnu7lSButI+UyLHtkEs8c5sqZybSu9VbW5bQ71eiWI6+C4t4NJdHVwsKetZbbu4eXjTwSuFPVK1e84pLTTmgw4GWA69evoaEuIQODmDBsDTEf1Cdt7VfwXAwdSrAJ2lGbrQ86nQu3reNHsdoAi80L7taOG1O2s39mdaJ/aEvPQ22xqx/N+pQnkE2HaNivS1YdatCis5ZHrDpm2SheMntVfPkM1jpaza4P/Lmxcg1lh8YSmKeONH8ZSSCBbcP98bOONZr0VDIbzNCtDw3GbWL91d5UiY6n1cufUX9/NzZuT6Px7o1c6DaPx3Lknd2PAM8qVOAyV9KL1jWAMno9unwlLn1yD6l6d5zEyHkT5Mrdxnk5c5JLeFO1AnCZUkOcbpKWoxdrbqXfVToaDLh6QP3u24md7ps/wJUi5HBzw5ULXDwP1Mx/Xdt9CI8zmq+/H8gfy1JpO9uq4Pun0nPQATrG/siqJhVg92jqBf5lMw+tPaSl5NgImZ7jv3sVPKUnbx5eTFghjg8AOh0O/EVqOnlb9P5TEjnzICTx7dMdWOC8hh17euJdJokVwXreKVZsB/TOBq5sC6Xhx6mUrRHCG9+NtGxSL7ZMXrhWhktnEwAXAMwYOX0G3LrlN+D3ggbLYGWXYxOhXl+ZsjFxxJNlY4g7dw5qeFGthOkLcWwe2JoJF99i3dYh1HqAj19U6fIOX3eZwoWvX6Br35eZ1WEtr+QJc3Hesyw88waRk+oAxeivGGj1ytf8PC6R3WPbENpzAYGnxuV+qrCYfa+gvp15/uyp7PN2N40Yb9bE1+fu6kIwkZoCluY3YTx7kDtVvXDHcE+65+pZj4qNx7AnZkiJHWlbulgUJdHVwsO6oK8ECUYjmeXOiudWgbL/Z8wVL5OixgW5Qg7nL47T8eD5pBsArr2G0vrZqSz9vTX2q2oQHNWi+AUvhJK0gUv3UBo+v4bN6xuyt1EHptRrz82Gb7Nxwya0P3fisVUuRaQAJbVXJZEvs44if2qIaU1Duh/If4NldtajpyZ9lx4nonX+NKR6VzrUfJMNGzZR+4fHeXxVALW63uT9zWtp8X9nCRjZHh1gtoYvY0oDLE6S6cxJblAXnzJF61pikfVUeuQ2o4HdCdGt5MM3d2BMTuJKzHxGTooipU0YPSstZ/aYKE7+BbeN0cyY8hUM6Uc3WwPQH58yZvBidt8umTAa6lIv4C9i10YRb04jfv1YRq0sYSJZabkS1DuY+KUzWHLY8rj77UuxbP4ulmK9YsI+mK4d41k/fQ4/JaZxI24T84fNZlvmE5S6EAYOiGfT9OGsOdWLAV2s3vDVCyTjRcOqFcCcyO6Vm0nG1u2KlroNfEnauIadyXDnZARPv7aZ29ag0rwbPb2+5sPwX0kwARlJnPtlDb+cspFUlZpUIpGLpfEopt4NPac4+HMyNxKSiqyrEsmZNy7XSUgCfPypXAYyjqxiQzFfNGR3aROrdz3EC2sPcSr+NEd3LuDZeg4lkkmDgS69mnM1YjKzf0sm1ZzE4aUTmbc3hCEDfIsnSDERdLhVgBN7YklKTuR6KtTp3ZtaBxYwYclRrpnTuLxnNlM/K8ejI7qUaNATEtk8sDVjjoxl8bqh1LltwmQyYcocQ27G8s3sNfxh208vVTIOrObLXRdJRYuLjx4t4JQ30KUIxo69RvtV42lRznKqqP56IiqS7+PSwM4VL48Caqe4fa+Avr3VvgN9usWzYepbbIlPg5Q4osaHs8NnMEMevbv6MGs2Mzt0DlvOJHPl11lM+6oiwX3aUx7Pe9I932698d8dweubzlj66K1Efl8XzX5zUTFt62Je9E52pMfu42RyMslXS6arhYX1wJegHg259Ml05v+ZTNq1I2x8fSwL90PN7v2ptm8Bk1ed4XpKIgeXjeW1xYnFGhf+ujSDUWM3c+pKEoc/nsJXJ4Lo2N3TUl7nEPp0O8Gm0eFsTulLWCvb9eLg7ghnD/Ob8QaJl4p+gq8kbWCu1IWuD+3ks0kb0XRpTzXq0KWTmV/enE5046509SwyuxLbq5LIl1VHI6fxg2EwTzWylX8wvcNOsPWdhfyWZDl381g0m35JtF5vStcnKhH77gx2Ne1AhwrQonMoZTdOZ/7uJ+n0RI4ZozIpbBz7LB/FXCQ5Porp70Qhg0JoqblLu1jCcau45HaQHEOYGT2F2j/0wd/gRYNhO3EIeAjHcsHM3PwprU+8yKMVdTg3eYldzSJZtzDYMqFkr0OLlvKZzsPp7/n2y+0cs6FjWnuBMlrK5zyHDnNZiwIMnjuPwD8G0cC7Lr2+rMjI0W3RWY1ovnywdHZdjmk7XVkQ69Sy1/ORrBh2mUVdPNE56/FpPoJFe5Msdxo20gLAoQI6qyz9v9jIiHIf062mKz6t3+KXqi1pmmVvtbQdOhqPfQe5OnIAT1plkPbhzHn2KO8F1KPZI/2ZVbETTXDILq81fQDf8ct5reFKevp40fCZX3lo4khqOFmm6DSaYKZumUvA7sE8XFGLg6EuHSfv4FhG/joV//rUZy/H/8xfjqLqPF9azqG8NLo8W/t7UjtwIbFSRJuVQM68dW6HH8+8PY26G7vj27AZrSYcw6dVLZztdEXKba7UhdD26xjurce1kh43Vy/qtBvJ4uMlk8kwch0rXkpnZWgl3Bz96PKxPYN2LGeMnzVAWUj3Bl0BU/LJiwJw1GjQdFhGHIvpr9Hg4vlWPiNkRx26TR5M+S8D8HEfwtJEoMlUlq/oxF/vt6FyeVeqP7UZz/D1rArLfzdpZgfjXDWU0fgzMgYOvumHnUZP9y/S0Jz6iveWXeDE3vG0q6hFW0GHTqej+rDdlshHl/L2KwvZkGy7DKVKhpFNwxtQ2UlPlb5/0CDibZ52I3fbx2zmB/NxIoK0aDQaymkCGX+k8P5a/uIPzAiqhM7Zi6B1/oyLHJnvnVRF9j0rBfXth6hEjy+2Md13PSMbuKD1DmTipV4s+nkSTTItZY5+BeBoD+VyZKDVOlE+x9KWnQTRp8d+3gjwoGrnFaS//A2LBlratyjd09qDvXMOxbPWoSNAgwmsXdUc4+QAvJ116P2CGRV51DKLXERcm7qYhyYvfkBQyis08mzK8E3JJdLVosL6jV3PkqfO82FrT1xqduH98w14uCaUefgdVixqzKlXGuPt0ZSeS+9Qo7Wh6HEBSK/fny7p03i8moGW79yi47IlvO6b2d6udB4QSspvMfB8aMHLax3GMa5dNGP8PQl8PcZme2u1TpTLzLeINsiJHX6E9GnI5RNa2nS2zJrW6dEfz1Px+IZ1ydZlG+OSrixZMpRIZ0ognwZXOg0bRPrRBCqPDrXMxOeRR4MrnRftYpz7UvrV1KJz1tOo1/vsvJhdoU16heF/8jx2oS0tsz/B3Qk5d4SL7UPp65wjwwxH2g6uz85h/hhqD2FjjdlEzrP6E0XoTz36vvUAACAASURBVD7dxva4VRpotm7dKh06dCid1BQPBCGJb7vrmeS7j8MfNC06wn+BY+G0a7if7sfWWozDnTgi+1bnJYdtXFsR/KCl+0dxZFoNuuyZye/f9SzxckxxOHToEPXr178PKf/LORZOizr76Z+6lpF593UqSo3kT4OoNb8rP/05zuaLXAG4tIDOnguosfso85v/ndIp8mJmN2+6deDY0luseuJBS1Mwhw4dUi+K/C+QeYdkiozif+bdt0cOcNTeDffMvXKmJIyXBB+/f/obzf5mbqxl1rLHmfnF/XGOFIp/A8mrv+KAey+eCnjQkij+TSgH6T+CQ89xPOWykoi9D1qSv4muM1j47HHee8QVF28vvOoP4YeHl/PFlDoPWrJ/FhV6suTEQnop7+jvR1fAMr6iVLG1FJ8TIZHVK3/D87kB+Z7MUjwg8ixd/lNRS2wKheKeUEtsCoXiv4ZaYlMoFAqFQqGwgXKQFAqFQqFQKPKgHCSFQqFQKBSKPCgHSaFQKBQKhSIPykFSKBQKhUKhyINykBQKhUKhUCjycF8cpB0DNdR6df/9SLrYCIlEdvEhbFXaA5VDoVCUHDNHWfhQGbp/UXD/TVvSDs8mCymNTxD+rXw3AH8Py+dozOxmsq8Xg7Y8YJkS1zC2pRs6rf6B226F4p9CLgdJJIoRWleeXH5vToUpHdJv3v3b0UpDDg0GevWtz665y/59BlSh+B8gbmYjvHzzf7cuE1OKmdTML84nLCBE05NFN3NcT9dAholb913SUiY9hdvXU0nJfGnhjRvZ5XxAnFn8CstvTOLAjUR+m5j7Zav57PHyzlRrOIdifle6UEprzFEo7gf2uY40zXgmYiEpQQ4FBP+bKCU5HHqE8sjg1Xx9cQjjivG1ZIVC8fdRtds7zKnhT+3izGOnp5KCiVsP2JH4r2K8kIC2QVNqlXOAcnku5rHHaeka7tw0WT76fa/8U8YchcIGuWeQiOPbyeOJOGA53jFQQ7upK5jWoxFeHnq86w9l/qHs8Ol/fMYLwT64aXUY6nRhxNqL+TJIXhiER+Di7Fmcm4vpqQlixgXLYfz6sXSs44mLtxcNA+cQfSePHMfCaacJ4e0zOdL8NAhP6x3Mnbg1vNa5Fl7eeryrBBL6wX5SreHMzi1p2XgLW9f9HZ8xVygURydUxDNkOVetx8aPWlBZM55tmRPKp2bRzjoTlLFrFmPDt1vDmji17AUer+aMroI/HV5dyyl767cIfp9IQ/8J/MhmJhg0eNhlp5dmb2THG51pUNEBN6/2jFyZ3waBZTnOIfR9lvWvh3tZL8JWpSEksXduX1rX8ETv4UXdoMmsO28JLySxK/xJHq7qgEajQaPRUFbTjAl/wIXVY+n7sC96Zx16r2a5bM6OgRrahi/h5Uf0uGlCmXMRSIpmVreGeDtpMTTqz/uxJm4X9MkLUyxfvdiWBlVdcTX4E/T0cg5YJ1funIzgxZbV8K7oRfV6oVm22JYNzUf6EdaMfJwGXg7onPXUaTeShXvTABNr+2gI/CiNcyvbU0ZTj9E/546a0x4nzmmO65DNJJ6dTLNyGjy7RxVbhqJsvZnNjLDWtUajoYzGn+e2W+Je2xJO34d98fLQU71eKG/8oGy64m9g69atkkmGxMgkvaP02mA5jgpD7LQtZGxUokiGUaLCnMSjVaRcERFzRoxM8kYaj98u8SaTXNr3mbw+NyYrnt+L+0RExPhhc6nUeIGcz8zk2mfSg3byVpxIhmyXcVSXQd8miUiqXPl5rxzLyC2HWQ7L7LrIo+/EiYiIWYwS0RppEB4nZtkn02sizcbGyBURuX1yvoQ51ZKhO0zWzFJl+wDE++kYUSgU94eDBw9m/c/48TmpQz9ZkiJiluuyNgQpQ10Zvsdy3fhhc/FsFiHnRSTpk3ZSqcFsOSoicnKmtKG29ImMk2s3DsvGMc3Ezc5BOn5q7ctnZ0pbOsvMq9n5Jn3STnR2rtJqTJScuJooe99uKd4MkRV38suYGbbluO2ScMUoCTdErq3sIlX1/STiuEkk/brEjKop1ayymbc9JzV1ITJ1d5zExX4mfQ3u0v2TRDHLdflp/kz5ek+SiIhc3TRYGtNZZida8okKQ8rQVAZ/EydJCUa5Yk6S7QMQl4AZ8qPRJJd3zZO+PohL2Umyy5zX5qZKzNBy4tV6gRy4KSKp+2RWS600ee2IpS67IXVH75MUEblzYpf8fqFgG5obS7oVHpkkW06bRG6dlo0j6khFzTjZdtsSIuZFB/EeFG2zffOOC6alncXgM0P2ZV0vWobi2PpcEq8KlTq6EbLhloicmSedaCwDN1gq+dqqQVKbfvJ5sk1xFYpS4eDBg1Lk5LbPoDm839kT7Ax07tuRcrsPc0xA89NK1iQ8xejwICo7OODRdChvjWlRQvdMi4PfKf74MYYTaVrcWzWjVh6JNNQltH8DTn2xiWOA5tJqVv8cxFMDfdH8vpQ1J55i5FstcAfKVh/K8yHHif7mcFb6Xl7upJyPy7rDUygU9w9N624E2+9kx/Y0kBiio9rS7Ynr/LzhKEIS0Zt+xad3e6rkiZe4/ksO+Q8jvJ8veue6hMyNYGz1ovelOFWazLy5nanh5kmzIWE04iB/FrDp0FE/gpmzgvByN2BwTmLnl5so/+xkhtR0gDKutBg1DP99m9hwEy7u2cWV1kOY0NwX3yYDGNzuKgfPXEeDK61HvkKfh1wAcA15kmac5Excdj6Vw2bzUW9fXLwMuLGL1csq0HHieNoYHKgY+BIr3+6Ek419VyLbWRZRkQ6vj6CRE6BtykvPBnBxbTTH0OHqBkm/b+d3I9jXCORhbyiODTUTxWcRleg25Q0e93MARz+6zHqDDvI1X/+cX46SU7QMxQtjJSWKSS/EUPOTt3jCERLXfMqeei/x9hOWfRIuvV6gl9d6Nv1YGrIrFAVT9Op/GW32f60j5TKsa8+X47mi8aaqtqCIxcm8BdM2fsXjJ0cT4N2MvlO229xQ7TtwEA2OreHLM5C8+iv2NQ5lkC9w8TznNJt5tbE/frX88atVjyE/GnBxzp6/1jo6k56aWjrr5QqFolA0mmC69krg19X7MP/fD/zSqDdTn3qU5PXRXEjbQfQPj9Ix1DdfvMQLl7hVw49q1mNBh65MMfKrCI6ZB85u6AD7Ajp7GS897prM9BMxnoNTy7pYbYc/fiHvc7qcDqfbYKjfDOf924lKBJK3s+33CjzU1A+AW799xuiezXmoYT3qNx7PhjxbOcvo9egy5UszkoAvvv459tjodNhC85eRBBJYN9w/S6a6M45BJdDgQNCH+5ja+DuebWAgoN9CdiYXz4baXUrASGV8amXLYNZ54e0cj/FyUTVcNMWSoZi2Hkzsn/g0KxpOZ9FAixOaeOYwV85MprW1TqrX6s+SO9Wo+C/4Grzi383dP+avd8dJjJw3FR5MZ28m42aOJ03umMgZxb7eAN7dcJyLu57Bbn5vxtt4LN9crRe9A3cQtWoHq1f+Rt2ne1nuQN2r4Ck9mXf4NHHHLb9TiUZi32uSFTfJZOKOTpdtRBUKxX1ES9CTIfz13SbWfB9DSqeWNOz0BA8diGbThih2V3uSnjXzx3J1q4T2ojFr75KGVDT38cEmDQZcPaD+sO1ZtiPumJGzaZEMcocUR0c83PfxQStPDA9N5viAb1nY2wGRKCa0eYWjwV/wy5+HOXhgDk+SXmA+Zq0ePddITMhxMt32BiSzsx49Nem7NNuenT5tJOGnEdQGcG7Kc4t2cvLkWnqfG8mzE3YDRdtQcXPDlQucPZV9zu6mEePNmvj63GUF5qE4drw4YdIPTOP5BQ146dMhWbOMrp71qNh4BnuOZ9dLwuXDfNSpdGRXKAri7h2kwO6E6Fby4Zs7MCYncSVmPiMnReVbynKp3xj301Es//M23IwlYmg4OzKzvR7Dt9/Eci0dynp446bNwGzjrsAOP0L7Nuf4knHM/7kzTzxlmWqV5t3o6fU1H4b/SoIJyEji3C9r+CXLEJi4HpdIBT8Dtu/ZFApFaaPt2pO2V5fyauQV2gc1waxvT/tm63h3UjSaHiE0tRHHt2MXqh1YxnsxN8CcSMz0Ucw5k2PWRe+GnlMc/DmZGwlJ97xkrsGVoN7BxC+dwZLDloH69qVYNn8XSypwYPUXpLVbyA8nL5J4ch/fTQ3CHdCYkriW5oynnx86IHHNevZQ8FSXhkCeCInnl3nLOW6GOyciGf7GWpubtDUE0zvsBFvfWchvSZZzN49Fs+mXRMzE8dOXm/gzCXDywssVy+x+cWyofTB9usWzYepbbIlPg5Q4osaHs8NnMEMeLXndObg7wtnD/Ga8QeIlU/FkKEYY4QifPDuT2xMX8VoOJ9q3W2/8d0fw+qYzlna/lcjv66LZb7bMBEZPepqXIs+UvCAKRRHkd5AcKqCzKq7WHuxzLFdhr0OL1jIb4xjCzOgp1P6hD/4GLxoM24lDwEPo8sSTtuEsGpdGZKtKeLQaz099X+MpO7Olc5QzcTKiFw08dOjrvsHJvsuZ+4RDPjkADGFDeCwulrPtB/C09ZF9jSaYqVvmErB7MA9X1OJgqEvHyTs4lmG5buYM+45B3UYPlWadKRSKQhDnLnTtGM9fJ4Jp19Zyg9OlZwOunnClfVi2e6S1FyijpTzAI1NZMteDX3tUxcUvhCm3XmZiaJksGyDOobw0ujxb+3tSO3AhsZInfmaa6GzeZNkK6/V8JCuGXWZRF090znp8mo9g0d4kUoCAvi+g+agZrm569Ho9Lj7NeGL6r1zVhfLGvBYcHl2Huk0CeWZbVZo1dsjKM6/N1GCgx8erCbs1gQBPL2r130HtN8ZTwynHLZvV1mlwpfOiXYxzX0q/mlp0znoa9XqfnRc1aNBxc9+7PFXHFa1HIDPtZrAgvGnhNjSnDF9sY7rvekY2cEHrHcjES71Y9PMkmlhHAJ39HcrbFXIbmdMedxjHuHbRjPH3JPD1mGLJUBxbr7m+i237zOx/p671STYd7T64CA0msHZVc4yTA/B21qH3C2ZU5FFS0wGM7F+7lOjfrxcsu0Jxl2i2bt0qHTp0eNBy3B+uR9DTLYL6x39luo1pfYVCce8cOnSI+vXrP2gxSg0hiZ0DvBhVfjs7P7E8APLX3tfp8PCvPBm3ndd9H7SECoXifnPo0KH/9rfY0r5by97GAxmgnCOFQlFMhET27TVRwaC37l00kXwmARMGvN0esHAKheJvw77oIP9OhETWRP5Kw4krLBscFQqFohjYUYcXP57G/03sRPWFaUhZcPUJZsCOj3i6woOWTqFQ/F38Zx0kDQb6fX+Nfg9aEIVC8a/Dse2bfLP7zQcthkKheIDYg2WtTaFQKO4WZUMUCsV/DXvgP7XBUqFQ/L381zZpKxQKxX9+k7ZCoVAoFArF3aAcJIVCoVAoFIo8KAdJoVAoFAqFIg/KQVIoFAqFQqHIg3KQFAqFQqFQKPKgHCSFQnFfufXTa3Ss7oyj1p9Bm/J/wT0XNxfTUxPEjAt/j2yKfx9mdjPZ14tBWyzHOwZqqPXq/ruKey8IR1jWvx5uWh2eT6wt0QeUC5PZzFEWPlSG7l8U0VfycnY+IS4j2HCnZNFKm7Ql7fBsspD4BytGqaAcJIVCUWoIiSwP0hDw7pms4/VT3yU+5AeuJe9jXmuHwhNIFwDs7ljiRj6hodKw7aUvaLoJU3qO44PhBGiCmXK4lPP5fQxNNCHMvd+jxfLOVGs4h2MFXU9YQIimJ4tu3mc5/i5u3CDV6giY0iH9ptgMtnuYA/7DYwuMey9ofpzL9OVePBe9n5glIeg2DsJfM5SV6UXHLUxmAFOKucQyHl04jaNhA3iyLPn1rij9KEVM6RrIMHHrb8hLJIoRWleeXF5CZ7KY/GffpK1QKB4MqRlwO8s6XifxDFQe3AytgwPaIvyjnGgw0OblZSzUPVTqMu54TseQsjGc/qSF5UT13kxf/BB+1Us5ozqDmRZxjbrepZxuHtLSNdy5aSKloADpqaRg4tYDnl34uzFl3CYt3XR/Er90lZvuLXgysDbVNcCjL/D2Ug2tHsCoamY3y74qy+OfW/U5j94VqR//VjTNeCZiISlBJTAsJUDNICkUivuCmR28Uq4e4+Jg2zAtLpqhLM8XKJHocY/RoKIDDlUDGbr0ONfQZF0+uWQAk9bFAZape4fQ91nWvx7uZb0IW5WGkMTeuX1pXcMTvYcXdYMms+58dvIXVo+lW20ndM56fFuOZPHRZNZ10RD8OcR9HoimnMbyc6lH9yGL+DbTsTu/hmk9GuHtpEXr7k9A3znsTLZeOzWLdm4jmLd4mCVfd38eH7+dq7Yq4dI2Phi6mF3WG9z49WPpWMcTF28vGgbOIdqGw1JQmDtxa3itcy28vPV4Vwkk9IP9pAKJc5rjOmQziWcn06ycBs/uUbkT/H0iDf0n8CObmWDQ4GE3nm0CpB9hzcjHaeDlgM5ZT512I1m41/ad+I6BGtqGL+HlR/S4aUKZc7HgOjITx8KWOWcRk9jcyyJX5jJU0ufB+DRZWOCMhpDItvC+tKprQO+sw1A/lDd+SC4gtK34SVntnBAZiKaMnpD52fEzDi3ixZbV0Dnrqd11Dv+XY7rj2pZw+j7si5eHnur1bOdr/KgFun5rMV59i5YOVh2q0pIXB6/hqHViqKD2yo+JU8te4PFqzugq+NPh1bWcsi+bdbU4OmN3cCvRiUE82tZ6IofeFaQfRaWb/GkQlSu9RUzWRJeJzU9paDg8lvQ/PmNM58bU8LC0/aNPL+e4Ob9cZnYwzq0Gz+WYBN4/zpPKg7NPFFTfQhK7pj9GA4MrrgZ/2o7O38eEOL6dPJ6IA5bjHQM1tJu6gmk9GuHloce7/lDm38tL/rdu3SoKhUJxtxw8eDDrv1mMEtEaaTI5znq8T+b4Id0+N9mMe31JkHi49JT39iVJ0rlomdVOJ1qC5S1LdIkKQ/xe3CciIkmftBOdnau0HLddEq4YJeGGyLWVXaSqvp9EHDeJpF+XmFE1pVqzCDkvInJ0mrShiQxcFyepputy4ptweXddkoiIbH8G8X46JluQszOlLZ1ldqJF5uk1kXpD1sjJayJpCdtkVkukUtc1csWa7iPYS52uEXLgpsidg+HShtoycreNAh6dJs3pIfNTRTJku4yjugz6NklEUuXKz3vlWEbu4AWFyZSp2dgYuSIit0/OlzCnWjJ0h6VeTUs7i8FnhuwrqJGs5Zt5NfNEqsQMLScVHpkkW06bRG6dlo0j6khFzTjZdjt/9KgwpAxNZfA3cZKUYJQrGbGF1tHhqdXF09oOZvMmGa5BXBkh62+LmOW6rO2GNHntSEHSiln2ydI3l8mPRpOY5brETqghHh6W8mVIjEzSO0qvDfl1JC952zlDYmRSRaR85X4ye1eiJJ1ZJi96Iy2mxVkCnJknnWgsAzckiojItVWDpDb95PNkG4l/01OqlJ0hu8zW463DpC4j5Fspur1yyXxyprShtvSJjJNrNw7LxjHNxM3OQTp+aiqWzohY2t/LfVK2LDn0LvN6Tv0oVroX50snGsvwPdbjlDXyDDVl1E8i19a/Jx98d0Su3hExXfhMwty08kSkpWxJn7STSg1my9GsfLxk4ObsZHeNdhR9WHTR9R37qgTQQz5OFJH067L/19OSkkdEW7pgp20hY6MSRTKMEhXmJB6tIi39toQcPHhQ1AySQqF4IAhJ7Fi9A6d+k5nQ1AWXqsGM/3omQdi4FbXiqB/BzFlBeLkbMDgnsfPLTZR/djJDajpAGVdajBqG/75NbLgJZ1Z/wR/NRvJ2d1+0Dq7U6P0Gr3Z3KVIuze4vWHaiByPm9qS6Hsp5tWfcGwNx3LiGrdb9JXY8xtPLh9DICezq9+bJOsc4sb+oGQ4tDn6n+OPHGE6kaXFv1Yxa+Syw7TCa35ey5sRTjHyrBe5A2epDeT7kONHf3N2mKTNRfBZRiW5T3uBxPwdw9KPLrDfoIF/z9c+241QOm81HvX1x8TLg/n+fF1pHdbv1wmBtB82eH4hu3pPHK29lw6+AxLBtfUMCQ+sUKJ+Gpgya1p82Bgc0uNIkJIiKl09z7q5Km4cMR9rOXcK4QE9cfPozsJsDRw9a6jFxzafsqfcSbz/hCYBLrxfo5bWeTT+WLIuStFfi+i855D+M8H6+6J3rEjI3grHVM2fyiqMzYDx/lNQqXlTT5L9mm6LTlUq9GBh0gO++smwmN21azg63PvRtBfonJzC6ax3c7KGcd1c61Ddx8ZyxuJlnl72w+nZ2x0ETx2/fHyW1jCuNA/zQFSNNn0FzeL+zJ9gZ6Ny3I+V2H+ZYwdu9CkU5SAqF4oEgXCfhInj45digU1aLtpA4Zbz0uGsy4ydiPAenlnXBr5a/5RfyPqfL6XC6DcYLCdyp6kWVkgoWH89VjT+1nLJPaXxr4Ml1zt+wHqOlfNYqiANaR4rcVGtHC6Zt/IrHT44mwLsZfadsz/ekT4FhLp7nnGYzrza2lrNWPYb8aMDFudgjYu58LiVgpDI+tbL3bph1Xng7x2O8bDtOGb0+e4Aqoo7MTbrRVf89O39I5swP0UjzV3j+sXh+2rgf+Xk925070qNZYRKaOPXVWHoHN6Vuo3rUe24VV9CU2sZfxxyb4XQ6F27ftvxPPHOYK2cm09qqT9Vr9WfJnWpULFtAQgVRgvZKvHCJWzX8qGY9FnToylj+F0dnAEzJN0gvry2WA1HcdDUYCBkYhHnBanZxgx0r11B2aC8CNcDlaOYN60TLpvWo1yiYN/Y5kHIX+9sKre/qrxD5XSf+mtMaL/8uvPLNmeIlWiaHBdE6Ui7j7vdeKQdJoVA8EDTo0VeA61dy3HneMRX7cWkNBlw9oP6w7cQdP235HTNyNi2SQe6gd6tA2fPGkj9urHfHSYycz7G3V86c5BLeVK1Q0sRyY19vAO9uOM7FXc9gN78341fl3/NjM4x7FTylJ/MOn84q66lEI7HvNbkrOcTNDVcucPZU9jm7m0aMN2vi61OMBIqoIzua0iU0najNa9i48xKPdGpKULdO3FkdzZqobWSEhtKhMN9u/1R6DjqA7/s/cuSPwxz+YhAVuctpgBLg6lmPio1nsOd4dj0nXD7MR51KmFAJ2svVrRLai8as/TUaUtHkUIvi6IzW0Rn7W8XvO8VN17XXUFpnfEPkT5tZtaYh3fs3sezveroDC24+xzd7DnP4jxhmP1rwU2TidJO0HB6K5lb2Y35F1XeVLu/w9YHzHHrHg219X2bWtRIUsBRQDpJCoXggaHAluGsDrnwUweqrwM1YIoaGs7OYZkmDK0G9g4lfOoMlhy0G+valWDZ/F0sqULN7f6rtW8DkVWe4npLIwWVjeW1xIgB6JztuHzvMedIw5R1V2oTRs9JyZo+J4uRfcNsYzYwpX8GQfnS7lyeUrsfw7TexXEuHsh7euGkzMOedmSggjDTvRk+vr/kw/FcSTEBGEud+WcMvVgfHwd0Rzh7mN+MNEi/ZeGpL74aeUxz8OZkbCUmk2LenT7d4Nkx9iy3xaZASR9T4cHb4DGbIo8UoS5F1pKV5r76Uj57Bgm0daN/aAdqH0vz0h0xdIzTvZZk+it88nw+2Xsyf/tULJONFw6oVwJzI7pWbSabks2V6JzvSY/dxMjmZZJu76HPj2603/rsjeH3TGYuzcSuR39dFs7/gVV+bFNVeufLs2IVqB5bxXswNMCcSM30Uc85YZ7iKozOAVzUfysQbOVeAD5lPP4qZrjiH0KfbCTaNnMYPhsE81cg685sE+PhTuQxkHFnFhgJ222uoS72Av4hdG0W8OY349WMZtfJ2dtkLqe+MA6v5ctdFUtHi4qNHCzjZzua+oRwkhUJRqujsoVx5y39Bh1QAcznbYQ2jvmFej1+ZWNsVQ7Px7H3qPZ7VZRtrrT3YW5cltPYCZbSUzxHf6/lIVgy7zKIunuic9fg0H8GivUmkAGUefocVixpz6pXGeHs0pefSO9RobQCgyYsf0P7KS9SqUJc+q5PBXocjWPItF8zMzZ/S+sSLPFpRh3OTl9jVLJJ1C4MtSxj2OrRoKZ9jMNKVtfzykTNsORMnI3rRwEOHvu4bnOy7nLlP5Hk8uYAwGk0wU7fMJWD3YB6uqMXBUJeOk3dwLMMar8M4xrWLZoy/J4Gvx+QTQ5xDeWl0ebb296R24EIOiCc9vtjGdN/1jGzggtY7kImXerHo50k0sTEq5GwHi5xF1BGgCQ6j16U4LrYL5jEdiHMwXTue5/LJEEIed0BI4scPRxG+JP9jRtI+nDnPHuW9gHo0e6Q/syp2ogkO2W3vUCGrvvPJloMmL35AUMorNPJsyvBNyfniAmi1TpTL1M8GE1i7qjnGyQF4O+vQ+wUzKvIoqbbebVQW0r1Bl5m1vQ6sbV1Ue+WS+ZGpLJnrwa89quLiF8KUWy8zMbSMRcbi6Azg0Kw5Va8eZl9atiy5dDSvfhQzXQ2udBo2iPSjCVQeHUpTwA4/nnl7GnU3dse3YTNaTTiGT6taONvprGXL7qcaDAyeO4/APwbRwLsuvb6syMjRbdEVp74zjGwa3oDKTnqq9P2DBhFv87SbjXYoTBes9eBoI1px0GzdulU6dOhwl9EVCsX/OocOHaJ+/foPWgzFv42by3nG70Mqff9/vFf6r7r6n0JkO6+UH8ClVXF82eX+vBPof41Dhw6pGSSFQqFQ/P0cnbOAI2OXKueoFNBoAgl9+hq/rNtVon1IisJRDpJCoVAo/nbqTI3h10kFP+qvKAlaWoybjs/na9j6P/a29PuJ+tSIQqFQKBT/dqq/wo6MooMpio+aQVIoFAqFQqHIg3KQFAqFQqFQKPKgHCSFQqFQKBSKPCgHSaFQKBQKhSIPykFSKBQKhUKhyINykBQKhUKhUCjyoBwkhULxn0c4wrL+9fB20lIlYCEFfDqqVNg/zpPKg7ffU+RXAwAAIABJREFUxxweDEIikV18CLPxUdN7wcxuJvt6MWiL5XjHQA21Xt1fZLjS5n6n/1+loPb6L6AcJIVC8Z9Hs/NjZiyvy5RTJk5/15/aOa4JSUQ+rkGjsfx0FfxpHvoWm413l1dKxl+kZn6P8/cxNNGEMDf+7tL6a99nTOzTnOreWnTOevzrtueZaVEcL+HHU0sDDQZ69a3PrrnLuMviZBE3sxFevm9lfwT2xg1SrS84NKVD+s0CvrqaI9x94X6nX1LuUX/+DnK2V752/ZejHCSFQvHf53I8N9zr0rASlKvkmueiCVMqNHntCKmpqVzaM5/gs5PpPWQ5xfgAfOHUGcy0iHF08S551JTvX6BF4Nvs9RnNl9FnSIw7wubFz1Lv6GrW2Pgq/N+BQ49QHtm9mq8v3ls6Vbu9w5z3e1JbjUCFcw/68yD4r7Xrf6QYCoXin0L6H5/xQrAPblodhjpdGLH2IkIi28L70qquAb2zDkP9UN74wfJ1dSGJXdMfo4HBFVeDP21Hb89yTK5tCafvw754eeipXi87Tl6EJPZ8/Awdqzuj01nyfSnyDADGj1qg67cW49W3aFlOR2D4GduCl9Gi/X/2zjsqqmtr4L8LCDMIwiAIgw2wgaIiL/ZYQJ8FTIgtEo0lUZPPEqNR09TElpc8S0xsL3khJiZqqhqNYl4UTBPTFH0PWywQRcAG2GBAmP39MUPvtrTzW4u1uPees/c+++xz755zzszV6XBuHs5jAwNx/DmRM2YqtR0gf/8KRnfyQO9soEX/l/jugqFI5vldvDbubfYUrEqd2ci8gW3wdtKhq+tHx2FL+aqcJonE8o+xb6LN2MzWxQ/RNcALF3cvWnQZwcwP1vBcM0u53SM1esxfw1PtDbhpg1l6Dsg7wsbJfQk0OqB3NuDfczKr9lkMMLOb6W5NeazYCmDxJcGcNWG4j1jNp0/3JbChKwZjMINfO1D4fi+zc1e6tv2CnZvLGn30aXc8w4qSytR/daa+NoNdBZNBJxfTUxvE6quQv2cx0+bH3lQCmn9oNRO6NkLvbCAgZDYb06w+I5N9y4bRraknBg8jASGz2XymfBnJW6bRx98TF28jrbssJeZG+fJbDFjKD9eLrl38ZgGjO1li26VxMBHPx3I2H+Q/o/DTJrO1QE7CfDpqnXnxsNVv1uW7MZ9b/eA2ieVvj7fYWtePvjMq8EWp+Nk9UqPn3A+YN7ANRg8D3q3GseJQBY6qNA72Mtu7PRPfXWZpj6uxTFurO/aKU7xf75QOoPJxVBP/VsXOnTtFoVAobpaEhITC/835cTLLG2k7I1aSTSY5v/8teX5ZnJhlv6x9YZ18nWoSs2RI/NNNxcNjoewXEYl/RjoyUN5IE5G8DDnw/SnJEhFJWi79aCsjt6aJiEj6J6OkBcPlnctlbUj/MFwa1A6TeXFpkm3KkBPrHpQ2dJKZB60FPh4kDWotlD3msnXNkipR3ZCg2YkiIpJ7cps89zdNfB+LkyyRSm0vaG+LSdGSkpkh/3t3jATqEUNkjEX40XnSiYGyItsiZ0EzpOXYjXIiXSQnZZcs7orUG7BRLpY26scnpS0hMu9c5b6PjkRsaSejP06UzJRUuZRvkrhx9lKn/Sz54pRJ5Pop2TbJX9y16bIrVyRfYmU6Rhm5o0jGnicdC+3NfLOnOOIlIfP3yqUbIte+niodCCryo2RL7MOI95i4Mrbkf/2Y+DNc1mSJmCVDNoUhtgTIxJ8t11Nf7ySewVFyxqqnXuASOSoi+RInswyOMmRrUZt8J+wvK1/iZJY7Urv+cFmyJ01M5+NK+C/9w3BpaBguUb+YRPIyJG5KM2lk1VdSTqxMp4mM+ixTRLLl4rf75Fh+WfmZSetkgjfSeZ4lLiRpufS1aSERbxyRdFO2nP9xhUS66aTHsjSRrI3yCA1kvLXbU5cGiiM66fCytW7Cs9KJh2RNlogcnSftsRP/AVFy8KrIjYT50p0WMnlvOR1cLH4KfGOj6yzTotNE8lMlOtJJPO5dXzZ+JLuKOLC01dlnkmz4xSRyLUaealqyrdUde8X7q0y/3iYdxalyHNXEv5WQkJAgKkFSKBS3RPEESXZPEf+CB0FlfDVeAnhUPhMRObFIumtB8ujaI1K8WurSQHFvWfSAy5c4mWWsXfggLcAsqbI+BAl4suihmi+nZGUXJOi5I5YT1UiQwPKn4SrBk7ZLcl41bP/xGQlioKy6UnDR8mAqL0GSuCnSokRZEfMXI8WH4fLBjVI6Ng+SeoyV9dbDjPcGi18DL/Fs6CX1PQfJslOW89GRSKPImEK/5YvlQT1ym6lIVtZ6ibQ+vKuTIBn9LA84i7wjsiQA6bwwrbD8kZl1xbXXeindxWbzdplo5y0jt5nEbN4uk+ghg+7zktYvHBGzZMi6PhQmDDedIBkcZdjHxdr28SCpzyTZJJdlUxjiP/1w0bUTi6RnKX8XyHneFwmaFi2/mEqen2VwlLBi8uMmOIhh6HYREUlcGCiubVeWSLiOzKwrrsFRckEyZVOYJQbNkiHr+xikb2Qvce8cJRdFJPWVVuIdur7wAd6R/vLKlWI+9kf6/iuzTJvLS5B8HyuWnG4eJPVtZ5WJ66rjwNLWoZuLru950rGwrdUde4U2VZQg3SYdJahqHNXEv5WQkJAgaolNoVDcPi4kc1HzpqGu9AUTJ9+fxtDQdgS0aUnLxz7hIhrXAZrMZP3n/bi2tBtGv3BmfpwEQFrSYS4mzaZbcz98m/vRpPkI1txohHut0rJTSf0VPJr4FZ6xwYifEc6nZlTb9KDZiUhOKt/ODyRl1SZiMqth+6WznMeb+s4FZXVI7QreAZ6czCXNj+ZORac0n6Z4ksGZK6XKGupiIIVU614f14fWsT8+noO7ZtD63ElSrhYVtTUY0Be0+3wKqdSncXOHwutmvRFv52RSL1TPD/mOxezDC6MXZGSkF57TOTqTl51NVql6mhbKgCEpfP/pfsw/fMl3bYYy96EOXN4Sw9mc3cR82YE+g32qZ0Rl9umK2kaDBtQhnfOkkXoaTq4Lx9caL75hr3LKXo9Tbsn6NnRm3rb36XviSTp6BzPsxdgSm84di8nX613ItdZPPXucGz6+NChW1ujThFopmZzBhdCInlz5KJYDuV8R82UPBs0ZQPu9MWzJOs/27YdoPTScugW+Qkftwjh2QOdI9TeH2xYbXDpH7PNNZfqiunEgtkXXHW2dCtta/bFXNbddRzXG0S35txgqQVIoFLcPQ12cJJUzplLnD8xl0KiD+Lz6NUf+e5jD747CnaJvKjUIf5mPDp7h0Mse7Br2FIvTwdWzJe5tF/LzL6dItP6lXDjMv/qVVmrEtT6c/zWl8IyZVE4lgZufsWb223vRZc5yZvi9zYKlR6u23cUNF9JJzy4SoeVW8Er1cnwjSSc4jzcN65Qq2+UBejnuYO0K6/4fOx0u7l54Gl3RUcE3vABxc8OVs/xabBO3zdVUUq82w6extYzTVXKKPVG163klZVyk2AM3kVPJ4NnArfBMpsnEDb0eR0qjI+T+MK59vp2N/4kjq19XWve7j78djGH71mj2NrqfQc0qNL3a2JqKfmbAdPYsV/DGDy9cPaDV+NjCWEk8lsqvOesZVbesDLuWD/PK1l84t+cRbFYMZUY1frrAYKhPraTEEslU4unT0NRII8DlgcG0TtvGji2x7GvTm34t+9Gr9S62bd1OzLf9+PtAl1tvfDWpThxURvXH3s1z0zpqMo5uEZUgKRSK20eXBwjTf8jrL+wm9XImF+NWMHlWNJKeymWMtG5YB8xp7P1wB5fRAMg/+Cnv7TlHNjpcGhvQAU6AT8RQ/PZG8fz2JEuScD2NnzbHlPkKsYYX4UM6cSlqNkt+vEy2OZPDa59l+b4wxj7sU+MmaLRj3PQOXH95pWXT7aWzFdrOPX0JcfuYdUuPkoWJ5OhpPPNuBQ/b7pEMqreBJVOjOXENclNjWPji+zB2OBGlJ51qhTFr1QDSFw3i/pkfsOdIGmnnEvnfjn2kVHbbtgvlwYhkts59iS+ScyArkegZ89ndeDRjO4BGAC07XiN+UzTJ5hySt0xjyoclp1iunV/IlGk7OHkxk8NvvMj7x0Po84Cn9aqJjMQ06vh6Fc5aFUc3YBA9Lq3lmfUX6RUShNnQi17Bm3llVgzawDDaVcP/lWKbxZZnHmXVT+fITItl8T82IqPCuJc6hAwNJXntQtYctvg/93w8Oz6PJ7u0jIw4Pvs4nvQ8qOXhjZsuH3M1Zkb8hw6l+cGVPL3mKOnmHC78vIS5b9nTYZJlZshcL5wBf/uKt2ZtQwvvRSP8Ce9n5rsXFhDTdgADPKtUcfuoIg6qorpj71aoSkfyjhW8trOcr0vWZBzdIipBUigUtw/HMBbFvEiLLx/Ez8tI4PivcOj4Nwidy9JHj/LPji0Jbj+Cxe79CMKB2gD5qWyfGEh9JwMNhv2XwKh/MMYNCHyaTZ90InV2R7yd9Rh8Q5my/ijZeWXVek3ezAdP5PHh4Hq4OfoS/oYdo3ZvYKqvtUAtyPMGvVa+2Xo7sK9ddOzyyDP0dd7Auu05SK/5FdteK4zFH8/E6b3ueHu1JDyqAZNm90BvbxVkp0eHjtoC2IeyaMe/6XZ8Ah3c9TgHPcGe4PVsXhVabrLhPeZzDkZPwO/QPxnd3Qdjg5b0nnMA45SZjLD+kJPODuycixql4cXAd3exwGcLkwNd0Hl34dnzQ1j97SyCbCzXRy9bTpf/jiLQO4Ah77kz+cli9gJ5rUYQnjePvo286PrydfqsW8PzPpZrZpLYfwwC2vytXD+KczgD+iRz7XgoPXuADb6EDwrk0nFXekUWpUc6OwFbHYUud6iDvlb5bSqBY3cmLgjkmzF+GJuM4FOfJaxfbvGf8fH1fDD+AqvDPdE7G2jcaRKr92WWWX7C3sSJqCEEeugxBMzhxLANLLvPoYwdADqdE/YFvgmay4YP+nHt1e7Ur+1Kk4d24Dl/C59EWmaGbPAl7MHWXDiuo3t/fwD8B47A82QyPpHhRb+9VTwmrOhrUUIvFZQt4xvr9dKzeVXFQZVtrcHYK25TZf1aEx1CJl+/PoX5a8r5il5V46gm/q0CbefOndK7d++a11QoFArg0KFDtGrV6rc2Q3EbuPzvEJqvGMA3/5te4sc0C8mIYpBbFK1++Z4Ft2G5TKEol6sbeMT3der95wf+WX4ufsc5dOiQmkFSKBQKRfXI+XwT+9qO5GGVHCnuIEeXruTItLW/WXJUwG1esVMoFArFH5UySyTFENLYuP57Wj/7QfmzSwrFbcJ/bhzf/9ZGoBIkhUKhUFhxePQrzj1a/jUNL4b/J53hd9ckheI3Qy2xKRQKhUKhUJRCJUgKhUKhUCgUpVAJkkKhUCgUCkUpVIKkUCgUCoVCUQqVICkUCoVCoVCUQiVICoVCoVAoFKVQCZJCobijmNnLbB8jo774DZSfXkyINpx3yryQ6/awe6RG82cO3BnhxTBzlFV/s+WBit7zVgnXv3mOPk2ccdT5MWp7zesrLNytvq4pt3N8CUdYN6Ilbjo9nvdtKvseu0qozD+3Er81pYQdtzj+VYKkUChuK3vHO+A3Mb7kyStXyL7xG+jOzsaEiesVvNrrVjHlQd5Vqbrg7dCVZa7Sh0Ia6+/TqDc+tvB4y9xXSA77kvTL+1nezaFE+cRFbTD6vMQBMwjxLGymZ9imCmRLNJN0rty/4Q4/5FJWEqYNYvXVCuyows47xd3s68q4k+NL+3oZCzYYeSzmAHFrwtBvG4WfNo4Py3kHW2mq8k914vdmKB2XJey4xfGvfihSoVDcVkz5ueTkmf5yun8PaHjR/al1rNIXvKMhg7QkqD86GJ2DA7qS+RENI15maVM/WtiAYIJcE1kVPcS0YB6JWkVWiEMFBW4TedlkYeJ6BXZUaeefnDsa4+cvcbVuZ+7v0oImGtDh//jHWo17f8+Zwh2MSzWDpFAobgtCJpvDNULfgZT1XdBsDYStuFx4Pf/QaiZ0bYTe2UCLAUv54XpRvX3LhtGtqScGDyMBIbPZfKYCJXlH2Di5L4FGB/TOBvx7TmbVvpxKdQsmEj+ZQp8mzujr+NF3RiyXqIbuk4vp6TaJVa8NpnUdB/we31uuSTmm3Swa3gZvJx3ercax4lCB7DR2zR/GvQFeGJz1eLUazJwvLTaZ2cts7/ZMfHcZozs1xs3VWMInYOLkuv+jbyOLzb2f2cRJu+q9jvzEmoeZtTkRM7uZad+S6Ymwa7wOF20cG0qVzd+zmGnzYznPFzxh04U5p2HbSI1aWhfmHC9ZVkjks9kziDpoOb5xIooJXRvh7W6kScvBhe0uToVlTPG8P6EHgQ1dcfXyI2TMBg7mAD89S2u/p/maHTztpeFhM4NdxSYlzOwo104hk5/feMTSx3o9Xv7hPLE+qVz/CGnEzImgvac9+jp+dB6yih+u10wGx+bTWRte6E/LEpJWuIS0e6RGj/lrmDegDd6uBvw6zWDziQO8P6EHTd1d8fYfwaL/5ljrVhULBXbf3PgCSP9iPsPu8cHoYaBJy6I4LE7qvzqjH76J1Esv0dVBQ7PX0Bp0ZcLojRy19sGNxI081785Rm8D3g26MPi1AxUsw1Uev1XGTvYGhmttmbTP2naJZXodjW6rzhXK3z1So+XU+DJxeVvZuXOnKBQKxc2SkJBQ4jj2EcR7TFzhcb7EySx3pHb94bJkT5pkJq2TCd5I53mJIiKS/mG4NDQMl6hfTCJ5GRI3pZk0Co6SM2U0ZUvcOHup036WfHHKJHL9lGyb5C/u2nTZlVu+bjk6T9prSKNeC2VHYqZcjJ0qHfCXyXulat1H50l77KRezyXyVVqmpJ7LLmNRdCRiSzt5dO0RyUg/LG/dZyce966XiyJilv2y9oV18nWqScySIfFPNxUPj4Wyv5hPnH0myYZfTCLXYuSppkU+kROLpDst5MH1iZJ+5bBsmxosbjYO0uffpir7IzoS8Z2wX8Rqw1JfJOKd8utlvtlT6gUukaNWmxY0QgZ8WL7cfImTWQZHGbJVxCwZsikCCXhyv2SJyI3je+SnsyXLV1zG0o/Gbivl4FURyd4vi7vqJOi5I5aKvy6SHvSXRZcqtqO0nekfhkuD2mEyLy5Nsk0ZcmLdg9KGTjLzYPlt9nAbLssPW2Jo5z/my/qTVcso7ldJeFY685D8u9CmI7LEn8L+iY5E7GxC5cldaSI3DsuS9oheHyADVxyRrPwMiR3jKO6dLXFWZSyUoqbjS5KWSz/aysitaRZffTJKWjBc3rlcjvCPB0mDWgtlj9l6vHO8BDBJPhNLLC1ohgRPi5OLIpJ7YoVEOjWXcbuL2lzon0rit3qxkypR3SiKiR+fkdYgrr2sY8scI9P1RhkfUzIuy9hxdJ50YqCsKDt0qyQhIUHUDJJCobjz5DvSY9kapnfxxKXxCEZGOHA04TBCJl+9t53aj85mbDMHsHWl85Tx+O3fztZSe1DMRPNWVD0iXpxDX18HcPQlfPEcestHfPRtxaptpD+TP55FPx8X3EIe48GAoxw/cLlaum3oxhPrptPD0wWverpy5fuNWcXbo/xxNQQwbuT92O89zDEBjXaMmjeC7l4OaLgSFBaC+4VTnC7mk37LlvJQMweoHcrgcEeOJhwGIG3LexzyG8/84T4YnAMIWxbFtCa/nw3WGjpc3SDzp1h+SgW7pl24x7t6ZURiWRflTu/nJ9HGCdC144lHO3JuUwzHbsIWIY0db27HedxCXujsic7BFd8Rr/BYl+/Z+eHRMmW3f/gVLo/P4YkASwz1fm4OD/lVX0Z1aThuIa/18gS7AAaH+eAQMJ23Jvujt3ElJKIf9nuPFM7MVBYL1aKC8QWQtvHf/NzyCf5xnycALkP+jyHGLWz/umbt0X5ay8bjDzH5pc7UBWo1GcfjYb8Q83FZOyuL3+rFjhfhDwRyxhoTibujyRg8GP+YGHbmgfbzVmKzBzKgW83aUFNUgqRQKO4KjsU2wOj1LuTmWh5Yqafh5LpwfJv7Wf7CXuWUvR6n3JL1bc6nkEp9GjcvkmPWG/F2Tib1QsV6NXToHS3/Czp0esi+UT3dGq641q28XXn6YomTsyP2+SayADBx8v1pDA1tR0CblrR87BMuolF85URsi9riaOtErlVv2tnzXG/qS6OCcujR21Zux91FR8jr+5nb9nMeDfSi4/BVfFVm1ab8Mtq1VFJIYfNEv0K/Byw8BvVu1pZUUn8FjyZ+hWdsMOJnhPOpGeWW9TYab0FGNbEtigudvjZ2xbfI6BwpnW5XFAvVpbzxBZCWdJiLSbPpZvV1k+YjWHOjEe7VW7Et4twZTms7eKZtQb+1ZOzXXrg4l90BXXn8Vid2wCviQQKPbWfLpfPsjUnm3vEzCW+ynW2xORyJ3sbZiHD+XtM21JDf89YrhULxJ0fDC1cPaPVALPELfCotK25uuHKWX08CzSznbK6mknq1GT6N74DuizWXWYIDcxk06iB94r/mk6A6sPdJWna5Vq2qrm710J1L5RLQANDIRrvDE0ia9ZFtU93Nz87teGz1Vzz2UhxL7uvKo08Hc+rNzlWWOfGmAQPNGLb2F6JuYgagrJ1GXOvD+V9TABcAzKRyKgncIkomQoIrhnqQkppaWLamMgCw0yOYuHEVcL47/XOzuHq2xL3tVH6OG0sVuX7l1G2ApwzihcNvE1lF5lBl/FYjdqTJAHo3e4GtW7fT4su+9P2kI80HXOXVHZvo/MOvdJzcCz1gvpU2VYGaQVIoFLcVg5MNefH7OXH5MpcvVV5Ww5WQoaEkr13ImsOWO2ju+Xh2fB5fdvOnXSgPRiSzde5LfJGcA1mJRM+Yz+7Goxnb4Q7rvhkuneUyRlo3rAPmNPZ+uIPLVO/7xj59wml0cB3/jLsC5jTiFkxhaVKxKYir8Xy8ZCP/rV6+VS0EPW514PjP8WReTiOjEieYSeSb97bzv0zAyYjRlRIzJpWV0QhlaORxdr68ih8zrc05FsP279IsBwY3DJwk4dvLXEnJLNMXpe3MzPYifEgnLkXNZsmPl8k2Z3J47bMs3xfG2Id9StS1wZeQga05/+YCVvzvMjnpR9j2/DRWH6i+DAAaBRJgu5tNHyWV3z93kJrEOIBPxFD89kbx/PYkiy+vp/HT5hgO1DCzkE4RDDJ+xOvzvyfFBORncvq7jXx3shydlcRvdWIHLEvUA+6rR/wrC9nTrje960Dn/oOptW0BK/beT7/77ry/VYKkUChuK0ETXiMkayZtPNsxcbt17tyhDvpi0+E6nRP29pb/jY+v54PxF1gd7one2UDjTpNYvS/TukxVhIYXA9/dxQKfLUwOdEHn3YVnzw9h9bezCLKpQLedHh06ahf7JpS+FoW2VKq7nLql0dmBXfElBmsdR0B6zWfpo0f5Z8eWBLcfwWL3fgThQO2CspX4hPZzWbPMg+8HNsTFN4wXrz/Fs4Nti8ofXcs/Zq5iazlLE8VtEvRIHTDbly1nKStgq6M2YIM/EbNHU/u9jjSuO5a1aeVUsNqsoefq/ld4yN8VnUcXFtksZOX8diWKVlRGw5X+q/cwve5ahjfToXc20GbIq3x1zmqz82CeeLI2O0d40qLLKuJL+b88O70mb+aDJ/L4cHA93Bx9CX/DjlG7NzDVt2wTfKdtYc1DZ3i9mycuzcJ59Uwg9zSrWkaJvtYPYsH6CHJeaIOLbxj/vPoIU8PsCvunbFw4keeoL3asp8TjvbJYKEVNxxeBT7Ppk06kzu6It7Meg28oU9YfJbu83zaqBXneoC8w3U4P1jGgaaHM/WIZHfeO5h53HQ5eAfSZvZtj+eW0uZL4rU7sFLZ1SCR+J85gM7grDQBCHyDs9BHO9RrMMOfy/VfCjmqM4crQdu7cKb1797652gqF4i/PoUOHaNWq1W9txl+KI/OaEv7zIn76fNCtLZsoFIpyOXTokNqDpFAoFH8ormxi8bq+LPpeJUcKxZ1EJUgKhULxR6LOINYcH/RbW6FQ/OlRe5AUCoVCoVAoSqESJIVCoVAoFIpSqARJoVAoFAqFohQqQVIoFAqFQqEohUqQFAqFQqFQKEqhEiSFQqFQKBSKUqgESaFQKBQKhaIUVSZIB6Z7Un907N2w5a4jZLI5XKPj4nOQMJ8u2lg2/Al1KhR3CzN7me1jZNQXd0D45w/j5/FSjd8hVSGnFxOiDeed2/Litaoxc5RVf7PlgXd/p281rQE5a3riGbSK5N/akBpwR2NT8aekygQpK/8a2bnWg5+mEqSFsexOjIpiL14SMtnxkIbbg9G356WRFaChg4L3Muk17sarBn8LnQrFXeXKFbKr+0b4mpCXRW5GNlkaiEQzSefK/RtuIdnIzsaEievVe3/sbcGUZS7fN3fy3noHMOVpkG/iOvyxbL9Tsan4U1KzX9L2H828qHQCvG+zFSlLCKsfS8ilaGa6Wd6y3X7y+7wmXdFXXfsW0GFwAIfaruBswJFM6glU84XbfyCdCsWfDC2YR6JWkRXyJ/mIcafurXeDP7LtCkUllJlByt+/gtGdPNA7G2jR/yW+u2Aounh+F6+Ne5s9OdbpSu/2THr7Bfo2tsO7yVLigRuJG3muf3OM3ga8G3Rh8GsHimaBru1l+cgONHXV4eAdzH1zd3Nt3/O0bjSTHezgaS8Nzd7y53HvSOa+f7hQ9cVvFjC6U2PcdHpcGgcT8XwsZ61vEd49UqPn3A+YN7ANRg8D3q3GseJQkdkHptji3nEVx8pxgGfwEDr4OYDBj7YDA2ioFcnsMX8NT7U34KYNZuk54MxG5g1sg7eTDl1dPzoOW8pXl8FMIqu6anR8JQmwzoAN0fB8oGgGLPOdUBoHWWyoSKdC8Wch/9BqJnRthN7ZQEDIbDYWezN8+hfzGXaPD0YPA01aDmbOl+W8kh4gM4bFEa3xdtLh1WYEr8abyLWOFSGRz2a1VdU+AAAgAElEQVTPIOqg5Th5yzT6+Hvi4m2kdZelxNyw3qM8e/DUR8sY3akxRg8DPt1nsPlM+erOfjqNYff4YHDWYzAGM/i1A2RhYsdDGvXGxxaO5YKlmgc/ywFTPO9P6EFgQ1dcvfwIGbOBg4WTWiZOrvs/+jZyRl/Hj97PbOKkXa3ylZdzb534rsVuN1cjLQYs5Yfr1XB83hE2Tu5LoNEBvbMB/56TWbUvp8juKuRWu28qsB2qvh9XV4eQyb5lw+jW1BODh5GAkNlFfZcRx1tjLH7XOxsIKNWvZz+dRkQLJ/TOBny6TuadYvqLx2a1/ar4a7Jz504pwJwfJ7O8kRaToiUlM0P+9+4YCdQjhsgYS4Gj86QTA2VFtki+xMmsukjt+sNl+X8zJTUlQ8yyXxY0Q4KnxclFEck9sUIinZrLuN0mMUuGREci9XoukR8umCQnZZe8OfMtic8XkV8XSQ/6y6JLhaZI7COIxzir3qTl0temhUS8cUTSTdly/scVEummkx7L0kREJDoSsdF1lmnRaSL5qRId6SQe966Xi1ZZZzc8KWMWxBQeV4foSMSWdjL640TJTEmVi/nxsqAZ0nLsRjmRLpKTsksWd0XqDdgoF0Xk8Nwm4hkcJWdExGzeLhM1xJVJsiVXxCwZsikCCXruSA0sUCj+GCQkJBT+ny9xMsvdcl9YsidNTOfjSowTSVou/WgrI7daxm76J6OkBcPlncslZZolQ2IfRlw6LpSvU01yYc9yGdYYcak1S/aYrXoMjjJkq0i+xMp0msiozzJFJFsufrtPjuUX3aOcfSbJhl9MIjcOS1Q/2yJbit3PzJIh36xYJB/9nCkiIpe2j5a29JclaSLZnwwWb+tYFhGRuCkSxEPydnaOxI2zF2O3lXLwqohk75fFXXVF4/zEIulOC3lwfaKkXzks26YGi5uNg/T5t6msE0vfW92L2X0tRp5qinSel1hFT2RL3Dh7qdN+lnxxyiRy/ZRsm+Qv7tp02ZVbDbnV7BsRkcw3e0q9wCVytJTtIlXcj2ugI/3DcGloGC5Rv5hE8jIkbkozaWS9x8qx92XJqhg5flVEsg7Lyh6I95i4Ql92J0hGbk6UbFOGHP94vryyObNMbGYmrZMJ3tXxq+KvSEJCgpRIkOTHZySIgbLqSsEJy4CrMEFyQ3q/nVms/pMSxEOyJquo/u4HEd8J+8Wcu1EeoYGMjynHkioSpMSFgeLadqVlYFg5MrOuuAZHyUWxDEjfx+KKLm4eJPVtLTfSmyU6EmkUGSOFTYmbIi1K+EbE/MVI8WG4fHBDROKfkbYF1398Ulp0HiTD6jeXsd9YEyZay8Sfb94eheL3SpkEyeAowz4ulgR8PEjqM0k+E5HUpYHi3jKqcCznS5zMMtaWIVtLyrSMmToydHMxOev7FY7rkglSnDzviwRNi5ZfihUvKFNCxuYiW0o/2IuTLxvlEZrJ5L0ikmW5d43cZpET/1Q9qTdgo1yTaJmIt4zcUVTP9HYPMbZYKUetba3rZ00iRAo/QFYrQSpl954nHcUwdHvZemVsLrJTRESy1kuk9b5bldzq9o1I1QlSRffjave/ZMimMMR/+uGikycWSc9S9+ACEl/0EY9710uWiCQu9BXX4KgSz4tCXQZHCSsWm3ETHKr0q+KvSUJCgpTcg3TpLOfxpr5zwQkdUtsOrlUw/SSOuHq4FB2fO8NpLZZn2vox33rK5ooXLqM1tIwUUqnPPQ1rPsuVevY4N3x8aVDsnNGnCbVSMjldcMJWV3RR54h9vqn4vu+bwtZgKNoDlZzMJc2P5k5F1zWfpnjyPWeugDkoggGG3nz15WXCjsYgnd7i8Ra9eHzbAUS2EOvchxXBt2iQQvEHIV9XbG9QgwbU4QIX8yAt6TAXk2bTrflLhZdzbjQiotTKk5aTSgo+NPMrJkdf/o5EGzozb9v75D/7JB29Z/H3yUtYOi+Ugi0xYltMhmeRLaW5/uNbPP/K23x3/ApZNiYuoOMhAH0YIx8ezJh1e7ge7sa2T64QsjSc2lfXkUIKuyb64Wu9k2p52RTcqNLOnud6U18aFdiBHr1tVZ4rorjdjrZO5OZWUhiwOW+9xzYvqmfWG/F2TuaXC1XLrW7fVIsK7sfV1SGkkXoaTu4Lx3er9aSWjdk+FKdc4EYiu15+ln9u/YXk3BxyL6ZiamL5rk/q2RRuNDSWeF4Ux7FYbOr1LlX6VfHXpWSC5OKGCxdIz4aCzEDLza++tLoN8JRBvHD4bSJLbf+WvMO4cpZzZ4BmNTPSYKhPrbhEkim895B4+jQ0NdIISKuk7m3DUBcnSeWMiULfSNIJzuNNwzpgQzvCB+fx2o6NdP/1PO1ntiMkqx83psewUdtF/uB19FZ7jRR/EWxNOWD9jqbp7Fmu4ENjW3D1bIl726n8HDeWupXUN+sMGEgnLQVoYz2ZV/EAsmv5MK9sfZgFR1cwqstQZgSmsGFoObYkneAKATQulaiIRPN095mcWPI9323yx57NjNeesV7V0fPhkTj228CuKd5sPDOcZwc4YNYbMNCMYWt/IapbWZuS3OqhO5fKJSz3LY1stDv4DX9xc8OVs/x6ksJ7rM3VVFKvNsOncdX1q9s3t0J1dWh44eoBrR6IJX6BT5nraUsfYvjae3n3h48Ic4ekl1rTwfr1fYNbHWr9kFrieaFQ3AwlN2nf05cQt49Zt/QoWZhIjp7GMzX4zQ7pFMEg40e8Pv97UkxAfianv9vIdycBu1AG9Elmy4KlfJOWw5XE7awYv4RdAhjcMHCSX/6bA9mmMnL9hw6l+cGVPL3mKOnmHC78vIS5b9nTYVJ4tQZyygdTmbgwlkvVbkk5dI9kUL0NLJkazYlrkJsaw8IX34exw4mwA9DRacgwascsZOWu3vTq5gC9BtPp1OvM3Sh0GqKmjxR/EWyz2PLMo6z66RyZabEs/sdGZFQYXTXwiRiK394ont+eZNn0fD2NnzbHlPltI40u3BeWzHfLN/CLGW4cX8/EOZsKN2mXICOOzz6OJz0Panl446bLx1wwI2GbxbZpj/KvuHNcTo5mwcvRhbaU0GfKJD3HGU9fX/RA2sYt/EyxLKrPGMKcPuKfMz4lfehg7teDRihDI4+z8+VV/JhpKXb1WAzbv7N8ZPPpE06jg+v4Z9wVMKcRt2AKS5Pu4Lfu7EJ5MCKZrXNf4ovkHMhKJHrGfHY3Hs3YDlVXr27f3ArV739XQoaGkrx2IWsOW55Buefj2fF5PNlA5rkT3HD2pY07cG0vn8YkUPDkaPbACBrtX8nsT5LIyEojYd00nnv7rnyMVvzJKJkg1Qpj8cczcXqvO95eLQmPasCk2T3Q21uv2+nRoaO2WI8d6lh+z8eKpoUy94tldNw7mnvcdTh4BdBn9m6O5Vs+EYx4dxuT7N8gopkrjbu9xHcNu9JOA3EezBNP1mb7ABcat1tKnIDO1h4nG+tUTdBcNnzQj2uvdqd+bVeaPLQDz/lb+CTSsrynswM752J3PKudjtbDpB/eYuOnR7hYA8eUkWkfyqId/6bb8Ql0cNfjHPQEe4LXs3lVaOEynBYayZDziZzrGcrf9SDOoQzoc4YLJ8II6/sn+TqyQlEVjt2ZuCCQb8b4YWwygk99lrB+uXWcBD7Npk86kTq7I97Oegy+oUxZf5TsUkteGl4MfONTIq8/TUdPI81H7KbFnBk0dSq2zFZw/7E3cSJqCIEeegwBczgxbAPL7rOOt3xHeoxuxVfj/fBqMZZtTYvZUvx+ph/EnOWdOfykPwFBXXhkV0OC2zoUJlqa1oUhI2/wfVwGHYf3Qo/lId5/9R6m113L8GY69M4G2gx5la/OWe8b7eeyZpkH3w9siItvGC9ef4pnB9uWuGcWUsW9Vadzwt6+nHqlffbuLhb4bGFyoAs67y48e34Iq7+dRVDBnb4yudXsGwCdnYCtjtrl2F7p/bgGOoyPr+eD8RdYHe6J3tlA406TWL0vkyzAf9pa/q/ua3TzDya490oy7wlD7wyOgO09L/PB6racnNkWb492DFp7g6bdvG7ar4q/LtrOnTuld+/ev7UdCoXiD8qhQ4do1arVb21GGczs5QW33hxbe51P7rsNAj8ZTP0HjfwrdyX338y+HIVC8Yfh0KFDNfyhSIVCofgLImTyxUebsIuM4e8qOVIo/hKoBEmhUPx5KbWkcrNo2bF8srEZfXbf6V/3VygUvxdUgqRQKP6U2NCZhampt0eYfhBrZNDtkaVQKP4Q2IFlrU2hUChuFnUPUSgUfzbsgN/lBkuFQvHH4Pe6SVuhUChulkOHDpV9Wa1CoVAoFArFXx2VICkUCoVCoVCUQiVICoVCoVAoFKVQCZJCoVAoFApFKVSCpFAoFAqFQlEKlSApFAqFQqFQlEIlSAqF4g+Dmb3M9jEy6gvL8e6RGs2fOVAjGde/eY4+TZxx1PkxanvOHbDy9nAzbStNzpqeeAatIvk22fRHpnTs3Cn+Wj43cfjV+wh0d8CgH8G/0isvfbf64HahEiSFQnHbENLYEKLR8ZUk63E8C5vpGbap4jp7xzvgNzG++kquXCH7huVfUx7kXZUa2bdl7iskh31J+uX9LO/mUH29d5nK2iYSzSSdK/dvqDzBM+VpkG/i+p0wsDr8NJUgLYxlBdlCnglTXrHrCfPpqIXy4uHbr7rcuCoWO3eK39zn5VCdcXhTcm9Es2T6AfzXnCcjZSXD6pQqsKE/jVov5Vjxc3ehD24X6lUjCoXitpKdD7nWp4NgglwTWZXcEE35ueTkme6OcWSQlgT1Rwejc3BA9/vNjypHC+aRqFVkhfzOG+A/mnlR6QR4Ww53P6ZnbK04Tr3Z2XKiyVAWvP03fJvcftV3N65+31RnHN4MWkYKqTSl699cwABupa7n5GncuGoi6/aqvWuoGSSFQnFHMLODJ2y6MOc0bBupUUvrwpzjRdeFTDaHa4S+Aynru6DZGghbcRmA9C/mM+weH4weBpq0HMycLy9XrdAUT9SwVhg9DBj9ujBu3blS9uxmpn1LpifCrvE6XLRxbMCylNVj/hqeam/ATRvM0nPAmY3MG9gGbycdurp+dBy2lK8KTDi5mJ5uk1j+9njubeaCW91ghi4+wJnYBQxr64Ghrh89JkeXWWIxk8iqrsVn1zLZMUTD84Fosq1lMt8JpXHQqsJP3Dmm3SwabrHDu9U4Vhwq8F0in82eQdRBa8Fre1k+sgNNXXU4eAdz39zdXCqQYZfK7jn9CXR3wM3Yi8kflvRLATlrwnAfsZpPn+5LYENXDMZgBr92oNA28o6wcXJfAo0O6J0N+PeczKp9OYVt2bPg7wR6ueLq5UePJ2Mt+s/v4rVxb/Nt3pXCvk58pwuavWb5c2nJA2NX89n1qnWY2cts7/ZMfHcZozs1xs3VSIsBS/mh1FRNZXEFkH9oNRO6NkLvbChRX8hk37JhdGvqicHDSEDIbDafKddVYIrn/Qk9CGxoaW/ImA0crGAy70biRp7r3xyjtwHvBl1K+LQg9uYNaIO3qwG/TjPYfOIA70/oQVN3V7z9R7DovznVltVz7gfMG9gGo4ehMF4qHIdVjJcCLn6zwOJvnR6XxsFEPB/L2Xzg0HN08HqCL/iKOb4a9bptKIw5gLSlnXAdu4O0X2cTbG+J86r6AG5y7N8pdu7cKQqFQnGzJCQkFP5vllSJ6oYEzU4UEZF8iZMFjZABH1ZcP/YRxHtMXNGJpOXSj7YycmuaiIikfzJKWjBc3rlskTfL4ChDtlqKRkcivhP2i4hI6uudpF7blXIsX0QuH5Y98RlldJllvyz1RSLeMRWei45EbGknoz9OlMyUVLmYHy8LmiEtx26UE+kiOSm7ZHFXpN6AjXJRROToPGmPnTQbFCUHr4pkbR4pTe3sxeueWRKdIpJ7crH0o4WM/aZsWw/PbSKewVFyRkTM5u0yUUNcmSRbckXMkiGbIpCg546UsOvRtUckI/2wvHWfnXjcu14uSkk/mCVDoiORej2XyA8XTJKTskvenPmWxOeLZL7ZU/Q2rnLv1Gg5filN9v2jq3gzVj64Uda2zDd7iiNeEjJ/r1y6IXLt66nSgSCZeVBEJFvixtlLnfaz5ItTJpHrp2TbJH9x16bLrlwRiX9GOjJQ3kgTkbwMOfD9Kcmy+qoTA2VFdgV9/esi6UF/WZJWtY58iZNZ7oizzyTZ8ItJ5FqMPNUU6TwvsVpxVVC/dv3hsmRPmmQmrZMJ3kX10z8Ml4aG4RL1i0kkL0PipjSTRta+KonFTmO3lXLwqohk75fFXXWF/Zb5Zk+pF7hEjlrjbUEzJHhanFwUkdwTKyTSqbmM220q7GM7m1B5cleayI3DsqQ9otcHyMAVRyQrP0NixziKe2drvFRDlo2us0yLThPJT5XoSKcS8VJ6HFZnvEjSculr00Ii3jgi6aZsOf/jCol000mPZZaxKedWSD96yoLkcrtATGv7i1fjhbK/mn1Q2di/2yQkJIiaQVIoFL8r0jb+m59bPsE/7vMEwGXI/zHEuIXtX1deT+fshpyJY+eBy1AngC5BrtXWWT9yCf8a6oOL0Yu6P7zDuuMDmbRsEE0MYG/sxfQ5I3HctpGd1v0zNvydse+OpY0TODzwAN3yPLjvnwvpbwRbvwH0DjjG8QNlP/kGRAzBa/92tl4F7ecviek0iL71d7L1e0Di2LWlNV0G+xeW9xuzirdH+eNqCGDcyPux33uYY6W3Jd2I5ZMPGxAxZzod3B2wN/bisUXjCLLe3Z3qzWb5sv40dfMkeGwkbUjgfxXsIHbxm8G/5nTCzQ703R/nwYADfPf5OcxE81ZUPSJenENfXwdw9CV88Rx6y0d89C3gXBcHLZEf/3OUbFtX2nb0RV9t71uoUgdAviP9li3loWYOUDuUweGOHE2owQamfEd6LFvD9C6euDQewcgIB44mHEbI5Kv3tlP70dmMbeYAtq50njIeP2tfFUcklnVR7vR+fhJtnABdO554tCPnNsWU3GsDaD+tZePxh5j8UmfqArWajOPxsF+I+bjI5objFvJaL0+wC2BwmA8OAdN5a7I/ehtXQiL6Yb/3CEelerIaj1rKq/09wcaL/sP6lB8vVqozXpLW/ZsfWj/Bysf9MTjo8Gg/mRfH1ubg+9tKzBbViAr6AG5+7N8pVIKkUCh+V6QlHeZi0my6NffDt7kfTZqPYM2NRrjXqryeyyNvs+nZPD4c0JBGPSfzTkVrHuVgazAUPdCTk7mk+dHcqei65tMUTzI4c8V6jI7ahfbocUSPufDYAZ0etPyy+1/MQREMMPyHr768TNKXMUinmTz+92S+2XYA+XYLsc59GBhcVD5Prys6cHbEPr/sfg7LPpD6eDYsv22aOzgWynBDD9hVsCkk37Hofw0vjF6QkZGOzXmLjsbNi/Y8mfVGvJ2TSb0ANJnJ+s/7cW1pN4x+4cz8OKl8BZVQpQ4rYlt03dHWidzcmulxLLbxTK93ITfXsnk/9TScXBeOrzXufMNe5ZS9HqdS8rVrqaSQwuaJfoVlAxYeg3rlKDt3htPaDp5pW1C2JWO/9sLFWSsqY1vUxzp9beyKbyvTOaK7SVnoyo+XAqozXlLPHueGjy8Nip0z+jShVkompyuQWx3K6wO4+bF/p1CbtBUKxR1Ds97ebWqwOdTVsyXubafyc9xY6pa6Zq5Ulxf3zvyIb6ensXdadwYPWkmXk9NpUVOjDXVxklTOmKAga5KkE5zHm4Z1gAuVVa4cG9oRPjiP13ZspPuv52k/sx0hWf24MT2Gjdou8gevo7dWtZziiJsbrpzl3Bmg2c3bBiAXKfZATeRUMnje71ao49eTRTpsrqaSerUZPo0txw3CX+aj8Bc5+9H/MWDYUyzuvYmZN9GOynTcKTS8cPWAVg/EEr/Ap9KyZmcDBpoxbO0vRHUre73EvGHdBnjKIF44/DaRt/q0vQVZ5Y3D6owXg6E+teISSYbCJCnx9GloaqTRrbSlAiob+78FagZJoVDcMQQ9bnXg+M/xZF5OIyO7bBmDkw158fs5cfkyly+BT8RQ/PZG8fz2JMsG1Otp/LQ5hgOVZUfA8ej1/CcxB2xcMXrcwu21eySD6m1gydRoTlyD3NQYFr74PowdTsQtf6TU0WnIMGrHLGTlrt706uYAvQbT6dTrzN0odBoSXLWI0tiFMqBPMlsWLOWbtByuJG5nxfgl7Kr+rx8Ucu38QqZM28HJi5kcfuNF3j8eQp8HPMEulAcjktk69yW+SM6BrESiZ8xnd+PRjO0A+Qc/5b0958hGh0tjAzrAqRz5Bicbco8d5gw5mErHQhU6akrpuKoMDVdChoaSvHYhaw5bZlJyz8ez4/N4SpupEcrQyOPsfHkVP2Zazl09FsP279LKyJVOEQwyfsTr878nxQTkZ3L6u418d7Lm7bkVWeWNw+qMF/+hQ2l+cCVPrzlKujmHCz8vYe5b9nSYFF6tBMahriP8epgfU6+Qdr7qbxTe7Ni/U6gESaFQ3Fb0dmBf2/K/Df5EzB5N7fc60rjuWNaWfYYQNOE1QrJm0sazHRO3X4bAp9n0SSdSZ3fE21mPwTeUKeuPkl3w+zkOddBbp9x1dmBnXWKofe5LFobUQ+9sJGSzH9PXTy4zeyTokTpgti86V1wGAPahLNrxb7odn0AHdz3OQU+wJ3g9m1eFWiaU7PTo0FFbSsrVF1sG0NcCKb7cUQwtNJIh5xM51zOUv+tBnEMZ0OcMF06EEda3aOmhjF1WvYWrYFY/aHgx4t1tTLJ/g4hmrjTu9hLfNexKOw10dgK2OmoX068rsRxYkrxWIwjPm0ffRl50ffk6fdat4Xkfi46B7+5igc8WJge6oPPuwrPnh7D621mWvU75qWyfGEh9JwMNhv2XwKh/MMatrK+CJrxGr4tP0LxOAA9+ehns9DgC5lrV0FGszYVt0Tlhb0+5lImrKuobH1/PB+MvsDrcE72zgcadJrF6X2bZJU1c6b96D9PrrmV4Mx16ZwNthrzKV+c0a78V+VzTQpn7xTI67h3NPe46HLwC6DN7N8fyK+pjJ/Ici+3estNTEBE1l1UUL+WNw+qMF4LmsuGDflx7tTv1a7vS5KEdeM7fwieRLpbrtXTo0aGv6IND7+lM7xnDVD9PujwfV2UfVDn27zLazp07pXfv3r+NdoVC8Yfn0KFDtGrV6rc2Q3GLXP53CM1XDOCb/93EsqRC8Sfj0KFDagZJoVAoFAqFojQqQVIoFApFuctxCsVfGfUtNoVCoVDg8OhXnHv0t7ZCofj9oGaQFAqFQqFQKEqhEiSFQqFQKBSKUqgESaFQKBQKhaIUKkFSKBQKhUKhKIVKkBQKhUKhUChKoRIkhUKhUCgUilKoBEmhUCgUFZKzpieeQatIBji9mBBtOO+U8069EuUU1efzh/HzeKnG7xvbPVKj+TMH7oxNf0A77gQqQVIoFH9OUlYSpg1i9dW7q3bveAf8JsZXr/BPUwnSwlj2O8oqRKKZpHPl/g2Wl7aa8jTIN3EdIDsbEyaua2XrlSj3O6N0mwBMxd7vZWY30z01+r1x+e4bl5dFbkY2WeX4tDJMeZB39SbeSHwrbOhPo9ZLOfZb23GXUD8UqVAo/pzkZZOFies37q5aU34uOXlVv7kcAP/RzItKJ8D7ztpUI7RgHolaRVaIQ9Vl/yiUalPOe2E0faYXn6dOpx2g0Y5HXn+f5C4uv62dv3Ny8jRuXDWVeYHvnxU1g6RQKG4bZvYy27MHT320jNGdGmP0MODTfQabz1gLZMTx1pgeBDZ0Re9sIKD4tZOL6ek2iVWvDaZ1HQf8Ht8LQPoX8xl2jw9GDwNNWg5mzpeXi3R5t2fiuxZdbq5GWgxYyg/XgZ+epbXf03zNDp720vCwmcGucj7knv10GhEtnNA7G/DpOpl3DlnOX/xmgUWmTo9L42Aino/lrPWt6TlreuIw+FU+ndadQC9X3Iy9mPzhOYRMNodrhL4DKeu7oNkaCFtxufI2n9/Fa+PeZo91YmP3SI2ecz9g3sA2GD0MeLcax4pDRfbeSNzIc/2bY/Q24N2gC4NfO0DBatfukRo95q/hqfYG3LTBLD1XrKHZGxiutWXSPsuhSCzT62h0W1VQyMTukRotp8YjJPLZ7BlEHaxx95Njl8ruOf0JdHdA79mFUSuOFtqHKZ73J1j84OrlR8iYDRzMKUfIycX0bzidt959gj7+nhjq+tFhzAZ+sS5BCZn8/MYj9GnijF6vx8s/nCfWJxVWT94yjT7+nrh4G2ndZSkxNyjRprSlnXAdu4OzaTMIttfQ7DVs7A20HvEEa/dWT8et9BOZMSyOaI23kw6vNiN4Nd5EbgWzR2c/ncawe3wwOOsxGINLyinGrdpb4DN9LQ1N09A0PR0Xnyuho8Bvab/OJthew/OB6MJrOabdLBreBm8nXRnZFY3f0uT99y2m9m9LUw8duuJ9fmw+PbTOPPuDJVjyv59KJ204712i0pi6cSKKCV0b4e1upEnLwSVsqjY7d+4UhUKhuFkSEhIK/8+XOJlVF3H2mSQbfjGJ3DgsUf1spd6AjXJRROTY+7JkVYwcvyoiWYdlZQ/Ee0ycpfLRedIeO6nXc4l8lZYpqeeyRZKWSz/aysitaSIikv7JKGnBcHnnslWXezFd12LkqaZI53mJFnm/LpIe9JdFlyow/Og86U6QjNycKNmmDDn+8Xx5ZXOmSNJy6WvTQiLeOCLppmw5/+MKiXTTSY9lFhsy3+wpjnhJyPy9cumGSMrqUPFmrHxwwyI29pFibapGmzsxUFZkWw6jIxEbXWeZFp0mkp8q0ZFO4nHverkoImbZLwuaIcHT4uSiiOSeWCGRTs1l3G5TYV1b2snojxMlMyVVLt0oMsEsqRLVDQl67ojlxI/PSGsQ115W2eYYma43yvgYq18NjjJkqxS2t17gEjlajr3FyXyzp+htXOXeqdFyPDNTjpJZ4loAACAASURBVH/0oDQjSGYeFBHJlrhx9mLstlIOXhWR7P2yuKuuyJ5S/dIeO/EfECU/ZIhI6qcypqF9of/TPwyXBrXDZF5cmmSbMuTEugelDZ1k5kGRfImV6TSRUZ9liki2XPx2nxzLL9sm09r+4tV4oey3qsyXOFlQD7n/falSx630k1kyJPZhxKXjQvk61SQX9iyXYY0Rl1qzZI+5pBvMkiHfrFgkH/2cKSIil7aPlrb0lyVpRTb4Tth/y/bKlfUSadNcwt+Jl7RTMbK4j6N4j9heIn4KKO23Atm2tJNH1x6RjPTD8tZ9dkWyKxm/pUnf8k957fMjcumGiOnsWxLpppP71ptEJFv2TDFKvcAlsj/3gCzxryU9liRWGlNmyZBNEUjAk/slS0RuHN8jP50tq7MyEhISRCVICoXiliiTIBkcZehmU1GBzYOkPpPks3LqJr7oIx73rpcsEZGj86QjIbIgueh66tJAcW8ZJWeKyzfWliFby9e150lHMQzdbjmoIkFKXOgrrsFFsovOB4pr25Ulzh+ZWVdcg6PkolgSAaOfNWEQEUl/SwbSUZ5PtByWSZCqaHPpBMn3sWJ1Nw+S+rbWh+ePT0oQD8marIKL2bL7waKHZHQk0igyRrKkfFKXBkrdFivlqPw/e3ceF1W5P3D8cwBhBkFnWITBDXBDxfVWKmYCWilo7mmaqand65YamqW2uLS5tLhVN7Qstc2lvILdFK1uYpmKdXHLBXJhUFFAEwZZvr8/hnXYlbRf93m/Xr5ezjnPeZ7veZ7nzPlyzpkZkdOvtZEGgwZJZx63Jnb7pkoHJsqXN24tQfL0XlJ48syTI7LEH+myMFny8qJkIj4ycntRecvq7mLKj6eEY/OkE71l5dWiRXFT7MTQY738LsmyPsR64iuQK6dlRZA1+cuVWJnth7SfHi2/FpuC1UmQ8sRcYRsFfX0z42Tthzolj4/1vYq2rUCubJIxNJPJe6UohgkHayTeDkwsPD7T3g0WrzKOi7L6raDuZsXn+2dFdVd0/FakIKG/55UE64LrUTLRx1469ewoDQOXSFyuVDinjopFdo1BTEFL5NukitsqT3x8vKhnkBRFqXFiX+z5Fa8G1OESKTmAJLDzlWd4beuvnLuRxY0UM5YmkAHoAQ0DBveiTZMTj5CSOJduzV8qXJaV3Yh+tcpuy9nehRs3qhaj+XwS2Q1NNCi1/ATZvn4llpt8m1ArKY0zgD+Q61xspc76wqG8BzOyK97nUux1Jep2zM1/5uPCWc5ou5jVzp/5+avtrnpTd1TR/Rl7o7HsOgHvfg8TGBHFl5eH0CDmHPc+9R6tD/Vj264s2u3dxvl+y7i/VjkbV5HmAUVdY8LUGFJTr6D9biaJJHZO9Mcv/6yj5WRSqvML6kFHXrFYDF6t4LtULpOM+TfwHOBfuM4OE/4muGhOxY4uzNv2EbnPTKWTzxzun7yEpfNCqd4jXuYK2yh0E+OkZZlJwpdm/sWOD315IwbX973H7FdX8/2Jq2TYWbiEjkdqOt6mgTQmkp2xV3ko6DIxO+Jwvuvl8oamTDn6YnW7FtVdleO30KUYls1ezKf7z3AlF9JPO+F+f/465zCmjDDQcvER7l3xKO3tgGvlzykNJ0LeOsiLs6bzeOBi3B98jtfenkRwNR8xUwmSoig1zt6SBVhPApbEk1ylJY3tIfn1Rxi+9l4++PFTwjwg8aU23PNV+fUYvFrh0W4a+2PH4m6zrpqfii7F6FaHWj+aOUfJ87TRWJ9asQklliecOQNNTTS6iXaSl1Vvn8vl3gAvGcjzR1Yz7CbeuaVJH3o2e56tW6No8fWDPPh5J5r3ucbr2zfT5cff6DS5B3purV9zSySJCZw+B14PuZHnasRIM4au/ZXIblWIFQuZGYAOwIL5t3iyG5pwxxtDfbj4WxJgPdvlYeZ0Irj1MwHg0OpRXt36KAuOLeexoCHMCExiw5Dq7IWp0jYqVME45XEaI1dITgLa5i/MKfsBJJFonr5vJieX/MD3mwNwZAvjtVk1H6/oqdsslYOT2+NzQUej7i/xyWtdKt+uCio6fkuEQBpfjO7JCtdN7N4/EB/7ND4ONfJKQYGLkcxbXp9hY1z4ds5i/jVmCeGVzSnXDjyx6hueeCmWJX278vjTHTn9bvX2Sz2krShKzbLPYNv0x3k79gLp56JZ8Eo08lgYXTVIu3CSbFc/2noAv+9lY0w8FX3ey7ffEPz3RjI7KtH6cOr1ZH7aElO174wxumHkFPH/SedqUlqph1ub9R9Bo4MrmPt5IqkZycSvm86zq5MJGDKE5j+v4Ok1x7iSl8Wl/Ut48T1H7pkUXuGbfGGzLnbkxB3kZHo66Zerv8/lkc79GGj6lLfm/0CSBchN48z3m/j+VNW21+hAn771iHt1IXs69KRnHejSexC1ti1g+d6H6NX31j+1lnl6CY/P2s6plDQSIp/noxMhPNDfC41Qhgw7wY5XVrIvzVr22vEYor5PLrOePG07SwYt5avEdFJ+WMy8jzwIfbgHtfEifHBnLkfOZcm+dDLz0jiy9hmWHQhj7KO+kBrLF5/FcSUHann64KbLLXElqoCTuzN2vyVw8ipYLCVHQ8O74jYqUdE4aQTRN+wc3y+zPoCcfWI9E5/bXOZD2poljStZrnj5+aEHkjd9yX7sS5e7xXiJ2cx2pyd4f/9pzOeP8OOGSdxjKLuok7sz/HaEfearJF+sfBZX9fgVUklKAxr7U98eco9+ztbjBeuS2T5hGt8NeoUVkSuZ0GAps2bHYaFHuXMqjwS++zCK/6YBLiZMBgqvoCV9PI3HX9jF5cp7RiVIiqLUsFxnuo9qzTfj/fFuMZZtTZewflkoeiBg+lr+4f4m3QI60rHnCtLuCkPvmn9bxkGPDh21i3/aLPBpNn/eGfPcTvi46jH6hfLk+mNkFnyHjVMd9MVOgDqdC46O1v+L6yCmTK3NjhFetAhaSZzNp9js73qFj1e149TMdvh4dmDg2myadvOG9i+y4eNe/P76fdSvbaDJI9vxmv8lnw+z/nWucxCw11G7WF069IUn4vYT3iQkYyZtvTowMSq9WvuscwAH12Jny/z1zoCmhfLiV2/Qae8o7vLQ4eTdkgfm7uZ4bjnblqH94GH4nzyL3aCu1qtjof0JO3OUCz0GMdS1WMFi/Vpif8sao4I+cNDjOnguf898lQcbedNxQQYPrFvDbF/rrdPeq/YQ4b6W4c106F2NtB38Ot9cKDteOwnh4QGHeK6TJw17f0zOU5+xaqS1/70nb+HjKTl8Mqgebs5+hL/jwGO7NzDND3C0cDJyMIGeeowtn+Pk0A28UZD4FZ8rPSOYHryNv/sYaTU5Fg0d1NHhnL++wjZuYZw0vBnwzkaGXX+aTl4mmo/YTYvnZtDUpYzbbPqBPLesC0emBtCyfRBjdjakYzunwnlWPIZbiZcHRxB2bgbt6hox1DNidPen87DV7C3rVnXPCCKCY5jm70XQ7NjK667s+C0Yb/wY8/I8Wm7rj2+bjtz79HEa39scVzs98t0LPPtFP55fGoa7XXvmrJxKrbcieDOxbrlzSkPPtYOv8kiAAZ1nEIvsFrJifgcAfvvPO0RtjiOljN2zpe3YsUN69uxZhaKKoiilHT58mNatWwPWj94/79aT42uv83nfOxyY8v/T8fl0CTjEiMzNTNZVXly5NWnvhxK4rAdRP8yhnROQHs2kVg9x8sXr/Hv8X+i7sKrp8OHD6gqSoiiKovyvSoz7ljyDd+HD9dkpp7lytQmNm/zvJkcFVIKkKErNsrntpSjVoi//Np5S89rP/IzHXJbRu74Bk8lEg75bqPPqp7wVeqcju/PULTZFUW5J8VtsiqIofwXqFpuiKIqiKEoZVIKkKIqiKIpiQyVIiqIoiqIoNlSCpCiKoiiKYkMlSIqiKIqiKDZUgqQoiqIoimJDJUiKoihVtHukRvNZh265bB7HWPk3e/p/kFWt9vPYy1xfE4/dzI/d/kXY9kF5/az66uZUNjevf/csDzRxxVnnz2NR1Zu/t+zMYkK04bxv+8OKZRCOsm5EK3xcdPjct5LjN9GcSpAURalxl79dzOh2eow9N5T6kdjq2jveCf+JcTe9vRDHwmZ6hm6+xUAASw7kXCv7GwxFopmkM/DQhqxKywJYMvLIzL6JIK5evbnt/kgbetOozdKbOglVRcKitph8Xyr6kdNifVBhP/8Z+ypfqX3KLPnjr+a3e9DAYS4778AXZpY3N4VkvnzxVc6Ffc2V9IMs63abv207MxMLFq5X/JODAGjfvMPCDS154ZSFxI0j8Du3iVefj67WHFUJkqIoNchC3Nz2dJt5nLq+9cjNgoxbrTH3BlmZlf9yeHkEC9ywkPFHnyi1joyJXMmMkP+9n2jIytHIvma55bEuT8N+r7D09YG0+AudsYrvkxDHwgA9fT8tWu/xwGwWbRhEhyokA7dPKsmJUP+ujuicDBjq3Ol4KnDpHNc8O3KPFzjWM+B47N98uCCaY9Wo4i803RRFufN0uA/cwH/2RTKhxfVqbZl9MpIJXRvh42GiSatBLDt2lS3hGqHvQ9L6IDR7I2HL0yE1lvdGdyewoQG9q5GW981gy9n8Sk4tJthtEivfHESbOk7UmvEGU+yCeO4MbBupUUsL4rkT1svvS9uXfwss55f3+EdoY9x0erwDwpm0+ULhuizLbhYNb2u9dN96HMsPW5cLCXwxdwaRP5dVo4VT6/7Bg41c0dfxp+eszZxyKP/3WK58NZ+hd/li8jTSpNUgnvs6veyCljg+mmDtC4O3PyGjN/Bz/l2PrDXBOA16nY3T7yPQ24DBP5w5uxI5sGIo3Xzr4uYVxPC1iTdVl5upB5M/sfZJ8tLOGMZuJ/m3uXR01PDqH42Qxp4F91vb9fan+9RdXLYJ/djTHniFbShcbn67C/W1GUVXTE4tJlgbyKprkLtnMdPnl66jKnIPr2JC10bWuRIyl03J1e/n3SM1er22hcX92tDUw4BPs0HM+bZY2bObmDfAOid07v50GrqUbwpWW+KIHNoak6cRk38Q49ZZ+61gny7yFZPtOhbOUc3R+s+xZU+efHYXZ6rSRv68X7Z6PN2aemF09+fBGUX9JaRx4I2h1nWeJlqGzC06Zqo4N/PYzUzHVkQkwM7xOupq49iQ3zfd56/hqbuNuGmDWHqh6rHe26wubu4dGbL4EGd3LWBoO0+M7v50nxzNuaoMbjlz1vx2F/TDN5N0yTonNUcNLew9jrKS/o4aLp1XVq3+HTt2iKIoys2Kj48vc/nRme7ieu96SalCHXmSKpv7IS2nHpQMEck+sUd+Om9dt2sM4jM6tqjw8Y9kycoYOXFNRDKOyIruxdYfmyd34yD1gpfIN8lpYr6QKbkSKwsaIX0+Kd6eWXbOHiUzNiaXjiU3Vub4IO1m7JJzFotcPPiezH7DWn/0MMSeDvL42qOSeuWIvNfXQTzz9zFXYmWO0VkGb5XCsn4TDlpfnFwk99FCHl6fIFeuHpFt0zqKm52TPPBPS+nOSFwmvWgnI7daY7vy+WPSguHyfrptG5kSO85RTN1WyM/XRCTzoCzuqpP2zx4VEZG0d4PFGW8JfilOUsQicVM8RedikDYjN8mvFpHUNWHix1j5JKPqdYXM3yuXs0WSVoWKD2Pl42xryJa1vcW78UI5WLAPcbOkEwPknWQRyUmVQz+clgyb3cz99gkJYLisycgf/zDEnpYycb91vfmtzuLVMVLO5rdfL3CJHKusn4vXL7EyxwOpXX+4LNmTLJaLsbK4K1KvzybrnKygn21FD0Mc7ELlqS+TRSRTjr7YVuoTIV/eEMmTg7KgGdJq7CY5eUUkK2lniXbMb3WWeu1WyPFcEUk/InviUgv7tPg+2c5Ry9re4uNp7dPK2iiY9wF9IuXnayLZ8fPlPlrI5L3Wuq58Ei4NjcMl8leLSE6qxD7ZTBrl92115maeHJSlfki/94vWFRwToz5LkLQks6TkxlUp1mYDrbFmbBkpTR0cxfuuORKdJHLj1GLpRQsZ+13pcZBj86QzA2R5pkhlc1Y+GygNai2UPXn52+4YLy2ZJF+UUW1Z4uPjRV1BUhTljtPQYXCDtJ928ZMZHJoGcZdPOYWbP0rExFCaugD6loQH+5J9MqHwWSc7ujFlXQTdveriXU9XTnve9HjpAxYP8iq97rtP2JT0CFPnh1DfyQnPDuN4aVqXwvX+o1ey+rEADMaWjBv5EI57j3C8kudEkr/8kMP+45k/3Beja0vC3ohkepOyH3BN3vRP9reawst9rbHVHfwPBpu+JOrbkuVEdrEu0oOesyfR1gXQdWDK4524sDmm8DmLuv4zeGd2e9xxov2g/vj+3pupawbSzAkM/QfQnniOJFS9rref64ybA5iGPUIn4vlveX+Gu7rjpCWw79/HyLQ30K6TH3rbfu7Wj1CHb9i9Kwsklpjo7vTrm8p/th5DSCMm6gcaD+lBg4q7tmK5zvR5Yw0RQV44eXZhxtSB1Nq2i++r0c8FGo5byNKHvAAdAU9O4W528O9fQNv7AetODGDSGwNpYgRHUw8inhuJ87ZN7MgBnasbcjaWHYfSoU5Lgtobqr0blbUBYMf9jN4wlrYuYNd6CA8FHOfEoXSENL75MIraj89lbDMnsDfQ5cnx+B+MYuu16s3N8tQftoS3h/hS1+SN+4/vVynWsR9YY3Xq359uOZ70fW0hvU1g79+Hni2tsVekKnP2VjnUUD2Koii3QEfIWwd5cdZ0Hg9cjPuDz/Ha25MIrltG0ewEdr7yDK9t/ZVzN7K4kWLG0sT6rJMe0DBgcL+FUC6dI0Xzo2HZuRU5+mIrXJ1xzK382Zvk8xe53tSPRvmvBT16+3LKJh4hJXEu3Zq/VLgsK7sR/Wzuemi/m0kiiZ0T/fHLfyfXcjIpnlHkOhfbwNkZPbnoC971dc4IFjJzbqIunfWFQ3k73mQm6/91hYjZ3TC9eA/jX13J4od9S8avhdJncBJTNx4kz/1rvm87hI8e+Zo+r8VwfrYPMV/fwwMrfMusvjpydcWeCWvQgDpcIiWn6v1cyL5o3HON7hi5zLVLwLVzXNb8ae5SbN98m+LFD5y9CnXHrGZzylSe7dOQ15o/xry3ljKmXTWfUztXcRtg/SOjdmHsTuicITPb+mC1+QycOhCO39aCjTPJcwzF5Ub15mZ57I3GogS42rHqcUaPpXjsetByLUBZbwD5dVRhzt4qlSApivLn4NqBJ1Z9wxMvxbKkb1cef7ojp9/tUqpY8rJHGL72Xj748VPCPCDxpTbcU8FHuTWsJza7qj6kbXTHRcyctUCpyx43yeBWD90FM5exvn9rZKKV80e6wasVHu2msT92LLZ5Xl7x/7saMdKMoWt/JbJb6Xoq/vvbpt4arKtAg/BX+DT8Bc5/+g/6DH2KxT03M9OteAkdIQ+F8fuUKDb5xpLRazRtejnxt+HRRG11Z2+jh9jQ7CYatmFvyQKsCYnl/Hmu4ktj+4r7uUy5RR8UsE86jxkP2vgAF0vPF0k8yUV8aFjHerXy3pmf8p+IZPZOv49BA1cQdCoC72JVVzpHy5iTxdvgUvlha3hj8ITW/XcRt8C31PrEaszNKrmFWKujsjlbE9QtNkVRbpuc/y5n2qMriLE5EeSRwHcfRvHfNMDFhMlA4V/sRhc7cuIOcjI9nfTLkHbhJNmufrT1AH7fy8aYeCr6jJugx60OnNgfR1p6MqmZ1r+qd84bw8xNF0pvENSfMP0nvPX8bszpaaTELmfynOhb+roC3wfCafTzOl6LvQp5ycQueJKliWVfRfDtNwT/vZHMjkq0tnk9mZ+2xBR9HDyfRihDhp1gxysr2ZdmXXbteAxR3yfbVlmpW63Lyd0ZfjvCPvNVki9ayP15Ix/uuUAmOuo2NqIDXMrYTtdnIN0vr2XW+hR6hLQnz9iDHh238OqcGLQBYXSo9p7YsM/gy1mPs/KnC6Ql72Lxy5uQx8LoqlW9nwuc+eckxn54jLTUo2x6fgkHPIfQvw1w3zAG1tvAkmnRnPwdbphjWPjCRzB2OP0c4ET0ev6dkAV2BkyeZadiBXM04cQxyLFgybEpUEkbFdEwEDIklHNrF7LmiDXzuXExju3/iiOT6s3NKrmFWKuj2nPWww1HTvPf8xR+pUJ570cFVIKkKEoNsrB9sIamabRcfJlr34/AQ9OoP2oXADnHv2XL+t38eq3kVhp6rh18lUcCDOg8g1hkt5AV862nx/YT3iQkYyZtvTowMSqdgOlr+Yf7m3QL6EjHnitIuysMvSs4Azjo0aGjdrFnguwIoN/cUdT+sBON3ceyNhkglZ8/+YAv95lL74JzGItiXqDF1w/j720icPw3OHX6G3pA5wAOrsU+d53fXuHdJ6c66PNvFZQoe/eLrHnDkx8GNKSuXxgvXH+KZwbZF5YtIfBpNn/eGfPcTvi46jH6hfLk+mNk5pRsQ8NA71V7iHBfy/BmOvSuRtoOfp1vLmj57QvY66hdUG8tHQJFrwE9Tjjpb6IuQIeevIL4e0YQERzDNH8vgmbHQq6ZqImB1Hcx0mDoLwRGvszoElePrMQ1nD4PnOP3E6EEdwc7/AgfGMjlEwZ6DCtKj0q1X14/23K+j4kLAvlutD+mJiPY6LuE9ctCrRc2KutnGw0eGUy9j+/H3zuIGb/05PmdMwjSAMdQFm3/J91OTOAeDz2u7aewp+N6tqy0tlP7wtcsDKmH3tVEyBZ/ItZPpoXNPhXMUaflbfE0DuL1c+DkIIhr/m29Stooa97ra1HYR6a/r+fj8ZdYFe6F3tVI486TWHUgzXpruBpzU9AjdSDPsdg8sO3/m4hV0JdoT18LxL6Me9zFtq1szlILcnxAn/9S2o9i5pAjvN7CSNM+mzlH+e9HBbQdO3ZIz549y16rKIpSicOHD9O6des7HYai/GG2P6IxyXiQ06tu+ZqW8v/E4cOH1RUkRVEURVEUWypBUhRFUZQKVHgbT/nLUp9iUxRFUZQKhHwk/Hqng1BuO3UFSVEURVEUxYZKkBRFURRFUWyoBElRFEVRFMWGSpAURVEURVFsqARJURRFURTFhkqQFEVRFEVRbKgESVGUv55rqxmohbDw/M1XkbUmGK/2KzlXlcJnFhOiDef9cn6w7VCEV+HPrVTH7pEazWcdqvZ2fyUl+qCCflZ9dXMqnJvJm5je1Q29zvg/2bcqQVIUpcYIaRx4ewIPdfDCTafHOyCcGVsSb38gOdYfeir319GrwJKjQa6F62WsE5JZ31ej3vj8E0tmJhYsXC/nuwQzcn8n88bNxAA516TygrdT0grCtIGsKuf3q26VSDSTdAYe2mD9YdUSfVBBP/8p+6rAT9Nor4XxRrFsu/gP0uaxmwgvjV7vpN/20Cqam4mrZ7Lh6hx+vprMvmcCbm9gfwLqiyIVRakxQhxRXzvTa/m3/LNxKjuffYgnBkbQ5PImJpTxY6X/X2l4c99T61ip/9udDuX2y8kkAwvXbyH5rJDWkTGRK8kIuYVflP+zCRjFvMgrtPSxvsz6MIyms3rwL3MEHQCNDox56yPOBdW9o2HaMp9PQhfYgeaOTuBYefm/GnUFSVGUGmNHCM9vWcrEewPwbtiFR6eOoBmnSajCfSohjQNvDKVbUy+MniZahsxly9n8lacWE+w2iWWrx1vXu/vz4IxdXC7YOC+ZmIj7CfRwwqlhEOPW/soVil1m+GIQvtoIPrhaRsO/72XZyHtoatDh5NORvi/uLqw3y8HM7ud6E+jhhJupB5M/uVC42ck1jzJnS0KZ+5J7cDmjOnuidzXSovdLfH/JWO5+Zyds4tnezTH5GPFpEMSgNw9Rzp06rnw1n6F3+WLyNNKk1SCe+9p6xSGPvcz1uZuJa19hVMfGuBlMdB6+gcOnt/Bs7+b4GIy07PES36RXo64P3mBUZ2tdLfos5cfrwE/P0Mb/ab5lO097a3jazWCnQPbJSCZ0bYSPh4kmrQax/LBN4JkbGK61Y9IB60uRXUTU0ei2sqA/LeweqdFqWhxCAl/MnUHkz+V2WbmyLLtZNLwtPi46vFsPYsGeoh2ucj+fWkzvhhG898EUHgiwzrV7Rm/g17z89TlH2TT5QQJNTuhdjQQET2blAevVLiGNPQvuJ9DbgMHbn+5T8+foxZ28OW41e7IgeWlnDGO3cz55Bh0dNTRHDTtHI21GTGHt3srbqHB8KhlbqOrctLD5YY2gt7M480kP7LVWTP2P9baz06DXWTeiFe61TAz7PAshjf3vjOGBJq7o9darxlPWJxbWtHukRvf5a5jXpy0+BiP+nWew5eQhPprQnaYeBnwCRrDol6xqjvRtsmPHDlEURblZ8fHx5a6zrO0t3gyXNRmV13Plk3BpaBwukb9aRHJSJfbJZtKoY6ScFRE5Nk/uxkEC+kTKz9dEsuPny320kMl7rdumrgkRz7oD5bWDaZJ2JkYWB+tFR6i8lJBf+c/vypOjV0hsVsk28yRVooch9YKXyI+XLJKVtFPenfmexOWKpL0bLHo7g9w7LVpOXE6WAy93FR/GysfZ1m2jhyF+Ew5aXxybJ50ZIMszRfJyY2WOD9JiUrQkpaXKfz8YLYF6xDgsptQ+58lBWdAM6Tg9VlJE5MbJ5TLMpbmM220p3UbiMulFOxm5NdnaX58/Ji0YLu+ni+RKrMzxQPQtJsm6BIvIufeknxNS2zNM5n+fJmKJlfmBSJvnj1a5LlffSbLhV4vI7zHyVFOky7z8zvxtkXSntyy6XNSHm/shLacelAwRyT6xR346b7ufZonshrR/Nr/9fbOkDYihx3pJEZG8vBiJ0JtkfEx++0ZnGby14n62FT0M0Rw7yONrj0pqmllipraQekTIzhuV93MJxebaj6kiYt4ooxs6Svc3kkUkU2LHOUqdu+fIV6ctItdPy7ZJAeKhWduRuFnSiQHyTrKIqeYpXwAAIABJREFU5KTKoR9OS0YZcVvW9hbvxgslf68kV2JlQT3koY+k0jYqHZ8KxrY6c1NEJHaCk/g8VrSu4JjoGrFLklLMknTVetw2qB0m82KTJdOSKifXPSxt6Swzfy4aFwe7UJm6M1kk+4gsuRvR61vKgOVHJSM3VXaNdhaPLvnH+Z9IfHy8qARJUZRbUm6CZImV2S2QNnPiKq0jT1JlcxgSEHGkaOHJRRLMAFl5VUSOzZNO9JZXr1pX5cpRWRKAPPh2WuG2hSdREZELy6U3wUUJUnnt3tgkY2gg48s4P6S9Gyye3ksKT2JyYbn0opPMzq+z3BP3vlnSviBuESk44ZV5Eto3VdrzSLEEMlN2P1xUb/E2zEsDxaNV0YkkV2Jljqm2DN5alFQM2WLJ70+bhERE9kx1ltr9oqpdV8G2xiHWbW0TJJFM2TUGMQUtkW+Tyutpa5vuLVbIMRE5/VobaTBokHTmcWvCuW+qdGCifHnj1hIkvydiixZcWC69aCcT91fezyXkz7Wi8ROJm2Inhh7r5XfZLGNoICO3FUusMtbLsII5dHKR3Ke1l8fXHpUMmzqrmiDlyqYK26hsfCoa22rNTSk7QXJ3nyN78qyv88Qs60OsyXGBXDktK4KK5p7tuCS84CuGjpGSUrBgy0DxIUJ25JUZwh0THx8v6haboig1Tkhg86O9+bhxJBvnt69C+WTMZ+DUunD8mvtb/4W9zmlHPS75D5Bq6Khdq2ALJ3TOkJkNQipJF8DTz6eowlo6dFWIU0tNwkx9vBqWs94DnAteuLqhBxwyKqn08nku4kN914IFOqR2OY97XjjLGW07s9rl73PzVoz91pu6ZfxyfHLiEVIS59Itv3+aNB/BmuxGeNQqKiP2Bc/t6NDpAfuiXnC2d4Fcy03UZd32RrkPmesIeesgL7b7F48HetNp+MoSt/IKePd7mMDjUXx5+SJ7Y85x7/iZhDeJYtuuLI5Gb+N8v3Dur1V6u2optr+59epjIoVrl6hWP4N1ruUVi8Xg1QpSUkm/bMZMfRo3L+qbPL0JH9dzmC8BTWay/l+9+H1pN0z+4cz8LLHau2B3ManiNvKVNz4Vjm115mY57E1G3Au7zYz5N/Bs4l8UPyb8TXDRnFpso6Jx0elr41D88TKdc5WO1TtBPaStKEqNEhLYPrIbT194iS07xtK8Cn+GaXhj8ITW/XcRt8C3dIGUirY1YqwDqSlmwMu6MNtS7nM8JWJ1c8PAeS6cBZpVYYOqqOtGXS5xJRPQ58d4I7fssu4N8JKBPH9kNcMqeTc2eLXCo9009seOxd1mXV6ZW9yeugBw7cATq77hiZdiWdK3K48/3ZHT73YpUUSa9KFns+fZujWKFl8/yIOfd6J5n2u8vn0zXX78jU6Te6C/2fYL5CeAAPYXz2PGgzY+wPWq9zOAYCEzA6xnbgvm3+LJbmjCYMjCwHl+O0XhfLG7ZsZ8rRm+ja2vG4S/wqfhL3D+03/QZ+hTLO65mZnV2IWCOVlRGxWpaGzZW425WSUmDPXh4m9JgPUB8zzMnE4Et36mW6j3z0FdQVIUpcYIyWwf2Y1pR6ezess4Am5YsFgshR9pzvnvcqY9uoIYm09AaRgIGRLKubULWXPE+sDmjYtxbP9XXKWJjoaB0D6BpLwdycbLwLU4IsfN55vib2+//JNpo1az1/YqiEMofR44x5cLlvJdchZXE6JYPn4JO2/l0+J3PUiI22esW3qMDCyci57OrA/KfghVOvdjoOlT3pr/A0kWIDeNM99v4vtTpcv69huC/95IZkclWvvkejI/bYnh0E1kFLdUl9ENI6eI/086V5PSuE4i330YxX/TABcTJgMlrhgU0OhAn771iHt1IXs69KRnHejSexC1ti1g+d6H6NX31j+1dua9CMZ+eIy0KwlEP/saBzyH0L9N9foZIE/bzpJBS/kqMZ2UHxYz7yMPQh/ugd4+hIf7nWPriy/x1bksyEggesZ8djcexdh7IPfnjXy45wKZ6Kjb2IgOcCmjfid3Z+x+S+DkVbBYLCVXOoRW2EZlKhzbaszNqtDwJnxwZy5HzmXJvnQy89I4svYZlh0IY+yjvjdd75+FSpAURakx2qmPeG3deU4cmEGwhw5dHT16vZ4m460fz8k5/i1b1u/m1zK+Q8f09/V8PP4Sq8K90Lsaadx5EqsOpJEB4KBHh47axRIXfS3rPwDvJz9j2YAfeKaFAe+OMzjwyGs8rs8tuk1y+t988eEujtucizS8GfHBNiY5vkO/ZgYad3uJ7xt2pYMGOgcBex21i5XXoS+sU+cADgW3aIrHVyuMxZ/NxOXD+/DxbkV4ZAMmze2OvoyPSWtaKC9+9Qad9o7iLg8dTt4teWDubo7nltFG4NNs/rwz5rmd8HHVY/QL5cn1x8gs+D4dpzqF/QHg7ACOxYLX6VyoXZC4VLMunc4Fx/z4xXUQU6bWZscIL1oErSQOZ64dfJVHAgzoPINYZLeQFfM7lN5ZoP3gYfifPIvdoK40AAjtT9iZo1zoMYihrsUKFmu/3H62obPXcf+CKTTe0AN/n1ZMPvAgz++cQZBWeT/bspMQHh5wiOc6edKw98fkPPUZq0bWRcObAR/sZIHvl0wOrIvOJ4hnLg5m1X/m0N4OyDUTNTGQ+i5GGgz9hcDIlxntVkbcPSOYHryNv/sYaTU5Fg0d1NHhXIvK26hkfCoc22rMTQC9Qza17fRF7ZRxTHhP3sLHU3L4ZFA93Jz9CH/Hgcd2b2CaXxnjB+DgQo6zvthrPX/WL3TQduzYIT179rzTcSiK8v/U4cOHad269Z0OQ1FqxvH5dAk4xIjMzUz+sz4co/zhDh8+rK4gKYqiKIqi2FIJkqIoiqIU0Jd/G0/536I+xaYoiqIoBRrNZLdKjhTUFSRFURRFUZRSVIKkKIqiKIpiQyVIiqIoiqIoNlSCpCiKoiiKYkMlSIqiKIqiKDZUgqQoiqIoimJDJUiKovxp7B6p0XzWoTsdhqIoikqQFEX5Y4lEM0ln4KENlf8opiUHcq6V/yU0e8c74T8xribDUxRFKZP6okhFUf5YWkfGRK4kI+TWf5LSknuDrBxL5QUVRVFukbqCpChKjcljL3N97mbS6ud5sLEDPk2WcpAzfDF3BpE/5xf6fS/Lh7WhqUGHpmlomkZdbTJf5q/Osuxm0fC2+Ljo8Gk9juWHQUhjS7hG6PuQtD4Izd5I2PL0O7WbiqL8D1AJkqIoNevGfta+cIo+2y5z8PuxdCAXrl4lM9u6+tgrjzL3dD9WHviNE5+Opi0hPHn0dfrlb37h/XUc7/UZR87GMb/JWhb8YwNXMDAgStg1BnxGxCK5qURPqXvHdlFRlL8+lSApilKzBLrMX8WUNnXxNhlsVqVxYP9pAoZM4cEmXvg//AR96xwlJdGxsIz/6JWsfiwAg7El40Y+hOPeIxxXv42lKMptphIkRVFqljhj8Cz76o6GgdYtPLm0O4YTWSD7t/L91Q407VBUJkevK3rh6oxjroWMPzhkRVEUWypBUhTlNrKgc/XG8dIK+geYaDrmF1puWUWE152OS1EUpST1KTZFUW4b4ShRm5Jp++pZPutf/U+1GV3syPnuICfTW+GZU5e6ul0sn7wRu6mrmNT+DwhYUZT/WeoKkqIoNcupDvpaZS/T6EDYYya2DTZgqGfEaDTiHRBOxNYLAOgcwMFVK9rOQY8OHc75L9tPeJOQjJm09erAxKh0SD/CrrVR7E+s/DuWFEVRqkPbsWOH9OzZ807HoSjK/1OHDx+mdevWVSoreXt5zu9RTiyK5dOhXoCFhNdD6fpyKBsvLSRIq7QKRVGUP9zhw4fVFSRFUW4fLf0wh8+44GLKfxA7L43k31LIa+xHI5UcKYryJ6KeQVIU5bYR42Beeut7pj3RHONlO/R2ehp3GsvbX4ylwZ0OTlEUpRiVICmKcttoGGj15Ad8/eSdjkRRFKVi6haboiiKoiiKDZUgKYqiKIqi2FAJkqIoiqIoig2VICmKoiiKothQCZKiKIqiKIoNlSApiqIoiqLYUAmSoihKDctjL3N9TTz2VdXK7x6p0XzWobJXXlvNQC2EheerGcSZxYRow3k/s5rb/ZXY9EGF/XzHWDjyel8CPZww6kfw9pU7HQ9krQnGq/1Kzt3pQO4wlSApilJjhDQOLB/NA2280Ov11GnWg0mfJd65gJJWEKYNZNW1O9D21atkZpez7qdptNfCeCP/DGTJgZxrUnbZHOtyu/LqKk9mJhYsXP+TfUP53vFO+E+M+8PqT1jUFpPvSxzKo1QfVNjPZamJ+bOhN43aLOV4OaslO5olEYcIWHOR1KQVDK1zC23djDL20ZKjQa6F67c5lKr6o+dQAZUgKYpSY4Q4Yg82YeyHv5B04QhfPHCOT4fOuXNXMXIyycDC9eomF3+0gFHMi4wg3OdOB3L7WXJvkJVp+cPqb9jvFZa+PpAWNXF2q4H5k5WjkX3NQkY567XUJMw0pf3f6oLRiNvt/vrmP+sxUoE/eg4VUAmSoig1xo4Qprz/HEM7eGGs40foo73wIJUrVyvfVkgm5rl+3O3liL6OP10Gr+TH/D9hr3w1n6F3+WLyNNKk1SCe+zodyL+V5XM3Ez94g1GdG+NmMNGiz1Lrdj89Qxv/p/mW7TztreFpN4OdAlji+GhCdwIbGjB4+xMyegM/Z1nbyVoTjNOg11k3ohXutUwM+zwL4ShL25d/aybnl/f4R2hj3HR6vAPCmbT5QuG63MOrmNC1EXpXY1FcABd38ua41ezJKqPCvGRiIu4n0MMJp4ZBjFv7K1co+zKQkMaBN4bSrakXRk8TLUPmsuVsOR1chf3eOP0+Ar0NGPzDmbMrkQMrhtLNty5uXkEMX5t4U3W5mXow+ZMLCGlsCdcIfR+S1geh2RsJW56OkMaeBfdb2/X2p/vUXVy2Cf3Y0x54hW0oXG5+uwv1tfzxBDi1mOD8qyC5exYzfX7pOipkiSNyaGtMnkZM/kGMW3eh3PlzfuN0ht7li9FVj9HUkUFvHqIg/989UqP7/DU8dbcRN20Qr77aA8PY7ST/NpeOjhpe/aNLtnv4We7xnsJXfMNzfhr1um3gEj8w1+duJq1+ngcbO+DTZClxQMp3C6xzXKenbuOO9Ju9i/O5Nzl+Bco7RoAsBzO7n+tNoIdT4RhWZfxtnd84nX4tXNC7GvHtOpn3D1uXZyds4tnezTH5GPFpEFSqH4Nf/Jh5A9pi8jTi03ocyw9T7hyCyt8jbPuzSnbs2CGKoig3Kz4+vuwVlw/IewM9xSd0vZytQj1p7waLp9twWXbEInL9tOx4eb6sPyUiicukF+1k5NZkERG58vlj0oLh8n66SK7EyhwPxNV3kmz41SLye4w81RTpMi/BWulvi6Q7vWXR5YJWMiV2nKOYuq2Qn6+JSOZBWdxVJ+2fPVoYg97OIF0jdklSilmSrorkiVl2zh4lMzYml4o5LzdW5vgg7WbsknMWi1w8+J7MfiO2MK7a9YfLkj3Jkpa4Tib4FIvr2DzpzABZnml9GT0M8ZtwUEREUteEiGfdgfLawTRJOxMji4P1oiNUXkoo3WdXPgmXhsbhEvmrRSQnVWKfbCaNOkZa+7tEG5XvtzPeEvxSnKSIReKmeIrOxSBtRm6SXy0iqWvCxI+x8klG1esKmb9XLmeLJK0KFR/GysfZ1ph3jUF8RscW7UTcLOnEAHknWURyUuXQD6clw2Y/c799QgIYLmsyRPIkVTaHIfa0lIn7revNb3UWr/z9Tns3WOoFLpFjlfRzcea3Oku9divkeK6IpB+RPXGpZc6fPEmV75Yvkk/3p4mIyOWoUdKO3rIkuah+ezrIqM8SJC3JLJezRSxre4t344VSutV8F5ZLL4Jlwbn8fZVYmeNunTvLfkkTc1KqSOIyedCuhfR756hcsWTKxX3LZZibTrq/kXwT42ej1DFSdBzcOy1aTlxOlgMvdy02hhWPfwnH5sl9tJeRWxIk05IqJz6bL69uSZM8OSgLmiEdp8dKiojcOLlchrk0l3G7LYX9aKfrItOjk0VyzRI9zEU8710vKfnVlppDlb1H2PZnFcTHx4tKkBRFuSWlEqRvxksTvZMAUtszTObsKJ1Y2MoTs6wPQZqW8SZrXhooHq0iC5OsXImVOabaMnhr/v+NzjJki6Ww/J6pzmIcEmV9YXuCy4uSifjIyO1F9VtWdxdTixVyTKwnBnf3ObInr4o7v/tJCeARWWNz4imIK+yzorhiJzgVxVXOibvg5F/iJH5hufQmuFSCVFA2IOJI0cKTiySYAbLyask2qrLfJv/8pEJE5JvxEsAjEpmf1MiV92QAneT5wzdRV/62s/PjL3VyO7lI7tPay+Nrj5ZKjAr3NS9KJjr4yMhtFsnLi5JJdJeBfb2lzfNHJU9SZd0DyD2vWBu4mQQpdU2YeLoNlxUH0kquKCN5KC5XNskYmsnkvUX1NxoWU2I/bipBckN6ri6KJWFhoBjarSjxh8bRme5i6BgpKVK98SulnATJ03tJUcwXlkuv/DGsbPyLS1joJ4aOkaX/QNo3VdqXOG4yZffDRWMTPQzxe6LYHNkyUOrbFx2XtnOo0vcIm/6sivj4eFE/VqsoSs3q/k9OZvwTriezf91Uht8fTOK/D7HuAacKNjJj/g18BphKrUlOPEJK4ly6NX+pcFlWdiP61SoqI/ZFdTvbu3DjRtmtaL+bSSKJnRP98ct/99NyMqFBURl7kxH3qj7YfOkcKZofDXVlr3bWFcWl19ctN64CQipJF8AzuNjDSbV0lFW9kIz5DJw6EI7f1vyFWiZ5jqG42LRTlf3OdS4euDN6ctEXnCF0zggWMnNuoi6d9YVDeQ/hNJnJ+n9dIWJ2N0wv3sP4V1ey+GHfkvFrofQZnMTUjQfJc/+a79sO4aNHvqbPazGcn+1DzNf38MAK3zKrr4q6Y1azOWUqz/ZpyGvNH2PeW0sZ067s+Xp933vMfnU135+4SoadhUvoeKTYenujEf1NR5JPnDF41i18aT5/gmxfv+JdjMm3CbWS0jgD+FP18asqzQMKq3R1Q491DKsy/kVxJ5Hd0FR61YWznNF2MaudP/PzF9ld9abuqGIHnn2xWa9zxjG3/Oe4Kn2PsOnPqlIJkqIof4za3vzt78/w2Csd2RB9BB7oUG5RwYCxHiSZzUDJNzKDVys82k1jf+xY3G22y6tmSHmuRow0Y+jaX4nsVnp9ejXrw+iOi5g5a4FbPyuChhFjHUhNMQNe1oXZFsp6xl3DG4MntO6/i7gFvqULpBT9tyb3u8b7EGgQ/gqfhr/A+U//QZ+hT7G452ZmuhUvoSPkoTB+nxLFJt9YMnqNpk0vJ/42PJqore7sbfQQG5rdRMP5NLy5d+an/Ccimb3T72PQwBUEnYqghU05kWievm8mJ5f8wPebA3BkC+O1WTffcBUZjfWpFZvAOYrykIQzZ6CpiUZ/eOslVTb+xRnd6lDrR3OJuAFwb4CXDOT5I6sZVgNZSE2+RxSnHtJWFKXm/LqRpcui2X8uHcv1ZA5vWMZnv/ly1/2tAMj573KmPbqCGJtPzNjhR8iANlx8dwHL/5tO1pWjbJs9nZWHwLffEPz3RjI7KtGaKFxP5qctMdaPcVfG6IaRU8T/J52rSWlY6MGQYSfY8cpK9qVZi1w7HkPU98nlViEks3PeGGZuulB6ZVB/wvSf8NbzuzGnp5ESu5zJc6LJLOeh6spoGAjtE0jK25FsvAxciyNy3Hy+KeOtWsNAyJBQzq1dyJoj1idkb1yMY/u/4kolVBqh1d7v8mO8tbqMLnbkxB3kZHo66Zch9+eNfLjnApnoqNvYiA5wKWM7XZ+BdL+8llnrU+gR0p48Yw96dNzCq3Ni0AaEUX76XbkT0ev5d0IW2BkweRY7xdrMn8ysNK5kueLl54ceSN70Jfuxr7BuJ3dn+O0I+8xXSb54c5+8ChgyhOY/r+DpNce4kpfFpf1LePE9R+6ZFF4qIag2232spHh1xr9Z/xE0OriCuZ8nkpqRTPy66Ty7Ohnp3I+Bpk95a/4PJFmA3DTOfL+J709VMWSbOXRL7xEVUAmSoig1p56R3L3zGNbBC6OHH6GvXKTTu1t4N9x6uyLn+LdsWb+bX8v4Xhm/6V+y5pGzvNXNi7rNwnn9bCB3NQMCn2bz550xz+2Ej6seo18oT64/VnS7wKkO+mK323Q6Fxwdrf8X10FMmVqbHSO8aBG0kkNSl96r9hDhvpbhzXToXY20Hfw631ywJjQ6BwF7HbVLRJbKz598wJf7zKWDdg5jUcwLtPj6Yfy9TQSO/wanTn9Dj1QYFw56dOionf+JIZ0DOLhaY/B+8jOWDfiBZ1oY8O44gwOPvMbj+lzyalGK6e/r+Xj8JVaFe6F3NdK48yRWHUiz3ooo1oaGoXr7XUuHQIl+0OOEk/4m6gJ06Avjbz/hTUIyZtLWqwMTo9Ih10zUxEDquxhpMPQXAiNfZnSJq0cFYxlOnwfO8fuJUIK7W5Pq8IGBXD5hoMewovSoRPsV9HNxtS98zcKQeuhdTYRs8Sdi/WRaUMb80Q3muWVdODI1gJbtgxizsyEd2zkV7luZ9feMICI4hmn+XgTNji29Y7V06NEV3Q6DUnOH9i+y4eNe/P76fdSvbaDJI9vxmv8lnw+rW3afVzB+pfu15D7GScVjWNn4F2d/1yt8vKodp2a2w8ezAwPXZtO0mzeaFsqLX71Bp72juMtDh5N3Sx6Yu5vjueX0Y/44FtzyKzWHqvkeUVXajh07pGfPntXfUlEUBTh8+DCtW7e+02EoiqLUmMOHD6srSIqiKIqiKLZUgqQoiqIoimJDJUiKoiiKoig2VIKkKIqiKIpiQyVIiqIoiqIoNlSCpCiKoiiKYkMlSIqiKIqiKDZUgqQoiqIoimJDJUiKoiiKoig2VIKkKMptdf27Z3mgiSvOOn8ei8qqtHzWmmC82q/k3G2I7c8ij73M9TXx2Fe3Vs/ukRrNZx2qmaD+tCwceb0vgR5OGPUjePvKnY6nmDOLCdGG835lP3D2V1asDyqc13/CvlIJkqIot42QzJcvvsq5sK+5kn6QZd2cShZIWkGYNpBVxX6rzZKjQa6F67c31Dvv6lUys8tZ99M02mthvFFJ1mjJgZxrUuOh/ZlIdjRLIg4RsOYiqUkrGFrnTkdUTGYmFixcv7nfLv7D7B3vhP/EuD+kbiGZ9X016o3fZV1g2wflzes/YV85VF5EURSlpqSSnAj1R3VE5+SEziY/IieTDCxcLy8xUKwCRjEv8gotfe50IHeelpqEmaZ0/VtdMEIZv3Or2LDk3iArx/KH1K3hzX1PrWOl/m9/SP23k7qCpChKzTq7iXkD2uLjokPn7k+noUv5Jh3y2M1Mx1ZEJMDO8TrqauPYUHy7n56hjf/TfMt2nvbW8LSbwc78ix9ZDmZ2P9ebQA8n3Ew9mPzJhcLNshM28Wzv5ph8jPg0CGLQm4co8yp9aizvje5OYEMDelcjLe+bwZazIHl7mevjwl1LE63lrm5mUr1m/P3rLIQ0DrwxlG5NvTB6mmgZMpctZ/Prs8QRObQ1Jk8jJv8gxq27UFarRTI3MFxrx6QD1pciu4ioo9FtZcF2FnaP1Gg1regv+9zDq5jQtRF6VyMt+izlx4LLaBd38ua41ezJv0OZ88t7/CO0MW46Pd4B4UzaXBRLlmU3i4Zbx8On9TiWHy47vN0jNbrPX8O8Pm3xMRjx7zyDLScP8dGE7jT1MOATMIJFvxTdEq2o389vnM7Qu3wxuuoxmjqWWLd7pEbwix8zb0BbTJ7GEjEJaexZcD+B3gYM3v50n7qLyxX16eFnucd7Cl/xDc/5adTrtoEU0tn/zhgeaOKKXm/tjynrE0vt51N3G3HTBrH0gvU2rtOg19k4/T5r2/7hzNmVyIEVQ+nmWxc3ryCGr00sM4QK54iNivqsujFUp66CY0ZIY0u4Ruj7kLQ+CM3eSNjy9CrN5WNPe+AVtqFwPMxvd6G+VnSMcmoxwflXf0+ueZQ5WxIqGrly+tJCwmdPW8eujj8hYzfza171+7nG7NixQxRFUW5WfHx84f/z5KAsaIa0GrtJTl4RyUraKYu7IvX6bJKU/PVL/ZB+71vKruy3RdKd3rLoctGitHeDRW9nkHunRcuJy8ly4OWu4sNY+Ti7qL2O02MlRURunFwuw1yay7jdZdR//CNZsjJGTlwTkYwjsqI74jM6VkREMr4YLC0YKO8kpUvsBG/xy4/3yifh0tA4XCJ/tYjkpErsk82kUcdIOSsi5rc6S712K+R4roikH5E9cakV9lOemCWyG9L+2aPWBftmSRsQQ4/11r7Ji5EIvUnGx4jkSqzM8UBq1x8uS/YkS1riOpngg3SZl2Dd9tg86cwAWZ4pkpcbK3N8kHYzdsk5i0UuHnxPZr9h3a/oYYg9HeTxtUcl9coRea+vg3jea23PVvQwxMEuVKbuTBbJPiJL7kb0+pYyYPlRychNlV2jncWji3XfK+r3PEmV75Yvkk/3p4mIyOWoUdKO3rIkuagdO10XmR6dLJJrluhhLkUxxc2STgyQd5JFJCdVDv1wWjIq7FURubBcehEsC85ZX175JFwa1A6TebHJkmlJlZPrHpa2dJaZPxe1b08HGfVZgqQlmeVytnWOOeMtwS/FSYpYJG6Kp+hcDNJm5Cb51SKSuiZM/Bgrn5QRTEVzpMQ4VTJXqxNDVesKmb9XLmeLJK0KLTxmRER2jSma+yJVm8u53z4hAQyXNRkieZIqm8MQe1rKxP1FdXjl73f0MMRvwkHrimJ9kCuxMsfoLIO3ljGOx+bJ3RriF7xEtiekydX/Lpd+dfTS/Y3kyvv5DxAfHy8qQVIU5ZYUT5Ak9klpwQBZebVoUd5XI8WX4YUJzc0kSJ7eS+RgwYILy6UXnWR2gojsmyrteUTWFJ64MmWInOktAAATHElEQVT3w8XenCuQ8IKveN67XjLEmrxs7o3U7tZD2jJAXj9bdBIIiDhStNHJRRKcv3+pa8LE0224rDiQVmlbBcxLA8W9xQo5JiKnX2sjDQYNks48bj1x7ZsqHZgoX94oOpGEfVbUT7ETnMQ4JMr6othJR3Y/KQEl+qBI9DCkWbEToXw2UOrbz5E9eWWX9XuiqGzCC75i6BhZlExtGSg+RMiOPKlWv+fKJhlDM5m8t+x2ZEuxmE4ukvu09vL42qOVJ0YFiiVIeWKW9SFIy6lFceTKaVkRVJSYRg9DGg2LKVF/2rvBYvJfIscKFnwzXgJ4RCLzEwq58p4MoJM8f7hk05XNkRLjVEmfVSuG6taVv+3sBOtL2wSpKnM5Ly9KJjr4yMhtFsnLi5JJdJeBfb2lzfNHJU9SZd0DyD2vJBT28c0kSJ1sjv3YCU5i6LFerktaxf38B4iPjxd1i01RlJpz7hyXNX+auxQt0nyb4kUqZ6/efLWaBzgXvHB1Qw84ZAAXznJG286sdv74NffHr3krxn7rTV3XMp70zE5g5/yh3H9XB1q2bUWPf5qxABlYn5voP3UkdffEkNxvHP9oYH3Y1HwGTq0Lz6/bH7+w1zntqMflBtQds5rNz+TwSZ+GNAqezPs/V/6JPO9+DxN4PIovL19kb8w57h0/k/AmUWzblcXR6G2c7xfO/bWKyjsXe0hLr6/LjRtlVHrpHCmaDw11ZbeZoy+2wtUZx1wLGeUFaF9UVqevjUPxZ8R0zvxfe3ceVmW1L3D8+zLI3gjCBhU2DgymYqISdUQpJ+SUgh0TNSlPace8N02PmqLnOGVqw3HIcrrd63CyDg45XS2HKyLnnBTNTMwHpMIUJzZOuHGAjcL+3T82wwZRoDAt1+d5fB72u9e71m8v1rv87fddL2/Zu9X0+42DyxgT24nH2z1K2w4T2Fp5uatdO+jsYmoRT8Lnvbg+vwvGoBjiP8u6U6R3YMJ0Chq1CCrb4oCRICNcMF0pb95gQF9pz2JXuxeurujRoy8NW+eKYKGgqOI+1Y2RCmowVmscQ23r0tleON3hF1+TsaxpkfQZkM2BDYexfrWLve0HMuOFjuRtSeJcYTJJuzrydP+AqhuoIQ0deru4jU1awqUrXKxNP9chtUhbUZS6Y/DGTUycsUDp/0CSdZwL+NHsXtxd5N0UH4ll+rEVxFUzm+UsfIEXVz3Fx1+tI7ohZL3djo4ltxsLGSx9aw2NXh6My8ezePNoNH9r74tnI2j73B5SZwVUUaMvT8Wv48vxOewf15X+sYuJ+HE8re8Sg7ToQ1TL6Wzduo3Wu57hmfXhtOpzjfd3bKLzV6cIH9UTPWCtTR9U0ef33F36XWQ7E7vGc3zeAfZuCqYemxmuTapx1U1j3mVdzJucW/cafQa9wdyoTcTXeOW1Ec8mcOFUNuABgBUTJ7LAq6+xxjHUlEY1Y+SS3c+1GKvVqsu6sH2O6seyjh5/iOb66G1sDEghv9dQ2vVy4fEXt7Ntqzf7m/+B1S1/XhyChYJ8KM3ETecyudXMSKPq+vkeUWeQFEWpO13jiG28mnljt3P8Otw0JTH7zU9h2Iv0rclEbvDCwI+kfZnH1Wxz1Yut7UinvsQa1/HhzANkW4BiM6f3bmTvj7eXNZ8/zi33QNo3BK7vZ0NSGqX38eT815+Ye2YSS5ct5YNXD7Pq5SVkWj3pMTCSs6tms/KY7Rv1zQup7Pg8lQIgc3sC/3eyEBw8MTbyLm/oWiqfzdvI0eu3x6DxGH2ebUzqe7PZ91gUUQ2gc+/+OH8xi0X7/0CvZyvf1lcDEc8RrV/Lh9OTMeWZuZSyiFFTtlfbdz/H3fpds5jJLXTHJzAQPZCzcQuHcKxRvcXfbuCTfecpQIeHvwEd4FbtXuU0fIkZ0InLy6cy72AeBVYzx1b9hYXfRDPsjwG1/6DVtnf3MWKvNmO1Oj+3LoObA0Wphzmel0fe5buM5Up0fWLpdnkVkxIu0bNHKFZDT3qGbea9KUlo/aJ5rPYfpQIriSx+YT47s/K4eGgeb61pQOTzPXHFo8b9XJdUgqQoSt2pF8mcHf9Dl8wRdGyoxz10NPvCEti8JBI9IOiRBmCtV/Xu4t6f0WPqkzjYh9YRS0gV0DkJOOqob1dOhx6rs+20/4ydCwjfP4QnGupw8W3D01OT+b749rqDx63iNe8P6BIcRljUYsxPRKN3h/rXNjF5ymW6fjSNCKcGdJ6/hujsaUxIyMP4nwmsGX6RpTE+6N0N+Hd6naXfmMkH6p/fxewejdG7G+mxOYjxCaNs37i/W8U78UvYmlf1ZwwdEEfQ8TM49H+SpgCRzxF9OoPzPfszyN2uoEsD9HaX23Q6N+qV9puTHh066gvgGs2cpDdpvet5gnyNhAz/Jy7hj6MHdE7gZH+5sWQ/+6svZfXfVtaNIle7U1JOekrTt7v2uz6WaQs7c2xMMG1CI3hldzPCOrhgdb5TO3YxFZvYNjKEJm4Gmg46Ssjydxha3dkjZx16dGWXonxHbWbN6CLW9m+Ml2sgMR858XLyasYG3qF9qhhjzjoEKow5PS64VHGG7m5jxP73VN1YrU0Mta6L8mMGIHTEB/TIj6e9z2OM3JZ357FcibjH0Ofps1zPjKR7N3AgkJjYEC5netIzrjw9qtDH9mMVbhvX5R9Oj7fxP5je7zDTwhvR/PcrkWFrWfqSR/X9fI9oiYmJEhUVdQ+bUBTltyw9PZ22bdve7zAeGBlvPULMoTl8/Xksd/4urijKgyw9PV2tQVIURakzVzcx9x/PMOeASo4U5ddOJUiKoih1pUEsKzNj73cUiqLUAbUGSVEURVEUpRKVICmKoiiKolSiEiRFURRFUZRKVIKkKIqiKIpSiUqQFEVRFEVRKlEJkqIoiqIoSiUqQVIURVEURamkQoJkZT9TA4y8vPN+hXPvFa7sjk/oEs5WU87KDkZp7Zn0DeQtDadRxAou/yIRlhPMbI7RCJ97HtJmEqENY/UvHIOiPJQ+/yNBjd7mSK2eGqsoym/J7WeQrl6l4FbdNXByTnuMAfduohFSmd1Sz6BNNStvKdKg2MKNakvq0KFDnAEnVzRHfZXPLyqTvZhoLZal12oWR5VW96Z5u/l8X/JSQwfO2J5bo9f4CY+xVJTfhP3DXQgamfrLNViUz80rBeRr1RdVFOW36Z7/Je1mfd9l/iNBtL5HF/MEC9y0kF+HSZ2NDl1jPa4NwMNNh7ObJ1U8p7BcUQH5WLjxM+IoLNK4dc1i9/A9HQYXcKnvCe4GXDHTWAA1aSsPGUvxTQqLLPc7DEVRHiJVpi3F6UsZ8WRz9O4GWveZz1d2p1su/XsWQzr546XT4+EfRt/JezhX8gThwpXdcen/Pv8Y/Cjezkbi1hdSvG8u42busV2e+nos7TUNreSfhzaYtUVAUQYbRz1DiNEFvbuB4O6jWPJNIVBy2c/vd4z8eIGtXU9jWUxWdjDaIYJpp+GLlzSctQimZULR0WWM7d2BRxrp0HkH0XHoan6o4gyWkMH8UI1Wk45U0Qu+tOkeRksvwL8TXcKNJfuY2Tfr94T4euLpG0S3MXu4/s1k2gVN5F/sYKKvRiOHCewWOLdhHIOeCMDgrsdgDKP/B0coKKk9+SWNbjNX8sbvDHhp/XnvvZ54DttBzqmphNXT8HluOwA+YQPoGOQChiA69GtDM5UcKQ+4oqPLeC3SNkf4Bsfw+qbztjcsqXw6ohshzWzHTo+hq/nWdpiXzR0bxnUlxNcTL2NPRq09X3aZOfLvkJ0QgeZoIHpRHgC5O2cy6IkAjI0MtHi0P9N22baXzhmvr5jOM/5O+LWYTypw6+RG/tq7FUY/A35NIyocj5iTmNu3HX5uOnzbD+b9VAs31bGmKA+3xMREKVUsKTKlIVK/yYsyb1+OmLP+ISP8kM5vnbQVyFoozzi0lr4fZUiupUAuHFwkcV466bYgR0REzP/dXfQOnvLk+D2Sfckk2Vdt2xqHzJPvxF6B7PuzUfwiE+S0WCTl1XrS4HdTZOcJi8iNE/LF68HSUBsvu2+Wx+Qe8Lqs/sEicj1J3nikPKZiSZFZzZE+a8trz93yN/ng8wy5fEvEcm6ZxHnp5NkES1mMpfFYxSS7Jw+RCRtypMZSJ0k4/eSjHBEpuiJHDpyQfBGRU3OkG71lzmVbMatckX8vmiPrDplFROTytiHSgd4yr6Sp7XGII4/JkM9OijnbZIt1VW/x9Z8th2sejaLcd2lpaWU/W4tTZIof0mHCHjlrsciFw8tk8oIUESmQlFfribHLYvn2mogUHJa5T+ok9K8ZImI7Ll3xlR4z98vlWyLZSyPFj2Gy5pat3j2vIH5DU8obzVooveggL221HVC561+W1rwof88rmTO8bfPYwqNmMWVfEascllktkbBxKXJJRG4eXyRxbq3k1WSLWOWK7Pkj4hE+W/5lssjFfQtlkD/i4TxF9ll/mT5UFOXBkpaWJrcnSAZXif7MUrYtZYSLGAZuExGRk7NDxLPDYjljV0lGvLd4hi2XS2Kb5Ly9K04qVSVIt478RcLpLQtOiBTLRnmFpvLSF+VtSn6CxNFUhieVxzRwc/n7+8a4lsVUVYJkzyomWd4F6fjuyTvGUyvH50hXLVT+tCrDlhiVqpQgVWb7nC1l1H7b6+1xSPO4pAp1qARJ+TWyT5Ak+c8SzAuyMr9iGat1m4zET17aUb7NsqKbGFsvlu/Edlwag+yOy9xl0o9wmXzS9rJygmSaHyINH11eNhcVS4pMMdaXAVtLfvZColaYyxs7OEZCK8RVIMnPI4EjDpfE1qDCHCMJvaSJo0qQFOVhlZaWJlWuQXLVlS8H1us9uHnT9rPpXCa3AgJpalfWGNAC52wzp4EgwNFowPsup6aFDD58dQGO048wNhC4kI2JJjzRqrxNq96In/tZfrhot59j+fuujm5lMVXpYhILJ89l3aHT5BZD3gkXvH9/l/K10SKehM9zGT+5C8YZHRn+3hLmPh9QZdEbB5cx+b0V7M28Sr6DhYvoeMHufUeD4e7rmhTl1+biWS5pgTTTVdysXTeRTTa7RwYRWDLraEUF2E8mxfZ3QehsL5zyqVJO1jEuZU2lS6u3y7YV3mpOX+eSF+KKZyOP8h3On+G0todJHYKYWbLJ4aovHkM0tEIT2QTQMsjuNgi9OjIV5WFXq0XaBkMTnFNOcpbyee3k6dPwiJHmNazj/MI/sSRrGglTggEQLy88OcepH4GWtjIO10yYrrUkwL/6+jRsM7FDyeJowcz/Do1isftGkg/F4udoZk2kgXdr+iFroGnMu6yLeZNz616jz6A3mBu1ifhKZUS2M7FrPMfnHWDvpmDqsZnh2qQ6jEJRHkAGb9zExBkL2Gf/VncDBloyaNUPLO9y+255tWzG0+dRGnYYy6GUYXhXeq/KG2a9m+IjsUw/toI4p8rlT2Agl5xsoH3JxiK1AElRHna1urcseOBAWn27mIkrvyPXWsjFQ/OYsaweHV+PuW2SqtKF5Ywbl0vP9RPoXK9km1Mkz/c9y9YZb7PzbCHkn2T7hJkk+w9hWMfqqxT0eDWAzEOpmPNyyC0yk20G/INo4gjFGevZ+v2d9s1h91uvEL/xfM06ACj+dgOf7DtPATo8/A3oADcAgxcGfiTtyzyuZpspKDSTW+iOT2AgeiBn4xYO4XjXul28XeHUMQ6arpJzQd2xo/wKRTxHtH4tH05PxpRn5lLKIkZN2Y6FngyMyyTx3SUcNNuKXvs+iW17c2pUrcHNgaLUwxzPyyPvMgT0HUjQ/uVM3pZlW2h9I4evNyfd8c+JSKe+xBrX8eHMA2RbgGIzp/duZO+PoBHBs9Fn2bvQdjPHrcwERk7bVLZIW8ghacpQRidk/czOURTl1+T2BMmlge3v7pTQ6dyoV5rMhM5g9ZpeXH+/K03qe9LihR34zNzC+jjbqWydk4Cjjvp21VXYlrKDXdYfWN5Dh6Zp1NMiiM/wpd/Hu5kVsIVRIR7o/CL4y4UBLP1yCqEO1cfkQDB9pw6h/ifh+HsP49MzAbzyzlu0+eI5AtqF8dTE7/F/qhXuDvoqYrzCt2s/ZstBU817rNjEtpEhNHEz0HTQUUKWv8NQLxD3/oweU5/EwT60jljCEd0Api3szLExwbQJjeCV3c0I6+CC1bm0X8DJvdK31KjxjO+exNggHyImp9Q8JkV5ULhGMyfpTVrvep4gXyMhw/+JS/jjuOJB76X7GO+9ihdb6tC7G2g/4H3+ed52DFQ5d6AvO15CR3xAj/x42vs8xshteRAykU3rO2GaGo6fux5DYCR/TviOgqKSnSvNGZoWyYydCwjfP4QnGupw8W3D01OT+b4YNHzp99EG4m5MJNzHSKvBybSeNoFH3EpPgZk4smkVSV9fude9pyjKA0RLTEyUqKio+x2Hoii/Uunp6bRt2/Z+h6EoilJn0tPT1bPYFEVRFEVRKlMJkqIoiqIoSiUqQVIURVEURanECWzX2hRFUX4qNYcoivJb4wSoBZaKovxkapG2oii/Nenp6fw/OJ7iRBn3878AAAAASUVORK5CYII=;" parent="1" vertex="1">
          <mxGeometry x="-870.0000000000001" y="380" width="851.67" height="560" as="geometry" />
        </mxCell>
        <mxCell id="nePDa3_3fkzpvEF-QjUr-66" value="" style="group;fillColor=#f5f5f5;fontColor=#333333;strokeColor=#666666;" parent="1" vertex="1" connectable="0">
          <mxGeometry x="-757.01" y="-200" width="644" height="64" as="geometry" />
        </mxCell>
        <mxCell id="nePDa3_3fkzpvEF-QjUr-41" value="&lt;font style=&quot;font-size: 36px&quot;&gt;Alignment of individual fields&amp;nbsp;&lt;/font&gt;" style="text;html=1;strokeColor=#6c8ebf;fillColor=#dae8fc;align=center;verticalAlign=middle;whiteSpace=wrap;rounded=0;sketch=0;fontSize=24;" parent="nePDa3_3fkzpvEF-QjUr-66" vertex="1">
          <mxGeometry x="10" y="4" width="540" height="56" as="geometry" />
        </mxCell>
        <mxCell id="nePDa3_3fkzpvEF-QjUr-65" value="" style="shape=image;html=1;verticalAlign=top;verticalLabelPosition=bottom;labelBackgroundColor=#ffffff;imageAspect=0;aspect=fixed;image=https://cdn4.iconfinder.com/data/icons/ios-web-user-interface-multi-circle-flat-vol-2/512/Align_center_paragraph_text_text_control-128.png;sketch=0;fontFamily=Verdana;fontSize=36;fontColor=#000000;strokeColor=default;strokeWidth=1;fillColor=#0000CC;gradientColor=none;" parent="nePDa3_3fkzpvEF-QjUr-66" vertex="1">
          <mxGeometry x="580" y="7.62" width="48.76190476190476" height="48.76190476190476" as="geometry" />
        </mxCell>
        <mxCell id="nePDa3_3fkzpvEF-QjUr-39" value="&lt;font style=&quot;font-size: 36px&quot;&gt;Currently in use field types.&lt;/font&gt;" style="text;html=1;strokeColor=#6c8ebf;fillColor=#dae8fc;align=center;verticalAlign=middle;whiteSpace=wrap;rounded=0;fontSize=14;" parent="1" vertex="1">
          <mxGeometry x="315" y="-720" width="500" height="60" as="geometry" />
        </mxCell>
        <mxCell id="rBhHTHVuxUBPP-gp3FUu-8" value="&lt;div&gt;&lt;table width=&quot;571&quot; style=&quot;border-collapse: collapse ; width: 428pt&quot;&gt;&lt;colgroup&gt;&lt;col width=&quot;152&quot; style=&quot;width: 114pt&quot;&gt;&lt;col width=&quot;419&quot; style=&quot;width: 314pt&quot;&gt;&lt;/colgroup&gt;&lt;tbody&gt;&lt;tr style=&quot;height: 15.0pt&quot;&gt;&lt;td width=&quot;152&quot; height=&quot;20&quot; class=&quot;xl65&quot; style=&quot;width: 114pt ; height: 15.0pt&quot;&gt;&lt;font style=&quot;font-size: 24px&quot;&gt;&lt;b&gt;viewType&lt;/b&gt;&lt;/font&gt;&lt;/td&gt;&lt;td width=&quot;419&quot; class=&quot;xl65&quot; style=&quot;width: 314pt&quot;&gt;&lt;font style=&quot;font-size: 24px&quot;&gt;&lt;b&gt;Description&lt;/b&gt;&lt;/font&gt;&lt;/td&gt;&lt;/tr&gt;&lt;tr style=&quot;height: 15.0pt&quot;&gt;&lt;td height=&quot;20&quot; style=&quot;height: 15.0pt&quot;&gt;&lt;font size=&quot;3&quot;&gt;editText&lt;/font&gt;&lt;/td&gt;&lt;td&gt;&lt;font size=&quot;3&quot;&gt;Display input text field.&lt;/font&gt;&lt;/td&gt;&lt;/tr&gt;&lt;tr style=&quot;height: 15.0pt&quot;&gt;&lt;td height=&quot;20&quot; style=&quot;height: 15.0pt&quot;&gt;&lt;font size=&quot;3&quot;&gt;button&lt;/font&gt;&lt;/td&gt;&lt;td&gt;&lt;font size=&quot;3&quot;&gt;Render button with the given title&lt;/font&gt;&lt;/td&gt;&lt;/tr&gt;&lt;tr style=&quot;height: 15.0pt&quot;&gt;&lt;td height=&quot;20&quot; style=&quot;height: 15.0pt&quot;&gt;&lt;font size=&quot;3&quot;&gt;divider&lt;/font&gt;&lt;/td&gt;&lt;td&gt;&lt;font size=&quot;3&quot;&gt;Render a horizontal rule between the fields in the page.&lt;/font&gt;&lt;/td&gt;&lt;/tr&gt;&lt;tr style=&quot;height: 15.0pt&quot;&gt;&lt;td height=&quot;20&quot; style=&quot;height: 15.0pt&quot;&gt;&lt;font size=&quot;3&quot;&gt;autoCompleteText&lt;/font&gt;&lt;/td&gt;&lt;td&gt;&lt;font size=&quot;3&quot;&gt;A normal text input enhanced by a panel of suggested options&lt;/font&gt;&lt;/td&gt;&lt;/tr&gt;&lt;tr style=&quot;height: 15.0pt&quot;&gt;&lt;td height=&quot;20&quot; style=&quot;height: 15.0pt&quot;&gt;&lt;font size=&quot;3&quot;&gt;date&lt;/font&gt;&lt;/td&gt;&lt;td&gt;&lt;font size=&quot;3&quot;&gt;Date pickers and Time pickers allow selecting a single value from a pre-determined set.&lt;/font&gt;&lt;/td&gt;&lt;/tr&gt;&lt;tr style=&quot;height: 15.0pt&quot;&gt;&lt;td height=&quot;20&quot; style=&quot;height: 15.0pt&quot;&gt;&lt;font size=&quot;3&quot;&gt;radioGroup&lt;/font&gt;&lt;/td&gt;&lt;td&gt;&lt;font size=&quot;3&quot;&gt;Render radion button to allow selection of single value from a set.&lt;/font&gt;&lt;/td&gt;&lt;/tr&gt;&lt;/tbody&gt;&lt;/table&gt;&lt;/div&gt;" style="text;whiteSpace=wrap;html=1;" vertex="1" parent="1">
          <mxGeometry x="220" y="-510" width="830" height="220" as="geometry" />
        </mxCell>
        <mxCell id="rBhHTHVuxUBPP-gp3FUu-13" value="" style="group" vertex="1" connectable="0" parent="1">
          <mxGeometry x="-737" y="-50" width="477" height="300" as="geometry" />
        </mxCell>
        <mxCell id="nePDa3_3fkzpvEF-QjUr-46" value="&lt;pre class=&quot;code highlight&quot; lang=&quot;json&quot;&gt;&quot;alignment&quot;: {&lt;/pre&gt;&lt;pre class=&quot;code highlight&quot; lang=&quot;json&quot;&gt;   &quot;row&quot;:&quot;new&quot;,&lt;br/&gt;   &quot;col&quot;: 6,&lt;br/&gt;   &quot;direction&quot;: &quot;row&quot;,&lt;/pre&gt;&lt;pre class=&quot;code highlight&quot; lang=&quot;json&quot;&gt;   &quot;horizontal&quot;: &quot;start&quot;&lt;/pre&gt;&lt;pre class=&quot;code highlight&quot; lang=&quot;json&quot;&gt;}&lt;/pre&gt;" style="text;html=1;align=left;verticalAlign=middle;whiteSpace=wrap;rounded=0;sketch=0;fontSize=24;fillColor=#cce5ff;strokeColor=#36393d;" parent="rBhHTHVuxUBPP-gp3FUu-13" vertex="1">
          <mxGeometry x="107" width="370" height="300" as="geometry" />
        </mxCell>
        <mxCell id="nePDa3_3fkzpvEF-QjUr-81" style="edgeStyle=orthogonalEdgeStyle;rounded=0;orthogonalLoop=1;jettySize=auto;html=1;entryX=-0.005;entryY=0.121;entryDx=0;entryDy=0;entryPerimeter=0;fontFamily=Verdana;fontSize=36;fontColor=#000000;" parent="rBhHTHVuxUBPP-gp3FUu-13" source="nePDa3_3fkzpvEF-QjUr-77" target="nePDa3_3fkzpvEF-QjUr-46" edge="1">
          <mxGeometry relative="1" as="geometry" />
        </mxCell>
        <mxCell id="nePDa3_3fkzpvEF-QjUr-77" value="" style="dashed=0;outlineConnect=0;html=1;align=center;labelPosition=center;verticalLabelPosition=bottom;verticalAlign=top;shape=mxgraph.webicons.json;gradientColor=#DFDEDE;sketch=0;fontFamily=Verdana;fontSize=36;fontColor=#000000;strokeColor=default;strokeWidth=1;" parent="rBhHTHVuxUBPP-gp3FUu-13" vertex="1">
          <mxGeometry width="80" height="70" as="geometry" />
        </mxCell>
        <mxCell id="rBhHTHVuxUBPP-gp3FUu-14" value="" style="group;fillColor=#dae8fc;strokeColor=#6c8ebf;fontSize=12;" vertex="1" connectable="0" parent="1">
          <mxGeometry x="-250" y="3300" width="980" height="730" as="geometry" />
        </mxCell>
        <mxCell id="gosIsZVop82910w4iH4O-1" value="Events" style="text;html=1;strokeColor=none;fillColor=none;align=center;verticalAlign=middle;whiteSpace=wrap;rounded=0;sketch=0;fontFamily=Verdana;fontSize=36;fontColor=#000000;" parent="rBhHTHVuxUBPP-gp3FUu-14" vertex="1">
          <mxGeometry x="28.161290322580644" width="62.58064516129032" height="30" as="geometry" />
        </mxCell>
        <mxCell id="rBhHTHVuxUBPP-gp3FUu-5" value="&lt;div&gt;&lt;table width=&quot;900&quot; style=&quot;border-collapse: collapse ; width: 675pt&quot;&gt;&lt;colgroup&gt;&lt;col width=&quot;116&quot; style=&quot;width: 87pt&quot;&gt;&lt;col width=&quot;193&quot; style=&quot;width: 145pt&quot;&gt;&lt;col width=&quot;165&quot; style=&quot;width: 124pt&quot;&gt;&lt;col width=&quot;426&quot; style=&quot;width: 320pt&quot;&gt;&lt;/colgroup&gt;&lt;tbody&gt;&lt;tr style=&quot;height: 15.0pt&quot;&gt;&lt;td width=&quot;116&quot; height=&quot;20&quot; style=&quot;width: 87pt ; height: 15.0pt&quot;&gt;&lt;font style=&quot;font-size: 24px&quot;&gt;events&lt;/font&gt;&lt;/td&gt;&lt;td width=&quot;193&quot; style=&quot;width: 145pt&quot;&gt;&lt;font style=&quot;font-size: 24px&quot;&gt;Description&lt;/font&gt;&lt;/td&gt;&lt;td width=&quot;165&quot; style=&quot;width: 124pt&quot;&gt;&lt;font style=&quot;font-size: 24px&quot;&gt;Actions&lt;/font&gt;&lt;/td&gt;&lt;td width=&quot;426&quot; style=&quot;width: 320pt&quot;&gt;&lt;font style=&quot;font-size: 24px&quot;&gt;Description&lt;/font&gt;&lt;/td&gt;&lt;/tr&gt;&lt;tr style=&quot;height: 45.75pt&quot;&gt;&lt;td height=&quot;61&quot; style=&quot;height: 45.75pt&quot;&gt;&lt;font size=&quot;3&quot;&gt;onClick&lt;/font&gt;&lt;/td&gt;&lt;td width=&quot;193&quot; class=&quot;xl17&quot; style=&quot;width: 145pt&quot;&gt;&lt;font size=&quot;3&quot;&gt;Triggered when a user clicks a button or any clickable field on the page.&lt;/font&gt;&lt;/td&gt;&lt;td&gt;&lt;font size=&quot;3&quot;&gt;populateDataFromApi&lt;/font&gt;&lt;/td&gt;&lt;td&gt;&lt;font size=&quot;3&quot;&gt;Populate the fields on the frontend after making a request to server.&lt;/font&gt;&lt;/td&gt;&lt;/tr&gt;&lt;tr style=&quot;height: 15.0pt&quot;&gt;&lt;td height=&quot;20&quot; style=&quot;height: 15.0pt&quot;&gt;&lt;/td&gt;&lt;td&gt;&lt;/td&gt;&lt;td&gt;&lt;font size=&quot;3&quot;&gt;invisible&lt;/font&gt;&lt;/td&gt;&lt;td&gt;&lt;font size=&quot;3&quot;&gt;Hide the fields in the frontend when triggered by events.&lt;/font&gt;&lt;/td&gt;&lt;/tr&gt;&lt;tr style=&quot;height: 30.75pt&quot;&gt;&lt;td height=&quot;41&quot; style=&quot;height: 30.75pt&quot;&gt;&lt;/td&gt;&lt;td&gt;&lt;/td&gt;&lt;td&gt;&lt;font size=&quot;3&quot;&gt;passValidation&lt;/font&gt;&lt;/td&gt;&lt;td width=&quot;426&quot; class=&quot;xl17&quot; style=&quot;width: 320pt&quot;&gt;&lt;font size=&quot;3&quot;&gt;When used, it falls in a switch case and checks for the given validations specified in the object inside a json file.&lt;/font&gt;&lt;/td&gt;&lt;/tr&gt;&lt;tr style=&quot;height: 30.75pt&quot;&gt;&lt;td height=&quot;41&quot; style=&quot;height: 30.75pt&quot;&gt;&lt;/td&gt;&lt;td&gt;&lt;/td&gt;&lt;td&gt;&lt;font size=&quot;3&quot;&gt;navigate&lt;/font&gt;&lt;/td&gt;&lt;td width=&quot;426&quot; class=&quot;xl16&quot; style=&quot;width: 320pt&quot;&gt;&lt;font size=&quot;3&quot;&gt;Takes in a pageId, and does shallow routing to the next page without running the data fetching mathods again.&lt;/font&gt;&lt;/td&gt;&lt;/tr&gt;&lt;tr style=&quot;height: 15.0pt&quot;&gt;&lt;td height=&quot;20&quot; style=&quot;height: 15.0pt&quot;&gt;&lt;/td&gt;&lt;td&gt;&lt;/td&gt;&lt;td&gt;&lt;/td&gt;&lt;td&gt;&lt;/td&gt;&lt;/tr&gt;&lt;tr style=&quot;height: 121.5pt&quot;&gt;&lt;td width=&quot;116&quot; height=&quot;162&quot; class=&quot;xl17&quot; style=&quot;width: 87pt ; height: 121.5pt&quot;&gt;&lt;font size=&quot;3&quot;&gt;onEntryLimitReach&lt;/font&gt;&lt;/td&gt;&lt;td width=&quot;193&quot; class=&quot;xl17&quot; style=&quot;width: 145pt&quot;&gt;&lt;font size=&quot;3&quot;&gt;Applied on a autocomplete text field, and is backed with an api call which triggers when typed text&#39;s length reaches a minimum limit set, and happens to suggest options available for the user to select from the options populated.&lt;/font&gt;&lt;/td&gt;&lt;td&gt;&lt;font size=&quot;3&quot;&gt;visible&lt;/font&gt;&lt;/td&gt;&lt;td width=&quot;426&quot; class=&quot;xl17&quot; style=&quot;width: 320pt&quot;&gt;&lt;font size=&quot;3&quot;&gt;Makes the fields visible when triggered by events such as onSelect etc.&lt;/font&gt;&lt;/td&gt;&lt;/tr&gt;&lt;tr style=&quot;height: 30.75pt&quot;&gt;&lt;td height=&quot;41&quot; style=&quot;height: 30.75pt&quot;&gt;&lt;font size=&quot;3&quot;&gt;onSelect&lt;/font&gt;&lt;/td&gt;&lt;td width=&quot;193&quot; class=&quot;xl17&quot; style=&quot;width: 145pt&quot;&gt;&lt;font size=&quot;3&quot;&gt;Triggers when a user selects a list value from a drop down.&lt;/font&gt;&lt;/td&gt;&lt;td&gt;&lt;/td&gt;&lt;td&gt;&lt;/td&gt;&lt;/tr&gt;&lt;tr style=&quot;height: 45.75pt&quot;&gt;&lt;td height=&quot;61&quot; style=&quot;height: 45.75pt&quot;&gt;&lt;font size=&quot;3&quot;&gt;onSubmit&lt;/font&gt;&lt;/td&gt;&lt;td width=&quot;193&quot; class=&quot;xl17&quot; style=&quot;width: 145pt&quot;&gt;&lt;font size=&quot;3&quot;&gt;Triggers when a user submits a form which is followed by an API request.&lt;/font&gt;&lt;/td&gt;&lt;td&gt;&lt;font size=&quot;3&quot;&gt;hitApiAndNavigate&lt;/font&gt;&lt;/td&gt;&lt;td width=&quot;426&quot; class=&quot;xl17&quot; style=&quot;width: 320pt&quot;&gt;&lt;font size=&quot;3&quot;&gt;An action when triggered by an event such as onSubmit, does an API request to the given endpoint.&lt;/font&gt;&lt;/td&gt;&lt;/tr&gt;&lt;/tbody&gt;&lt;/table&gt;&lt;/div&gt;" style="text;whiteSpace=wrap;html=1;" vertex="1" parent="rBhHTHVuxUBPP-gp3FUu-14">
          <mxGeometry y="80" width="980" height="650" as="geometry" />
        </mxCell>
        <mxCell id="rBhHTHVuxUBPP-gp3FUu-19" value="" style="group;" vertex="1" connectable="0" parent="1">
          <mxGeometry x="-260" y="2390" width="700" height="770" as="geometry" />
        </mxCell>
        <mxCell id="rBhHTHVuxUBPP-gp3FUu-15" value="" style="group" vertex="1" connectable="0" parent="rBhHTHVuxUBPP-gp3FUu-19">
          <mxGeometry width="538" height="427.77777777777777" as="geometry" />
        </mxCell>
        <mxCell id="nePDa3_3fkzpvEF-QjUr-64" value="" style="group;fillColor=#dae8fc;strokeColor=#6c8ebf;" parent="rBhHTHVuxUBPP-gp3FUu-15" vertex="1" connectable="0">
          <mxGeometry width="460" height="74.86111111111111" as="geometry" />
        </mxCell>
        <mxCell id="nePDa3_3fkzpvEF-QjUr-60" value="&lt;font style=&quot;font-size: 36px&quot; face=&quot;Verdana&quot;&gt;Validations&lt;/font&gt;" style="text;html=1;strokeColor=none;fillColor=#dae8fc;align=center;verticalAlign=middle;whiteSpace=wrap;rounded=0;sketch=0;fontSize=24;" parent="nePDa3_3fkzpvEF-QjUr-64" vertex="1">
          <mxGeometry width="350" height="53.47222222222222" as="geometry" />
        </mxCell>
        <mxCell id="nePDa3_3fkzpvEF-QjUr-63" value="" style="shape=image;html=1;verticalAlign=top;verticalLabelPosition=bottom;labelBackgroundColor=#ffffff;imageAspect=0;aspect=fixed;image=https://cdn2.iconfinder.com/data/icons/elasto-online-store/26/00-ELASTOFONT-STORE-READY_compare-128.png;sketch=0;fontFamily=Verdana;fontSize=36;fontColor=#000000;strokeColor=default;strokeWidth=1;fillColor=#0000CC;gradientColor=none;" parent="nePDa3_3fkzpvEF-QjUr-64" vertex="1">
          <mxGeometry x="390" width="70" height="70" as="geometry" />
        </mxCell>
        <mxCell id="rBhHTHVuxUBPP-gp3FUu-18" value="&lt;div&gt;&lt;table width=&quot;536&quot; style=&quot;border-collapse: collapse ; width: 402pt&quot;&gt;&lt;colgroup&gt;&lt;col width=&quot;136&quot; style=&quot;width: 102pt&quot;&gt;&lt;col width=&quot;400&quot; style=&quot;width: 300pt&quot;&gt;&lt;/colgroup&gt;&lt;tbody&gt;&lt;tr style=&quot;height: 15.0pt&quot;&gt;&lt;td width=&quot;136&quot; height=&quot;20&quot; class=&quot;xl65&quot; style=&quot;width: 102pt ; height: 15.0pt&quot;&gt;Validation&lt;/td&gt;&lt;td width=&quot;400&quot; class=&quot;xl65&quot; style=&quot;width: 300pt&quot;&gt;Description&lt;/td&gt;&lt;/tr&gt;&lt;tr style=&quot;height: 30.75pt&quot;&gt;&lt;td width=&quot;136&quot; height=&quot;41&quot; class=&quot;xl16&quot; style=&quot;width: 102pt ; height: 30.75pt&quot;&gt;lengthValidation: number&lt;/td&gt;&lt;td width=&quot;400&quot; class=&quot;xl16&quot; style=&quot;width: 300pt&quot;&gt;Specifies the [min, max] content length needed for the input field.&lt;/td&gt;&lt;/tr&gt;&lt;tr style=&quot;height: 15.0pt&quot;&gt;&lt;td width=&quot;136&quot; height=&quot;20&quot; class=&quot;xl16&quot; style=&quot;width: 102pt ; height: 15.0pt&quot;&gt;required: boolean&lt;/td&gt;&lt;td width=&quot;400&quot; class=&quot;xl16&quot; style=&quot;width: 300pt&quot;&gt;If true, the field is required to be filled, not required if false.&lt;/td&gt;&lt;/tr&gt;&lt;tr style=&quot;height: 76.5pt&quot;&gt;&lt;td width=&quot;136&quot; height=&quot;102&quot; class=&quot;xl16&quot; style=&quot;width: 102pt ; height: 76.5pt&quot;&gt;contentValidation: Regex&lt;/td&gt;&lt;td width=&quot;400&quot; class=&quot;xl16&quot; style=&quot;width: 300pt&quot;&gt;Regex are patterns used to match combination of strings, in general, it is helpful in string matching of a particular pattern.&lt;br&gt;&#xa;Example: ^[6-9]\d{9}$&lt;br&gt;&#xa;The above mentioned example contains a regex for matching Indian phone numbers.&lt;/td&gt;&lt;/tr&gt;&lt;tr style=&quot;height: 30.75pt&quot;&gt;&lt;td width=&quot;136&quot; height=&quot;41&quot; class=&quot;xl16&quot; style=&quot;width: 102pt ; height: 30.75pt&quot;&gt;dateValidation&lt;/td&gt;&lt;td width=&quot;400&quot; class=&quot;xl16&quot; style=&quot;width: 300pt&quot;&gt;Allows validating a date in the specified range [start, end] with the help of contentValidation to match a date pattern too.&lt;/td&gt;&lt;/tr&gt;&lt;/tbody&gt;&lt;/table&gt;&lt;/div&gt;" style="text;whiteSpace=wrap;html=1;fontSize=24;fillColor=#dae8fc;strokeColor=#6c8ebf;" vertex="1" parent="rBhHTHVuxUBPP-gp3FUu-19">
          <mxGeometry y="149.72222222222223" width="700" height="620.2777777777777" as="geometry" />
        </mxCell>
        <mxCell id="rBhHTHVuxUBPP-gp3FUu-23" value="" style="group" vertex="1" connectable="0" parent="1">
          <mxGeometry x="245" y="-1000" width="660" height="180" as="geometry" />
        </mxCell>
        <mxCell id="nePDa3_3fkzpvEF-QjUr-18" value="&lt;h1&gt;&lt;span&gt;viewType&lt;/span&gt;&lt;/h1&gt;&lt;h1&gt;&lt;span style=&quot;font-weight: 400&quot;&gt;&lt;font style=&quot;font-size: 18px&quot;&gt;Exists for defining the type of the field, whether it is a Radio Group input, text field input, or file picker etc.&lt;/font&gt;&lt;/span&gt;&lt;/h1&gt;" style="text;html=1;strokeColor=#6c8ebf;fillColor=#dae8fc;spacing=5;spacingTop=-20;whiteSpace=wrap;overflow=hidden;rounded=0;fontSize=18;" parent="rBhHTHVuxUBPP-gp3FUu-23" vertex="1">
          <mxGeometry width="660" height="180" as="geometry" />
        </mxCell>
        <mxCell id="nePDa3_3fkzpvEF-QjUr-19" value="" style="shape=mxgraph.signs.sports.view;html=1;pointerEvents=1;fillColor=#000000;strokeColor=none;verticalLabelPosition=bottom;verticalAlign=top;align=center;fontSize=14;" parent="rBhHTHVuxUBPP-gp3FUu-23" vertex="1">
          <mxGeometry x="178.01" y="10" width="60" height="60" as="geometry" />
        </mxCell>
        <mxCell id="nePDa3_3fkzpvEF-QjUr-50" value="&lt;font style=&quot;font-size: 24px&quot;&gt;Example&lt;/font&gt;" style="text;html=1;strokeColor=none;fillColor=none;align=center;verticalAlign=middle;whiteSpace=wrap;rounded=0;sketch=0;fontSize=36;fontColor=#000000;" parent="1" vertex="1">
          <mxGeometry x="35.84" y="940" width="108.33" height="70" as="geometry" />
        </mxCell>
        <mxCell id="rBhHTHVuxUBPP-gp3FUu-29" value="" style="shape=image;verticalLabelPosition=bottom;labelBackgroundColor=default;verticalAlign=top;aspect=fixed;imageAspect=0;image=data:image/png,iVBORw0KGgoAAAANSUhEUgAAAucAAACaCAYAAAAKJOb+AAAABHNCSVQICAgIfAhkiAAAABl0RVh0U29mdHdhcmUAZ25vbWUtc2NyZWVuc2hvdO8Dvz4AAAAzdEVYdENyZWF0aW9uIFRpbWUAVGh1cnNkYXkgMTcgRmVicnVhcnkgMjAyMiAwMjoxNTozOSBBTWQ5xOEAABVaSURBVHic7d19bFX1Hcfxz7kP7e0DReCu0A4nlE075KFFhFCIqwMaQMds1YFsS4zRjYlV2EDXMMaAjLkp2R/OsMU4l22UFiaCmDrGg2KQZA62IMgiTNqGYa0rFCrQ9vbce/YHoabDKe05vfd3L+9X0iht+uv3nOR7v5+e/u45luM4jgAAAAAknC/RBQAAAAC4hHAOAAAAGIJwDgAAABiCcA4AAAAYgnAOAAAAGIJwDgAAABiCcA4AAAAYItBfC7d3RNQZsdXVFVXUifXXjwEAAADiwm/5FAz6lZ4WUEYorV9+huX1Q4jaOyI6f6GTQA4AAICU5bd8ys5K9zykexrO286362JHxKvlAAAAAKNlhtKUk53h2Xqe7TknmAMAAOBac7Ejorbz7Z6t50k4b++IEMwBAABwTbrYEVG7R1nYk3B+/kKnF8sAAAAAScmrPOw6nLd3RHjzJwAAAK5pUSfmydVz1+G8M2K7LgIAAABIdl7kYtfhvKsr6roIAAAAINl5kYtdh3O2tAAAAADe5GLPbqUIAAAAwB3COQAAAGAIwjkAAABgCMI5AAAAYAjCOQAAAGAIwjkAAABgCMI5AAAAYAjCOQAAAGAIwjkAAABgCMI5AAAAYAjCOQAAAGAIwjkAAABgiECiC7gajuMkugQAAFyxLMuTdZiJQN951Yf9yfhw7jhOjw8AAJKJZVndgcBtMGAmAn3jZR/2N6PDueM4isVi8vss5QzIVEYo3fgTCgDAZY7jqL2jU23n2xWNxeTz+fo8x5iJQN942YfxYOye88svQj5Lyg1fp8yMkNEnEgCA/2VZljIzQsoNXyefJcVisT5d8WYmAn3nVR/Gi5Hh/PKf66LRqLIzQ/LxAgQASGI+y1J2ZkjRaLTXW1KYiYA33PRhPBkZzqVLL0bRLltZmaFElwIAgGtZmSFFu+w+XzlnJgLuuenDeDE7nDuX9gUBAJDsfD6fok7ft7UwEwH33PRhvBjd5SafOAAAesvNXGMmAt4wvZeMDueS2ScPAIDecTPXmImAN8zuJbPDeSzRBQAA4CE3c42ZCHjD8F4yO5wDAAAA1xDCOQAAAGAIwjkAAABgCMI5AAAAYIhAogsAkByOHDmiLVu2qKWlRZ///Oc1f/583XDDDYkuCwCS1iuvvKLt27dr5cqVys/PT3Q5MARXzgF8ppaWFq1fv1633nqrqqqqlJeXp1/96lfq6OhIdGkAkJRaWlq0Y8eORJcBAxHOAXymd955R4MHD9bs2bOVl5en++67TxcuXFBDQ0OiSwOApFRTU6Pi4uJElwEDEc6BFHH69GlVVlbqwIEDkqSOjg4tW7ZM27dvlyRduHBBzz33nBYvXqxly5Zp8+bNisWu7mavXV1dCgQ+3gUXCATk8/kUiUS8PxAASLDq6mqtWrWq+zVyx44d+v73v6/z589Lkg4cOKAf//jHqqys1JNPPqn6+vperX/o0CH9+9//1h133OF57Uh+7DkHUsSQIUM0Z84cbdmyRePHj1ddXZ3S09M1a9YsSVJtba3a2tr0wx/+UG1tbXruuec0cOBAlZWVqbGxUU8++eQVa86dO1ezZ8/W2LFj9dJLL+nvf/+7ioqKtGvXLoVCId14443xPkwA6Hd33XWXVq5cqX379qm4uFh1dXW69957lZ2drebmZj3//PO6//77NWrUKO3cuVPPPPOMfv7znysYDGrx4sXq7OzssV5hYaEee+wxSVIkElFtba2+8Y1vKC0tLRGHB8MRzoEUUlZWpr/+9a/atGmT9u/fr4cffljBYFCS9MEHH6iwsFDDhg3TsGHD9OCDD8q2bUlSfn6+VqxYccV6AwYMkCQNHTpU5eXl+s1vfiPLsiRJlZWVCoVCcToyAIifzMxM3XPPPdq8ebOOHTum/Px8TZ06VZL04Ycfyufzady4ccrIyFBFRYWGDRumrq4uBYNBPfHEE3Kcno+HT09P7/7/uro65ebmasKECWptbY3rcSE5EM6BFOL3+7VgwQKtW7dOEyZM0M0339z9tdmzZ+uFF17QiRMnNG7cON16660aNGiQJCkYDH7qnQIaGxu1fft2ffOb31RBQYEOHjyo3/3ud1q+fLmuu+66fj8uAIi3yZMna9++fTp48KCWL1/efWGisLBQBQUFWrFihYqKijR+/HiVlpZ2fz0vL+//rtnc3Kw9e/Zo+fLlcTkGJCfCOZBi2tvbJemKO6kUFxfrxhtv1KFDh3To0CG9/PLLevDBB1VUVKTGxkatXbv2irW+/vWva86cOdqzZ4/Gjx+v2267TZI0fPhwHT16VG+++SZ7JgGkJMdx1NnZ2f3fy4LBoH7wgx/oxIkTOnz4sKqrqzVkyBAtWbJEfr9fjz766Cdua1myZIl27typSCSin/70p90/Q5LWrl2rGTNm6K677orfAcJYhHMghXR2dqqmpkZf+9rXtHv3bh04cEATJ06Ubdt6+eWX9ZWvfEUlJSUqKSlRdXW1XnvtNRUVFSk/P18rV668Yr3L21ps2+7xZ1np0oC6vC0GAFLN66+/ro8++kgzZszQhg0b9KMf/Ug+n0+HDx9WW1ubpk6dqoKCAn31q1/V0qVLVV9fry9+8Yuqqqr6v9ta5s6dq7Kysu7Pt7W16amnntLChQs1cuTIuB4fzEU4B1LIK6+8ovT0dM2ZM0cZGRnavHmzxowZo1AopCNHjqipqUkVFRWybVv19fUqKCiQ9NnbWsaPH68//vGPGjNmjL7whS/onXfe0Xvvvae77747XocGAHFz7tw5bd26Vd/61rc0btw4/e1vf9Pu3bs1c+ZM2batjRs3Kj09XSNHjtTbb78tv9+vcDgs6dO3teTk5CgnJ6f735ffEzR48GBlZWX170EhaRDOgRRx6tQp7dq1S4888oh8Pp9KS0u1d+9ebdu2TfPmzdPDDz+sjRs3au3atQoGgxo7dqzKy8uvau1Jkybp/Pnzeumll9Ta2qrc3Fw99NBDXOkBkJI2bdqk/Px8TZw4UZZlqby8XNXV1Zo4caKKi4tVXl6uLVu26Ny5c8rNzdV3v/td3n8Dz1jO//7tpZc+aDnnVS3dHMdRNBpV+4WL+tKo6z1fHwCARDj+3kllZGXK7/d3v4HwszATAW/1pQ97Y1h4oKvv5yFEAAAAgCEI5wAAAIAhCOcAAACAIQjnAAAAgCEI5wAAAIAhCOcAAACAIQjnAAAAgCHMDudmVwcAQO+4mWvMRMAbhveS4eVZisZiiS4CAADXLs0zNw88YSYCbrnvw/5ndDi3LEunz7QmugwAAFw7fabV1dMImYmAe277MB6MDeeWZclv+XTq/WbZdjTR5QAA0Ge2HdWp95vlt3x9CgbMRMA9t30YL2aH82BAAX9Qr7+xT/UNjbJtO9FlAQBw1WzbVn1Do15/Y58C/qD8wUDfwzkzEegTr/owXizHcRw3C3zQcs6rWnpwHEexWEy2bau1tVWN9Q0609oi2+6Su4oBAOh/liUFAkENHhTWDSNHaNCgQQoEAvL5en/VjpkI9I2XfXi1hoUHuvp+Y8O59PGLUTQaVSTSKduOKhaLSXIk3hMDADCVT5Is+Xw+BQJ+paWly+/3uwoEzESgl/qhD6+G23Ae8KiOfmFZVvcJ9Pv9cvl7BAAAcWdZVo8PN+swE4G+8aoP48HocC6p+wSafiIBAPg0XswxZiLgTjL0jvHhXEqOEwkAQDwwE4HUZuzdWgAAAIBrDeEcAAAAMAThHAAAADAE4RwAAAAwBOEcAAAAMAThHAAAADAE4RwAAAAwBOEcAAAAMAThHAAAADBEUjwh1HGcRJcAJC2vniZIHwIAkl0yPGHX+HDuOE6PDwBXx7Ks7hchty9G9CEAIJl5ORP7m9Hh3HEcxWIx+X2WcgZkKiOUbvwJBUzgOI7aOzrVdr5d0VhMPp+vz71DHwIAkpmXMzEejN1zfjkQ+CwpN3ydMjNCRp9IwCSWZSkzI6Tc8HXyWVIsFuvTFW/6EACQ7LyaifFiZDi//KfzaDSq7MyQfIQBoE98lqXszJCi0Wivt6TQhwCAVOJmJsaTkeFcuhQMol22sjJDiS4FSGpZmSFFu+w+XzmnDwEAqcLNTIwXs8O5c2lfEIC+8/l8ijp939ZCHwIAUoWbmRgvRk9ck08ckEzc9BJ9CABIJabPNaPDuWT2yQOSh5teog8BAKnE7LlmdjiPJboAIEW46SX6EACQSgyfa2aHcwAAAOAaQjgHAAAADEE4BwAAAAxBOAcAAAAMEUh0Abi2HD9+XE8//bTmz5+v22+/PdHlAEBSaW5uVnV1terr6zVw4EDdeeedmjx5cqLLAuAhrpwjbmKxmKqrq2XxGHgA6LVYLKb169crMzNTVVVVmj59ul544QU1NDQkujQAHiKcI2527dqlUCikIUOGJLoUAEg6zc3Nampq0rx585SXl6fS0lKNGjVKhw4dSnRpADxEOIck6cCBA3rkkUd0+vRpSVJDQ4MWLlyod999V5J08uRJ/eIXv1BlZaVWrFih/fv392r9s2fPqq6uTgsWLODKOYCUFYvFtGbNGm3YsKH7c88884zWrVsn6dKTCbdt26bHH39cixcv1q9//WudO3fuqtbu6uqSJAUCH+9ITU9PVyQS8fAIACQae84hSZo4caL279+vLVu26KGHHlJtba0mTZqkm266SZL07LPPasKECXrggQf07rvv6g9/+IPy8/M1YsQI7dq1Sy+++OIVay5dulSjRo2SJNXW1mry5Mm6/vrr43pcABBPPp9PCxYs0NNPP63bb79dra2t+uc//6kVK1ZIkt58803t27dPCxcuVEZGhqqrq/X73/9elZWVkqTFixers7Ozx5qFhYV67LHHNHz4cOXm5urVV19VRUWFTpw4oWPHjunOO++M+3EC6D+Ec3SbP3++Vq9erdraWjU1Nel73/ueJKmzs1Nnz57VzTffrHA4rHA4rEAgoLS0NEnSlClTNHr06CvWC4fDkqSjR4/q+PHjWr16dfwOBgASZNSoUZoyZYo2bdqks2fPaubMmcrLy5N0aWtKOBxWQUGBLMvSt7/9bf3rX//q/t4nnnhCjtPz0eLp6emSLgX/Bx54QE899ZR2794tx3E0a9YsFRQUxO/gAPQ7wjm65ebmatasWdq+fbvuu+8+5eTkSLo0GMrKyrR+/XqNHTtWY8eO1S233NI9MLKyspSVlfWJa9q2rY0bN6qiokKZmZlxOxYASKS7775bK1asUCgU0h133NH9+WnTpunAgQP6yU9+oqKiIk2YMEFTp07t/vrlEP9JOjo69Pzzz+u2227T1KlTderUKdXU1KiwsFBf/vKX+/V4AMQP4Rw9XLx4UZLU3t7e4/MVFRWaNm2a3n77be3du1dbt27V448/rnA4rL/85S+fuK1l2bJlOnPmjD788EPV1NSopqZGkhSJRPSnP/1JBw8e1NKlS/v/oAAgzrq6uhSNRhWJRGTbdvdfGocOHao1a9bo6NGjOnz4sNatW6fS0lJVVFRIkh599NFP3NayZMkSHTx4ULZta968ebIsS9dff71OnTqlP//5z4RzIIUQztHt5MmT2rt3r+69915t27ZNkyZN0pAhQ9TU1KS33npLc+fO1YwZMzR9+nStXr1ab731lubMmaOpU6dqzJgxV6wXDoc1fPhwrVmzpsfnf/nLX6qkpETTpk2L16EBQFzV1NRo9OjR+uijj7R161YtWLBAkvTaa68pPz9f48aN07hx43TTTTfpt7/9rcrLy2VZlqqqqv7vthbbthUIBHq8qT4tLa37jaIAUgPhHJIu3UFgw4YNmjJlimbMmKFjx46ppqZGixYtUkZGhnbu3CnLslRSUqL//Oc/am1t1dChQyV9+rYWSQqFQj3+7ff7lZ2drUGDBvXrMQFAIhw5ckSHDx/WqlWrdPHiRf3sZz9TSUmJRowYoebmZu3Zs0f333+/cnJydOTIEeXm5nYH7k/b1jJ69Ght3rxZdXV1mjRpkpqbm7V3716VlZXF69AAxAHhHJKkN954Q01NTVq0aJEk6Z577tGqVav0j3/8Q8XFxVq0aJFefPFF7dixQwMGDFBZWZluueWWBFcNAGbp6urSxo0bNX369O43xU+ZMkUbNmxQVVWVKioqFI1G9eyzz8q2bY0cOVLf+c53rmrtz33uc1q0aJG2bt2qV199VQMGDFBpaalmzpzZn4cEIM4s53//ftZLH7Rc3f1Ze8NxHEWjUbVfuKgvjeLWe4Bbx987qYysTPn9/qu+zzx9CABIRX2Zib0xLDzQ1ffzECIAAADAEIRzAAAAwBCEcwAAAMAQhHMAAADAEIRzAAAAwBCEcwAAAMAQhHMAAADAEGaHc7OrA5KHm16iDwEAqcTwuWZ4eZaisViiiwCS2qUecvOQBfoQAJAa3M/E/md0OLcsS6fPtCa6DCCpnT7T6uoJaPQhACBVuJ2J8WBsOLcsS37Lp1PvN8u2o4kuB0hKth3Vqfeb5bd8fXoxog8BAKnC7UyMF7PDeTCggD+o19/Yp/qGRtm2neiygKRg27bqGxr1+hv7FPAH5Q8G+h7O6UMAQBLzaibGi+U4juNmgQ9aznlVSw+O4ygWi8m2bbW2tqqxvkFnWltk211yVzGQ2ixLCgSCGjworBtGjtCgQYMUCATk8/X+SgF9CABIZl7OxKs1LDzQ1fcbG86lj4NBNBpVJNIp244qFotJciTenwZcySdJlnw+nwIBv9LS0uX3+129CNGHAICk1A8z8Wq4DecBj+roF5ZldZ9Av98vl79HANcUy7J6fLhZhz4EACQzr2ZiPBgdziV1n0DTTyRgKi96hz4EAKSCZJhjxodzKTlOJJDq6EMAAPqfsXdrAQAAAK41hHMAAADAEIRzAAAAwBCEcwAAAMAQhHMAAADAEIRzAAAAwBCEcwAAAMAQhHMAAADAEIRzAAAAwBCEcwAAAMAQrsO53yLfAwAAAF7kYtcrBIN+10UAAAAAyc6LXOw6nKenBVwXAQAAACQ7L3Kx63CeEUpjawsAAACuaX7Lp4xQmut1PEnV2VnpXiwDAAAAJCWv8rAn4TwjlKZMD35TAAAAAJJNZijNk6vmkoe3UszJziCgAwAA4JqSGUpTTnaGZ+tZjuM4nq0mqb0jovMXOhV1Yl4uCwAAABjDb/mUnZXu2RXzyzwP55e1d0TUGbHV1RUlqAMAACDp+S2fgkG/0tMCnofyy/otnAMAAADoHe6BCAAAABiCcA4AAAAYgnAOAAAAGIJwDgAAABiCcA4AAAAYgnAOAAAAGIJwDgAAABiCcA4AAAAYgnAOAAAAGOK/htiF2v7TD70AAAAASUVORK5CYII=;" vertex="1" parent="1">
          <mxGeometry x="-877.59" y="1200" width="885.16" height="183.47" as="geometry" />
        </mxCell>
        <mxCell id="rBhHTHVuxUBPP-gp3FUu-31" value="" style="curved=1;endArrow=classic;html=1;rounded=0;fontSize=18;fontColor=#000000;exitX=1;exitY=0.75;exitDx=0;exitDy=0;" edge="1" parent="1" source="rBhHTHVuxUBPP-gp3FUu-29">
          <mxGeometry width="50" height="50" relative="1" as="geometry">
            <mxPoint x="50" y="1330" as="sourcePoint" />
            <mxPoint x="20" y="530" as="targetPoint" />
            <Array as="points">
              <mxPoint x="50" y="1280" />
              <mxPoint x="240" y="870" />
            </Array>
          </mxGeometry>
        </mxCell>
      </root>
    </mxGraphModel>
  </diagram>
</mxfile>
